# WaveFront *.obj file (generated by Autodesk ATF)

mtllib 45_UU.mtl

g Body2

v -0.040000 0.500000 -0.010000
v -0.040000 0.500000 0.010000
v -0.030216 0.670701 0.010000
v -0.000286 0.839647 0.010000
v 0.050984 1.003684 0.010000
v 0.085078 1.082125 0.010000
v 0.124976 1.157088 0.010000
v 0.170800 1.227754 0.010000
v 0.222674 1.293303 0.010000
v 0.280720 1.352915 0.010000
v 0.345013 1.405697 0.010000
v 0.415322 1.450718 0.010000
v 0.491315 1.487323 0.010000
v 0.572666 1.514873 0.010000
v 0.659045 1.532728 0.010000
v 0.750098 1.540255 0.010000
v 0.845320 1.537111 0.010000
v 0.944482 1.523354 0.010000
v 1.047418 1.499069 0.010000
v 1.153962 1.464342 0.010000
v 1.263946 1.419258 0.010000
v 1.377204 1.363903 0.010000
v 1.493570 1.298363 0.010000
v 1.612900 1.222773 0.010000
v 1.735173 1.137435 0.010000
v 1.860360 1.042487 0.010000
v 1.988425 0.938048 0.010000
v 2.119335 0.824239 0.010000
v 2.253054 0.701177 0.010000
v 2.389548 0.568984 0.010000
v 2.528782 0.427778 0.010000
v 2.528782 0.427778 -0.010000
v 2.389548 0.568984 -0.010000
v 2.253054 0.701177 -0.010000
v 2.119335 0.824239 -0.010000
v 1.988425 0.938048 -0.010000
v 1.860360 1.042487 -0.010000
v 1.735173 1.137435 -0.010000
v 1.612900 1.222773 -0.010000
v 1.493570 1.298363 -0.010000
v 1.377204 1.363903 -0.010000
v 1.263946 1.419258 -0.010000
v 1.153962 1.464342 -0.010000
v 1.047418 1.499069 -0.010000
v 0.944482 1.523354 -0.010000
v 0.845320 1.537111 -0.010000
v 0.750098 1.540255 -0.010000
v 0.659045 1.532728 -0.010000
v 0.572666 1.514873 -0.010000
v 0.491315 1.487323 -0.010000
v 0.415322 1.450718 -0.010000
v 0.345013 1.405697 -0.010000
v 0.280720 1.352915 -0.010000
v 0.222674 1.293303 -0.010000
v 0.170800 1.227754 -0.010000
v 0.124976 1.157088 -0.010000
v 0.085078 1.082125 -0.010000
v 0.050984 1.003684 -0.010000
v -0.000286 0.839647 -0.010000
v -0.030216 0.670701 -0.010000
v 0.228041 1.299369 0.000000
v 0.584950 1.518094 0.000000
v 1.250259 1.425350 0.000000
v 1.745621 1.129795 0.000000
v -0.012012 0.786419 0.000000
v -0.033089 0.643681 0.000000
v 0.023822 0.926574 0.000000
v 0.075357 1.061367 0.000000
v 0.143235 1.186934 0.000000
v 0.330343 1.394728 0.000000
v 0.276976 1.349441 0.000000
v 0.388021 1.434631 0.000000
v 0.449812 1.468747 0.000000
v 0.515520 1.496695 0.000000
v 0.734185 1.539722 0.000000
v 0.657907 1.532563 0.000000
v 0.813457 1.539326 0.000000
v 0.895557 1.531395 0.000000
v 0.980387 1.515981 0.000000
v 1.067846 1.493135 0.000000
v 1.157837 1.462908 0.000000
v 1.345015 1.380512 0.000000
v 1.442004 1.328446 0.000000
v 1.541127 1.269203 0.000000
v 1.642333 1.202933 0.000000
v 2.013644 0.916661 0.000000
v 1.850969 1.049861 0.000000
v 2.180885 0.768418 0.000000
v 2.352621 0.605375 0.000000
v 0.040000 0.500000 0.010000
v 0.040000 0.500000 -0.010000
v 0.049268 0.661507 -0.010000
v 0.077490 0.820916 -0.010000
v 0.125511 0.974417 -0.010000
v 0.157157 1.047151 -0.010000
v 0.193909 1.116222 -0.010000
v 0.235778 1.180890 -0.010000
v 0.282776 1.240416 -0.010000
v 0.334913 1.294061 -0.010000
v 0.392147 1.341123 -0.010000
v 0.454328 1.381089 -0.010000
v 0.521429 1.413475 -0.010000
v 0.593434 1.437796 -0.010000
v 0.670326 1.453566 -0.010000
v 0.752093 1.460295 -0.010000
v 0.838731 1.457539 -0.010000
v 0.930119 1.445023 -0.010000
v 1.026113 1.422492 -0.010000
v 1.126559 1.389699 -0.010000
v 1.231217 1.346562 -0.010000
v 1.339886 1.293184 -0.010000
v 1.452380 1.229675 -0.010000
v 1.568509 1.156144 -0.010000
v 1.688086 1.072702 -0.010000
v 1.810930 0.979491 -0.010000
v 1.936930 0.876719 -0.010000
v 2.066023 0.764501 -0.010000
v 2.198145 0.642942 -0.010000
v 2.333231 0.512147 -0.010000
v 2.471218 0.372222 -0.010000
v 2.471218 0.372222 0.010000
v 2.333231 0.512147 0.010000
v 2.198145 0.642942 0.010000
v 2.066023 0.764501 0.010000
v 1.936930 0.876719 0.010000
v 1.810930 0.979491 0.010000
v 1.688086 1.072702 0.010000
v 1.568509 1.156144 0.010000
v 1.452380 1.229675 0.010000
v 1.339886 1.293184 0.010000
v 1.231217 1.346562 0.010000
v 1.126559 1.389699 0.010000
v 1.026113 1.422492 0.010000
v 0.930119 1.445023 0.010000
v 0.838731 1.457539 0.010000
v 0.752093 1.460295 0.010000
v 0.670326 1.453566 0.010000
v 0.593434 1.437796 0.010000
v 0.521429 1.413475 0.010000
v 0.454328 1.381089 0.010000
v 0.392147 1.341123 0.010000
v 0.334913 1.294061 0.010000
v 0.282776 1.240416 0.010000
v 0.235778 1.180890 0.010000
v 0.193909 1.116222 0.010000
v 0.157157 1.047151 0.010000
v 0.125511 0.974417 0.010000
v 0.077490 0.820916 0.010000
v 0.049268 0.661507 0.010000
v 1.009333 1.427077 0.000000
v 1.326539 1.300179 0.000000
v 0.061689 0.745698 0.000000
v 0.045376 0.623246 0.000000
v 0.089233 0.865962 0.000000
v 0.128478 0.981915 0.000000
v 0.179579 1.090890 0.000000
v 0.242574 1.190265 0.000000
v 0.317505 1.277417 0.000000
v 0.404321 1.349791 0.000000
v 0.502654 1.405427 0.000000
v 0.612406 1.442608 0.000000
v 0.733517 1.459608 0.000000
v 0.798334 1.460002 0.000000
v 0.865951 1.454786 0.000000
v 0.936305 1.443849 0.000000
v 1.084971 1.404359 0.000000
v 1.163118 1.375614 0.000000
v 1.243668 1.340872 0.000000
v 1.411648 1.253587 0.000000
v 1.498910 1.201143 0.000000
v 1.610432 1.127749 0.000000
v 1.725003 1.045455 0.000000
v 1.842477 0.954416 0.000000
v 1.962783 0.854789 0.000000
v 2.085864 0.746666 0.000000
v 2.211667 0.630138 0.000000
v 2.340136 0.505293 0.000000
v -0.040000 0.000000 -0.010000
v -0.040000 0.000000 0.010000
v 0.040000 0.000000 -0.010000
v 0.040000 0.000000 0.010000
vt -0.020000 0.179462 0.000000
vt -0.020000 0.000000 0.000000
vt -0.010000 0.151005 0.000000
vt 0.000000 0.000000 0.000000
vt 0.000000 0.179462 0.000000
vt -0.010000 0.302010 0.000000
vt 0.000000 0.358924 0.000000
vt -0.010000 0.453015 0.000000
vt 0.000000 0.538387 0.000000
vt -0.010000 0.604020 0.000000
vt 0.000000 0.628118 0.000000
vt 0.000000 0.717849 0.000000
vt -0.010000 0.755025 0.000000
vt 0.000000 0.807580 0.000000
vt -0.010000 0.906030 0.000000
vt 0.000000 0.897311 0.000000
vt 0.000000 0.987042 0.000000
vt 0.000000 1.076773 0.000000
vt -0.010000 1.057035 0.000000
vt -0.010000 0.981532 0.000000
vt -0.020000 0.987042 0.000000
vt -0.020000 0.897311 0.000000
vt -0.010000 1.132537 0.000000
vt 0.000000 1.166504 0.000000
vt -0.010000 1.208040 0.000000
vt 0.000000 1.256235 0.000000
vt -0.010000 1.283542 0.000000
vt 0.000000 1.345966 0.000000
vt -0.010000 1.359045 0.000000
vt 0.000000 1.435698 0.000000
vt -0.010000 1.434547 0.000000
vt -0.010000 1.510050 0.000000
vt -0.020000 1.435698 0.000000
vt -0.020000 1.525429 0.000000
vt -0.010000 1.585552 0.000000
vt -0.020000 1.615160 0.000000
vt -0.010000 1.661055 0.000000
vt -0.020000 1.704891 0.000000
vt -0.010000 1.736557 0.000000
vt -0.020000 1.794622 0.000000
vt -0.010000 1.812060 0.000000
vt -0.020000 1.884353 0.000000
vt -0.010000 1.887562 0.000000
vt -0.010000 1.963065 0.000000
vt 0.000000 1.884353 0.000000
vt 0.000000 1.974084 0.000000
vt 0.000000 1.525429 0.000000
vt 0.000000 1.615160 0.000000
vt 0.000000 1.704891 0.000000
vt 0.000000 1.794622 0.000000
vt -0.010000 2.038567 0.000000
vt 0.000000 2.063815 0.000000
vt -0.010000 2.114070 0.000000
vt 0.000000 2.153546 0.000000
vt -0.010000 2.189572 0.000000
vt 0.000000 2.243277 0.000000
vt -0.010000 2.265075 0.000000
vt 0.000000 2.333009 0.000000
vt -0.010000 2.340577 0.000000
vt 0.000000 2.422740 0.000000
vt -0.010000 2.416080 0.000000
vt 0.000000 2.512471 0.000000
vt -0.010000 2.529909 0.000000
vt 0.000000 2.602202 0.000000
vt -0.010000 2.643738 0.000000
vt 0.000000 2.691933 0.000000
vt -0.010000 2.757566 0.000000
vt 0.000000 2.781664 0.000000
vt -0.020000 2.871395 0.000000
vt 0.000000 2.871395 0.000000
vt -0.020000 2.781664 0.000000
vt -0.020000 2.691933 0.000000
vt -0.020000 2.602202 0.000000
vt -0.020000 2.512471 0.000000
vt -0.020000 2.422740 0.000000
vt -0.020000 2.333009 0.000000
vt -0.020000 2.243277 0.000000
vt -0.020000 2.153546 0.000000
vt -0.020000 2.063815 0.000000
vt -0.020000 1.974084 0.000000
vt -0.020000 1.345966 0.000000
vt -0.020000 1.256235 0.000000
vt -0.020000 1.166504 0.000000
vt -0.020000 1.076773 0.000000
vt -0.020000 0.807580 0.000000
vt -0.020000 0.717849 0.000000
vt -0.020000 0.628118 0.000000
vt -0.020000 0.538387 0.000000
vt -0.020000 0.358924 0.000000
vt -0.020000 0.160251 0.000000
vt -0.020000 0.000000 0.000000
vt -0.010000 0.122213 0.000000
vt 0.000000 0.000000 0.000000
vt 0.000000 0.160251 0.000000
vt -0.010000 0.244426 0.000000
vt 0.000000 0.320502 0.000000
vt -0.010000 0.366640 0.000000
vt 0.000000 0.480753 0.000000
vt -0.010000 0.488853 0.000000
vt 0.000000 0.560879 0.000000
vt -0.010000 0.611066 0.000000
vt 0.000000 0.641004 0.000000
vt -0.010000 0.733279 0.000000
vt 0.000000 0.721130 0.000000
vt 0.000000 0.801255 0.000000
vt -0.010000 0.855493 0.000000
vt 0.000000 0.881381 0.000000
vt -0.010000 0.977706 0.000000
vt 0.000000 0.961506 0.000000
vt 0.000000 1.041632 0.000000
vt -0.010000 1.099919 0.000000
vt 0.000000 1.121757 0.000000
vt -0.010000 1.222132 0.000000
vt 0.000000 1.201883 0.000000
vt 0.000000 1.282009 0.000000
vt -0.010000 1.344346 0.000000
vt 0.000000 1.362134 0.000000
vt -0.010000 1.405452 0.000000
vt 0.000000 1.442260 0.000000
vt -0.010000 1.466559 0.000000
vt 0.000000 1.522385 0.000000
vt -0.010000 1.527666 0.000000
vt -0.010000 1.588772 0.000000
vt -0.020000 1.522385 0.000000
vt -0.020000 1.602511 0.000000
vt -0.010000 1.649879 0.000000
vt -0.020000 1.682636 0.000000
vt -0.010000 1.710985 0.000000
vt -0.020000 1.762762 0.000000
vt -0.010000 1.772092 0.000000
vt -0.010000 1.833199 0.000000
vt 0.000000 1.762762 0.000000
vt 0.000000 1.842887 0.000000
vt 0.000000 1.602511 0.000000
vt 0.000000 1.682636 0.000000
vt -0.010000 1.894305 0.000000
vt 0.000000 1.923013 0.000000
vt -0.010000 1.955412 0.000000
vt 0.000000 2.003138 0.000000
vt -0.010000 2.031488 0.000000
vt 0.000000 2.083264 0.000000
vt -0.010000 2.107563 0.000000
vt 0.000000 2.163389 0.000000
vt -0.010000 2.183639 0.000000
vt 0.000000 2.243515 0.000000
vt -0.010000 2.259715 0.000000
vt 0.000000 2.323641 0.000000
vt -0.010000 2.335790 0.000000
vt 0.000000 2.403766 0.000000
vt -0.010000 2.411866 0.000000
vt 0.000000 2.483892 0.000000
vt -0.010000 2.487941 0.000000
vt 0.000000 2.564017 0.000000
vt -0.020000 2.564017 0.000000
vt -0.020000 2.483892 0.000000
vt -0.020000 2.403766 0.000000
vt -0.020000 2.323641 0.000000
vt -0.020000 2.243515 0.000000
vt -0.020000 2.163389 0.000000
vt -0.020000 2.083264 0.000000
vt -0.020000 2.003138 0.000000
vt -0.020000 1.923013 0.000000
vt -0.020000 1.842887 0.000000
vt -0.020000 1.442260 0.000000
vt -0.020000 1.362134 0.000000
vt -0.020000 1.282009 0.000000
vt -0.020000 1.201883 0.000000
vt -0.020000 1.121757 0.000000
vt -0.020000 1.041632 0.000000
vt -0.020000 0.961506 0.000000
vt -0.020000 0.881381 0.000000
vt -0.020000 0.801255 0.000000
vt -0.020000 0.721130 0.000000
vt -0.020000 0.641004 0.000000
vt -0.020000 0.560879 0.000000
vt -0.020000 0.480753 0.000000
vt -0.020000 0.320502 0.000000
vt 0.000000 0.000000 0.000000
vt 0.020000 0.000000 0.000000
vt 0.000000 0.500000 0.000000
vt 0.020000 0.500000 0.000000
vt -0.000000 0.000000 0.000000
vt 0.080000 0.000000 0.000000
vt -0.000000 0.500000 0.000000
vt 0.080000 0.500000 0.000000
vt -0.009268 0.661507 0.000000
vt 0.070216 0.670701 0.000000
vt -0.037490 0.820916 0.000000
vt 0.040286 0.839647 0.000000
vt -0.085511 0.974417 0.000000
vt -0.010984 1.003684 0.000000
vt -0.117157 1.047151 0.000000
vt -0.045078 1.082125 0.000000
vt -0.153909 1.116222 0.000000
vt -0.084976 1.157088 0.000000
vt -0.195778 1.180890 0.000000
vt -0.130800 1.227754 0.000000
vt -0.242776 1.240416 0.000000
vt -0.182674 1.293303 0.000000
vt -0.294913 1.294061 0.000000
vt -0.240720 1.352915 0.000000
vt -0.352147 1.341123 0.000000
vt -0.305013 1.405697 0.000000
vt -0.414328 1.381089 0.000000
vt -0.375322 1.450718 0.000000
vt -0.481429 1.413475 0.000000
vt -0.451315 1.487323 0.000000
vt -0.553434 1.437796 0.000000
vt -0.532666 1.514873 0.000000
vt -0.630326 1.453566 0.000000
vt -0.619045 1.532728 0.000000
vt -0.712093 1.460295 0.000000
vt -0.710098 1.540255 0.000000
vt -0.805320 1.537111 0.000000
vt -0.798731 1.457539 0.000000
vt -0.904482 1.523354 0.000000
vt -0.890119 1.445023 0.000000
vt -1.007418 1.499069 0.000000
vt -0.986113 1.422492 0.000000
vt -1.113962 1.464342 0.000000
vt -1.086559 1.389699 0.000000
vt -1.223946 1.419258 0.000000
vt -1.191217 1.346562 0.000000
vt -1.337204 1.363903 0.000000
vt -1.299886 1.293184 0.000000
vt -1.453570 1.298363 0.000000
vt -1.412380 1.229675 0.000000
vt -1.572900 1.222773 0.000000
vt -1.528509 1.156144 0.000000
vt -1.695173 1.137435 0.000000
vt -1.648086 1.072702 0.000000
vt -1.820360 1.042487 0.000000
vt -1.770930 0.979491 0.000000
vt -1.948425 0.938048 0.000000
vt -1.896930 0.876719 0.000000
vt -2.079335 0.824239 0.000000
vt -2.026023 0.764501 0.000000
vt -2.213054 0.701177 0.000000
vt -2.158145 0.642942 0.000000
vt -2.349548 0.568984 0.000000
vt -2.293231 0.512147 0.000000
vt -2.488782 0.427778 0.000000
vt -2.431218 0.372222 0.000000
vt -0.000000 0.000000 0.000000
vt 0.020000 0.000000 0.000000
vt -0.000000 0.500000 0.000000
vt 0.020000 0.500000 0.000000
vt 0.000000 0.000000 0.000000
vt 0.080000 0.000000 0.000000
vt 0.000000 0.500000 0.000000
vt 0.080000 0.500000 0.000000
vt 0.089268 0.661507 0.000000
vt 0.009784 0.670701 0.000000
vt 0.117490 0.820916 0.000000
vt 0.039714 0.839647 0.000000
vt 0.165511 0.974417 0.000000
vt 0.090984 1.003684 0.000000
vt 0.197157 1.047151 0.000000
vt 0.125078 1.082125 0.000000
vt 0.233909 1.116222 0.000000
vt 0.164976 1.157088 0.000000
vt 0.275778 1.180890 0.000000
vt 0.210800 1.227754 0.000000
vt 0.322776 1.240416 0.000000
vt 0.262674 1.293303 0.000000
vt 0.374913 1.294061 0.000000
vt 0.320720 1.352915 0.000000
vt 0.432147 1.341123 0.000000
vt 0.385013 1.405697 0.000000
vt 0.494328 1.381089 0.000000
vt 0.455322 1.450718 0.000000
vt 0.561429 1.413475 0.000000
vt 0.531315 1.487323 0.000000
vt 0.633434 1.437796 0.000000
vt 0.612666 1.514873 0.000000
vt 0.710326 1.453566 0.000000
vt 0.699045 1.532728 0.000000
vt 0.792093 1.460295 0.000000
vt 0.790098 1.540255 0.000000
vt 0.885320 1.537111 0.000000
vt 0.878731 1.457539 0.000000
vt 0.984482 1.523354 0.000000
vt 0.970119 1.445023 0.000000
vt 1.087418 1.499069 0.000000
vt 1.066113 1.422492 0.000000
vt 1.193962 1.464342 0.000000
vt 1.166559 1.389699 0.000000
vt 1.303946 1.419258 0.000000
vt 1.271217 1.346562 0.000000
vt 1.417204 1.363903 0.000000
vt 1.379886 1.293184 0.000000
vt 1.533570 1.298363 0.000000
vt 1.492380 1.229675 0.000000
vt 1.652900 1.222773 0.000000
vt 1.608509 1.156144 0.000000
vt 1.775173 1.137435 0.000000
vt 1.728086 1.072702 0.000000
vt 1.900360 1.042487 0.000000
vt 1.850930 0.979491 0.000000
vt 2.028425 0.938048 0.000000
vt 1.976930 0.876719 0.000000
vt 2.159335 0.824239 0.000000
vt 2.106023 0.764501 0.000000
vt 2.293054 0.701177 0.000000
vt 2.238145 0.642942 0.000000
vt 2.429548 0.568984 0.000000
vt 2.373231 0.512147 0.000000
vt 2.568782 0.427778 0.000000
vt 2.511218 0.372222 0.000000
vt -0.040000 -0.010000 0.000000
vt 0.040000 -0.010000 0.000000
vt -0.040000 0.010000 0.000000
vt 0.040000 0.010000 0.000000
vt -0.040000 -0.010000 0.000000
vt 0.040000 -0.010000 0.000000
vt -0.040000 0.010000 0.000000
vt 0.040000 0.010000 0.000000
vn -0.993365 0.115008 0.000000
vn -1.000000 -0.000000 0.000000
vn -0.995334 0.096487 0.000000
vn -1.000000 -0.000000 0.000000
vn -0.993365 0.115008 0.000000
vn -0.980602 0.196008 0.000000
vn -0.972168 0.234285 0.000000
vn -0.953687 0.300802 0.000000
vn -0.931380 0.364048 0.000000
vn -0.909999 0.414611 0.000000
vn -0.901099 0.433614 0.000000
vn -0.862306 0.506388 0.000000
vn -0.843335 0.537389 0.000000
vn -0.813266 0.581892 0.000000
vn -0.745573 0.666424 0.000000
vn -0.752207 0.658927 0.000000
vn -0.677648 0.735386 0.000000
vn -0.588397 0.808572 0.000000
vn -0.609115 0.793082 0.000000
vn -0.682634 0.730761 0.000000
vn -0.677648 0.735386 0.000000
vn -0.752207 0.658927 0.000000
vn -0.527119 0.849792 0.000000
vn -0.487918 0.872890 0.000000
vn -0.438223 0.898866 0.000000
vn -0.378411 0.925638 0.000000
vn -0.343641 0.939101 0.000000
vn -0.262284 0.964991 0.000000
vn -0.244983 0.969527 0.000000
vn -0.142632 0.989776 0.000000
vn -0.144174 0.989552 0.000000
vn -0.043491 0.999054 0.000000
vn -0.142632 0.989776 0.000000
vn -0.023508 0.999724 0.000000
vn 0.051626 0.998666 -0.000000
vn 0.086739 0.996231 -0.000000
vn 0.138570 0.990353 -0.000000
vn 0.185071 0.982725 -0.000000
vn 0.216841 0.976207 -0.000000
vn 0.271209 0.962520 -0.000000
vn 0.286585 0.958055 -0.000000
vn 0.345880 0.938279 -0.000000
vn 0.348353 0.937363 -0.000000
vn 0.402901 0.915243 -0.000000
vn 0.345880 0.938279 -0.000000
vn 0.410308 0.911947 -0.000000
vn -0.023508 0.999724 0.000000
vn 0.086739 0.996231 -0.000000
vn 0.185071 0.982725 -0.000000
vn 0.271209 0.962520 -0.000000
vn 0.451051 0.892498 -0.000000
vn 0.465866 0.884855 -0.000000
vn 0.493607 0.869685 -0.000000
vn 0.513884 0.857860 -0.000000
vn 0.531295 0.847187 -0.000000
vn 0.554497 0.832186 -0.000000
vn 0.563333 0.826230 -0.000000
vn 0.588914 0.808196 -0.000000
vn 0.591591 0.806238 -0.000000
vn 0.618653 0.785664 -0.000000
vn 0.616589 0.787285 -0.000000
vn 0.644470 0.764629 -0.000000
vn 0.649088 0.760713 -0.000000
vn 0.666993 0.745064 -0.000000
vn 0.676451 0.736487 -0.000000
vn 0.686740 0.726903 -0.000000
vn 0.699676 0.714460 -0.000000
vn 0.704139 0.710062 -0.000000
vn 0.719543 0.694448 -0.000000
vn 0.719543 0.694448 -0.000000
vn 0.704139 0.710062 -0.000000
vn 0.686740 0.726903 -0.000000
vn 0.666993 0.745064 -0.000000
vn 0.644470 0.764629 -0.000000
vn 0.618653 0.785664 -0.000000
vn 0.588914 0.808196 -0.000000
vn 0.554497 0.832186 -0.000000
vn 0.513884 0.857860 -0.000000
vn 0.465866 0.884855 -0.000000
vn 0.410308 0.911947 -0.000000
vn -0.262284 0.964991 0.000000
vn -0.378411 0.925638 0.000000
vn -0.487918 0.872890 0.000000
vn -0.588397 0.808572 0.000000
vn -0.813266 0.581892 0.000000
vn -0.862306 0.506388 0.000000
vn -0.901099 0.433614 0.000000
vn -0.931380 0.364048 0.000000
vn -0.972168 0.234285 0.000000
vn 0.993362 -0.115029 0.000000
vn 1.000000 0.000000 0.000000
vn 0.996174 -0.087398 0.000000
vn 1.000000 0.000000 0.000000
vn 0.993362 -0.115029 0.000000
vn 0.984201 -0.177054 0.000000
vn 0.972175 -0.234254 0.000000
vn 0.962686 -0.270621 0.000000
vn 0.931178 -0.364564 0.000000
vn 0.928461 -0.371431 0.000000
vn 0.901003 -0.433812 0.000000
vn 0.877965 -0.478725 0.000000
vn 0.862488 -0.506077 0.000000
vn 0.805408 -0.592721 0.000000
vn 0.813804 -0.581140 0.000000
vn 0.752935 -0.658095 0.000000
vn 0.703827 -0.710371 0.000000
vn 0.677960 -0.735099 0.000000
vn 0.570290 -0.821444 0.000000
vn 0.589633 -0.807671 0.000000
vn 0.489184 -0.872181 0.000000
vn 0.409433 -0.912340 0.000000
vn 0.378403 -0.925641 0.000000
vn 0.230762 -0.973010 0.000000
vn 0.260963 -0.965349 0.000000
vn 0.141417 -0.989950 0.000000
vn 0.049788 -0.998760 0.000000
vn 0.024212 -0.999707 0.000000
vn -0.036100 -0.999348 -0.000000
vn -0.084981 -0.996383 -0.000000
vn -0.115996 -0.993250 -0.000000
vn -0.183375 -0.983043 -0.000000
vn -0.189467 -0.981887 -0.000000
vn -0.256465 -0.966553 -0.000000
vn -0.183375 -0.983043 -0.000000
vn -0.270656 -0.962676 -0.000000
vn -0.317225 -0.948350 -0.000000
vn -0.347171 -0.937802 -0.000000
vn -0.371458 -0.928450 -0.000000
vn -0.412229 -0.911080 -0.000000
vn -0.419117 -0.907932 -0.000000
vn -0.461092 -0.887353 -0.000000
vn -0.412229 -0.911080 -0.000000
vn -0.467279 -0.884110 -0.000000
vn -0.270656 -0.962676 -0.000000
vn -0.347171 -0.937802 -0.000000
vn -0.498184 -0.867072 -0.000000
vn -0.514127 -0.857714 -0.000000
vn -0.531095 -0.847312 -0.000000
vn -0.554285 -0.832327 -0.000000
vn -0.567131 -0.823628 -0.000000
vn -0.588986 -0.808143 -0.000000
vn -0.598588 -0.801057 -0.000000
vn -0.618775 -0.785568 -0.000000
vn -0.625610 -0.780136 -0.000000
vn -0.644471 -0.764628 -0.000000
vn -0.649253 -0.760573 -0.000000
vn -0.666914 -0.745135 -0.000000
vn -0.670068 -0.742300 -0.000000
vn -0.686632 -0.727005 -0.000000
vn -0.688491 -0.725244 -0.000000
vn -0.704058 -0.710143 -0.000000
vn -0.704884 -0.709322 -0.000000
vn -0.719543 -0.694448 -0.000000
vn -0.719543 -0.694448 -0.000000
vn -0.704058 -0.710143 -0.000000
vn -0.686632 -0.727005 -0.000000
vn -0.666914 -0.745135 -0.000000
vn -0.644471 -0.764628 -0.000000
vn -0.618775 -0.785568 -0.000000
vn -0.588986 -0.808143 -0.000000
vn -0.554285 -0.832327 -0.000000
vn -0.514127 -0.857714 -0.000000
vn -0.467279 -0.884110 -0.000000
vn -0.084981 -0.996383 -0.000000
vn 0.024212 -0.999707 0.000000
vn 0.141417 -0.989950 0.000000
vn 0.260963 -0.965349 0.000000
vn 0.378403 -0.925641 0.000000
vn 0.489184 -0.872181 0.000000
vn 0.589633 -0.807671 0.000000
vn 0.677960 -0.735099 0.000000
vn 0.752935 -0.658095 0.000000
vn 0.813804 -0.581140 0.000000
vn 0.862488 -0.506077 0.000000
vn 0.901003 -0.433812 0.000000
vn 0.931178 -0.364564 0.000000
vn 0.972175 -0.234254 0.000000
vn -1.000000 0.000000 0.000000
vn -1.000000 0.000000 0.000000
vn -1.000000 0.000000 0.000000
vn -1.000000 0.000000 0.000000
vn 0.000000 0.000000 -1.000000
vn 0.000000 0.000000 -1.000000
vn 0.000000 0.000000 -1.000000
vn 0.000000 0.000000 -1.000000
vn 0.000000 0.000000 -1.000000
vn 0.000000 0.000000 -1.000000
vn 0.000000 0.000000 -1.000000
vn 0.000000 0.000000 -1.000000
vn 0.000000 0.000000 -1.000000
vn 0.000000 0.000000 -1.000000
vn 0.000000 0.000000 -1.000000
vn 0.000000 0.000000 -1.000000
vn 0.000000 0.000000 -1.000000
vn 0.000000 0.000000 -1.000000
vn 0.000000 0.000000 -1.000000
vn 0.000000 0.000000 -1.000000
vn 0.000000 0.000000 -1.000000
vn 0.000000 0.000000 -1.000000
vn 0.000000 0.000000 -1.000000
vn 0.000000 0.000000 -1.000000
vn 0.000000 0.000000 -1.000000
vn 0.000000 0.000000 -1.000000
vn 0.000000 0.000000 -1.000000
vn 0.000000 0.000000 -1.000000
vn 0.000000 0.000000 -1.000000
vn 0.000000 0.000000 -1.000000
vn 0.000000 0.000000 -1.000000
vn 0.000000 0.000000 -1.000000
vn 0.000000 0.000000 -1.000000
vn 0.000000 0.000000 -1.000000
vn 0.000000 0.000000 -1.000000
vn 0.000000 0.000000 -1.000000
vn 0.000000 0.000000 -1.000000
vn 0.000000 0.000000 -1.000000
vn 0.000000 0.000000 -1.000000
vn 0.000000 0.000000 -1.000000
vn 0.000000 0.000000 -1.000000
vn 0.000000 0.000000 -1.000000
vn 0.000000 0.000000 -1.000000
vn 0.000000 0.000000 -1.000000
vn 0.000000 0.000000 -1.000000
vn 0.000000 0.000000 -1.000000
vn 0.000000 0.000000 -1.000000
vn 0.000000 0.000000 -1.000000
vn 0.000000 0.000000 -1.000000
vn 0.000000 0.000000 -1.000000
vn 0.000000 0.000000 -1.000000
vn 0.000000 0.000000 -1.000000
vn 0.000000 0.000000 -1.000000
vn 0.000000 0.000000 -1.000000
vn 0.000000 0.000000 -1.000000
vn 0.000000 0.000000 -1.000000
vn 0.000000 0.000000 -1.000000
vn 0.000000 0.000000 -1.000000
vn 0.000000 0.000000 -1.000000
vn 0.000000 0.000000 -1.000000
vn 0.000000 0.000000 -1.000000
vn 0.000000 0.000000 -1.000000
vn 0.000000 0.000000 -1.000000
vn 0.000000 0.000000 -1.000000
vn 0.000000 0.000000 -1.000000
vn 0.000000 0.000000 -1.000000
vn 1.000000 0.000000 0.000000
vn 1.000000 0.000000 0.000000
vn 1.000000 0.000000 0.000000
vn 1.000000 0.000000 0.000000
vn 0.000000 -0.000000 1.000000
vn 0.000000 -0.000000 1.000000
vn 0.000000 -0.000000 1.000000
vn 0.000000 -0.000000 1.000000
vn 0.000000 -0.000000 1.000000
vn 0.000000 -0.000000 1.000000
vn 0.000000 -0.000000 1.000000
vn 0.000000 -0.000000 1.000000
vn 0.000000 -0.000000 1.000000
vn 0.000000 -0.000000 1.000000
vn 0.000000 -0.000000 1.000000
vn 0.000000 -0.000000 1.000000
vn 0.000000 -0.000000 1.000000
vn 0.000000 -0.000000 1.000000
vn 0.000000 -0.000000 1.000000
vn 0.000000 -0.000000 1.000000
vn 0.000000 -0.000000 1.000000
vn 0.000000 -0.000000 1.000000
vn 0.000000 -0.000000 1.000000
vn 0.000000 -0.000000 1.000000
vn 0.000000 -0.000000 1.000000
vn 0.000000 -0.000000 1.000000
vn 0.000000 -0.000000 1.000000
vn 0.000000 -0.000000 1.000000
vn 0.000000 -0.000000 1.000000
vn 0.000000 -0.000000 1.000000
vn 0.000000 -0.000000 1.000000
vn 0.000000 -0.000000 1.000000
vn 0.000000 -0.000000 1.000000
vn 0.000000 -0.000000 1.000000
vn 0.000000 -0.000000 1.000000
vn 0.000000 -0.000000 1.000000
vn 0.000000 -0.000000 1.000000
vn 0.000000 -0.000000 1.000000
vn 0.000000 -0.000000 1.000000
vn 0.000000 -0.000000 1.000000
vn 0.000000 -0.000000 1.000000
vn 0.000000 -0.000000 1.000000
vn 0.000000 -0.000000 1.000000
vn 0.000000 -0.000000 1.000000
vn 0.000000 -0.000000 1.000000
vn 0.000000 -0.000000 1.000000
vn 0.000000 -0.000000 1.000000
vn 0.000000 -0.000000 1.000000
vn 0.000000 -0.000000 1.000000
vn 0.000000 -0.000000 1.000000
vn 0.000000 -0.000000 1.000000
vn 0.000000 -0.000000 1.000000
vn 0.000000 -0.000000 1.000000
vn 0.000000 -0.000000 1.000000
vn 0.000000 -0.000000 1.000000
vn 0.000000 -0.000000 1.000000
vn 0.000000 -0.000000 1.000000
vn 0.000000 -0.000000 1.000000
vn 0.000000 -0.000000 1.000000
vn 0.000000 -0.000000 1.000000
vn 0.000000 -0.000000 1.000000
vn 0.000000 -0.000000 1.000000
vn 0.000000 -0.000000 1.000000
vn 0.000000 -0.000000 1.000000
vn 0.000000 -0.000000 1.000000
vn 0.000000 -0.000000 1.000000
vn 0.694448 -0.719543 0.000000
vn 0.694448 -0.719543 0.000000
vn 0.694448 -0.719543 0.000000
vn 0.694448 -0.719543 0.000000
vn -0.000000 -1.000000 -0.000000
vn -0.000000 -1.000000 -0.000000
vn -0.000000 -1.000000 -0.000000
vn -0.000000 -1.000000 -0.000000
usemtl Steel_-_Satin
f 60/1/1 1/2/2 66/3/3
f 66/3/3 1/2/2 2/4/4
f 66/3/3 2/4/4 3/5/5
f 66/3/3 3/5/5 65/6/6
f 65/6/6 3/5/5 4/7/7
f 65/6/6 4/7/7 67/8/8
f 67/8/8 4/7/7 5/9/9
f 67/8/8 5/9/9 68/10/10
f 68/10/10 5/9/9 6/11/11
f 68/10/10 6/11/11 7/12/12
f 68/10/10 7/12/12 69/13/13
f 69/13/13 7/12/12 8/14/14
f 69/13/13 8/14/14 61/15/15
f 61/15/15 8/14/14 9/16/16
f 61/15/15 9/16/16 10/17/17
f 11/18/18 70/19/19 10/17/17
f 10/17/17 70/19/19 71/20/20
f 10/17/17 71/20/20 61/15/15
f 61/15/15 71/20/20 53/21/21
f 61/15/15 53/21/21 54/22/22
f 70/19/19 11/18/18 72/23/23
f 72/23/23 11/18/18 12/24/24
f 72/23/23 12/24/24 73/25/25
f 73/25/25 12/24/24 13/26/26
f 73/25/25 13/26/26 74/27/27
f 74/27/27 13/26/26 14/28/28
f 74/27/27 14/28/28 62/29/29
f 62/29/29 14/28/28 15/30/30
f 62/29/29 15/30/30 76/31/31
f 76/31/31 15/30/30 75/32/32
f 76/31/31 75/32/32 48/33/33
f 48/33/33 75/32/32 47/34/34
f 47/34/34 75/32/32 77/35/35
f 47/34/34 77/35/35 46/36/36
f 46/36/36 77/35/35 78/37/37
f 46/36/36 78/37/37 45/38/38
f 45/38/38 78/37/37 79/39/39
f 45/38/38 79/39/39 44/40/40
f 44/40/40 79/39/39 80/41/41
f 44/40/40 80/41/41 43/42/42
f 43/42/42 80/41/41 81/43/43
f 43/42/42 81/43/43 63/44/44
f 63/44/44 81/43/43 20/45/45
f 63/44/44 20/45/45 21/46/46
f 15/30/30 16/47/47 75/32/32
f 75/32/32 16/47/47 77/35/35
f 16/47/47 17/48/48 77/35/35
f 77/35/35 17/48/48 78/37/37
f 17/48/48 18/49/49 78/37/37
f 78/37/37 18/49/49 79/39/39
f 18/49/49 19/50/50 79/39/39
f 79/39/39 19/50/50 80/41/41
f 19/50/50 20/45/45 80/41/41
f 80/41/41 20/45/45 81/43/43
f 63/44/44 21/46/46 82/51/51
f 82/51/51 21/46/46 22/52/52
f 82/51/51 22/52/52 83/53/53
f 83/53/53 22/52/52 23/54/54
f 83/53/53 23/54/54 84/55/55
f 84/55/55 23/54/54 24/56/56
f 84/55/55 24/56/56 85/57/57
f 85/57/57 24/56/56 25/58/58
f 85/57/57 25/58/58 64/59/59
f 64/59/59 25/58/58 26/60/60
f 64/59/59 26/60/60 87/61/61
f 87/61/61 26/60/60 27/62/62
f 87/61/61 27/62/62 86/63/63
f 86/63/63 27/62/62 28/64/64
f 86/63/63 28/64/64 88/65/65
f 88/65/65 28/64/64 29/66/66
f 88/65/65 29/66/66 89/67/67
f 89/67/67 29/66/66 30/68/68
f 89/67/67 30/68/68 32/69/69
f 32/69/69 30/68/68 31/70/70
f 32/69/69 33/71/71 89/67/67
f 89/67/67 33/71/71 34/72/72
f 89/67/67 34/72/72 88/65/65
f 88/65/65 34/72/72 35/73/73
f 88/65/65 35/73/73 86/63/63
f 86/63/63 35/73/73 36/74/74
f 86/63/63 36/74/74 87/61/61
f 87/61/61 36/74/74 37/75/75
f 87/61/61 37/75/75 64/59/59
f 64/59/59 37/75/75 38/76/76
f 64/59/59 38/76/76 85/57/57
f 85/57/57 38/76/76 39/77/77
f 85/57/57 39/77/77 84/55/55
f 84/55/55 39/77/77 40/78/78
f 84/55/55 40/78/78 83/53/53
f 83/53/53 40/78/78 41/79/79
f 83/53/53 41/79/79 82/51/51
f 82/51/51 41/79/79 42/80/80
f 82/51/51 42/80/80 63/44/44
f 63/44/44 42/80/80 43/42/42
f 76/31/31 48/33/33 62/29/29
f 62/29/29 48/33/33 49/81/81
f 62/29/29 49/81/81 74/27/27
f 74/27/27 49/81/81 50/82/82
f 74/27/27 50/82/82 73/25/25
f 73/25/25 50/82/82 51/83/83
f 73/25/25 51/83/83 72/23/23
f 72/23/23 51/83/83 52/84/84
f 72/23/23 52/84/84 70/19/19
f 70/19/19 52/84/84 53/21/21
f 70/19/19 53/21/21 71/20/20
f 54/22/22 55/85/85 61/15/15
f 61/15/15 55/85/85 69/13/13
f 55/85/85 56/86/86 69/13/13
f 69/13/13 56/86/86 68/10/10
f 56/86/86 57/87/87 68/10/10
f 68/10/10 57/87/87 58/88/88
f 68/10/10 58/88/88 67/8/8
f 67/8/8 58/88/88 59/89/89
f 67/8/8 59/89/89 65/6/6
f 65/6/6 59/89/89 60/1/1
f 65/6/6 60/1/1 66/3/3
f 149/90/90 90/91/91 153/92/92
f 153/92/92 90/91/91 91/93/93
f 153/92/92 91/93/93 92/94/94
f 153/92/92 92/94/94 152/95/95
f 152/95/95 92/94/94 93/96/96
f 152/95/95 93/96/96 154/97/97
f 154/97/97 93/96/96 94/98/98
f 154/97/97 94/98/98 155/99/99
f 155/99/99 94/98/98 95/100/100
f 155/99/99 95/100/100 156/101/101
f 156/101/101 95/100/100 96/102/102
f 156/101/101 96/102/102 157/103/103
f 157/103/103 96/102/102 97/104/104
f 157/103/103 97/104/104 98/105/105
f 157/103/103 98/105/105 158/106/106
f 158/106/106 98/105/105 99/107/107
f 158/106/106 99/107/107 159/108/108
f 159/108/108 99/107/107 100/109/109
f 159/108/108 100/109/109 101/110/110
f 159/108/108 101/110/110 160/111/111
f 160/111/111 101/110/110 102/112/112
f 160/111/111 102/112/112 161/113/113
f 161/113/113 102/112/112 103/114/114
f 161/113/113 103/114/114 104/115/115
f 161/113/113 104/115/115 162/116/116
f 162/116/116 104/115/115 105/117/117
f 162/116/116 105/117/117 163/118/118
f 163/118/118 105/117/117 106/119/119
f 163/118/118 106/119/119 164/120/120
f 164/120/120 106/119/119 107/121/121
f 164/120/120 107/121/121 165/122/122
f 165/122/122 107/121/121 150/123/123
f 165/122/122 150/123/123 134/124/124
f 134/124/124 150/123/123 133/125/125
f 133/125/125 150/123/123 166/126/126
f 133/125/125 166/126/126 132/127/127
f 132/127/127 166/126/126 167/128/128
f 132/127/127 167/128/128 131/129/129
f 131/129/129 167/128/128 168/130/130
f 131/129/129 168/130/130 151/131/131
f 151/131/131 168/130/130 110/132/132
f 151/131/131 110/132/132 111/133/133
f 107/121/121 108/134/134 150/123/123
f 150/123/123 108/134/134 166/126/126
f 108/134/134 109/135/135 166/126/126
f 166/126/126 109/135/135 167/128/128
f 109/135/135 110/132/132 167/128/128
f 167/128/128 110/132/132 168/130/130
f 151/131/131 111/133/133 169/136/136
f 169/136/136 111/133/133 112/137/137
f 169/136/136 112/137/137 170/138/138
f 170/138/138 112/137/137 113/139/139
f 170/138/138 113/139/139 171/140/140
f 171/140/140 113/139/139 114/141/141
f 171/140/140 114/141/141 172/142/142
f 172/142/142 114/141/141 115/143/143
f 172/142/142 115/143/143 173/144/144
f 173/144/144 115/143/143 116/145/145
f 173/144/144 116/145/145 174/146/146
f 174/146/146 116/145/145 117/147/147
f 174/146/146 117/147/147 175/148/148
f 175/148/148 117/147/147 118/149/149
f 175/148/148 118/149/149 176/150/150
f 176/150/150 118/149/149 119/151/151
f 176/150/150 119/151/151 177/152/152
f 177/152/152 119/151/151 120/153/153
f 177/152/152 120/153/153 121/154/154
f 121/154/154 122/155/155 177/152/152
f 177/152/152 122/155/155 176/150/150
f 122/155/155 123/156/156 176/150/150
f 176/150/150 123/156/156 175/148/148
f 123/156/156 124/157/157 175/148/148
f 175/148/148 124/157/157 174/146/146
f 124/157/157 125/158/158 174/146/146
f 174/146/146 125/158/158 173/144/144
f 125/158/158 126/159/159 173/144/144
f 173/144/144 126/159/159 172/142/142
f 126/159/159 127/160/160 172/142/142
f 172/142/142 127/160/160 171/140/140
f 127/160/160 128/161/161 171/140/140
f 171/140/140 128/161/161 170/138/138
f 128/161/161 129/162/162 170/138/138
f 170/138/138 129/162/162 169/136/136
f 129/162/162 130/163/163 169/136/136
f 169/136/136 130/163/163 151/131/131
f 130/163/163 131/129/129 151/131/131
f 165/122/122 134/124/124 164/120/120
f 164/120/120 134/124/124 135/164/164
f 164/120/120 135/164/164 163/118/118
f 163/118/118 135/164/164 136/165/165
f 163/118/118 136/165/165 162/116/116
f 162/116/116 136/165/165 137/166/166
f 162/116/116 137/166/166 161/113/113
f 161/113/113 137/166/166 138/167/167
f 161/113/113 138/167/167 139/168/168
f 161/113/113 139/168/168 160/111/111
f 160/111/111 139/168/168 140/169/169
f 160/111/111 140/169/169 159/108/108
f 159/108/108 140/169/169 141/170/170
f 159/108/108 141/170/170 142/171/171
f 159/108/108 142/171/171 158/106/106
f 158/106/106 142/171/171 143/172/172
f 158/106/106 143/172/172 157/103/103
f 157/103/103 143/172/172 144/173/173
f 157/103/103 144/173/173 145/174/174
f 157/103/103 145/174/174 156/101/101
f 156/101/101 145/174/174 146/175/175
f 156/101/101 146/175/175 155/99/99
f 155/99/99 146/175/175 147/176/176
f 155/99/99 147/176/176 154/97/97
f 154/97/97 147/176/176 148/177/177
f 154/97/97 148/177/177 152/95/95
f 152/95/95 148/177/177 149/90/90
f 152/95/95 149/90/90 153/92/92
f 178/178/178 179/179/179 1/180/180
f 1/180/180 179/179/179 2/181/181
f 180/182/182 178/183/183 91/184/184
f 91/184/184 178/183/183 1/185/185
f 91/184/184 1/185/185 92/186/186
f 92/186/186 1/185/185 60/187/187
f 92/186/186 60/187/187 93/188/188
f 93/188/188 60/187/187 59/189/189
f 93/188/188 59/189/189 94/190/190
f 94/190/190 59/189/189 58/191/191
f 94/190/190 58/191/191 95/192/192
f 95/192/192 58/191/191 57/193/193
f 95/192/192 57/193/193 96/194/194
f 96/194/194 57/193/193 56/195/195
f 96/194/194 56/195/195 97/196/196
f 97/196/196 56/195/195 55/197/197
f 97/196/196 55/197/197 98/198/198
f 98/198/198 55/197/197 54/199/199
f 98/198/198 54/199/199 99/200/200
f 99/200/200 54/199/199 53/201/201
f 99/200/200 53/201/201 100/202/202
f 100/202/202 53/201/201 52/203/203
f 100/202/202 52/203/203 101/204/204
f 101/204/204 52/203/203 51/205/205
f 101/204/204 51/205/205 102/206/206
f 102/206/206 51/205/205 50/207/207
f 102/206/206 50/207/207 103/208/208
f 103/208/208 50/207/207 49/209/209
f 103/208/208 49/209/209 104/210/210
f 104/210/210 49/209/209 48/211/211
f 104/210/210 48/211/211 105/212/212
f 105/212/212 48/211/211 47/213/213
f 105/212/212 47/213/213 46/214/214
f 105/212/212 46/214/214 106/215/215
f 106/215/215 46/214/214 45/216/216
f 106/215/215 45/216/216 107/217/217
f 107/217/217 45/216/216 44/218/218
f 107/217/217 44/218/218 108/219/219
f 108/219/219 44/218/218 43/220/220
f 108/219/219 43/220/220 109/221/221
f 109/221/221 43/220/220 42/222/222
f 109/221/221 42/222/222 110/223/223
f 110/223/223 42/222/222 41/224/224
f 110/223/223 41/224/224 111/225/225
f 111/225/225 41/224/224 40/226/226
f 111/225/225 40/226/226 112/227/227
f 112/227/227 40/226/226 39/228/228
f 112/227/227 39/228/228 113/229/229
f 113/229/229 39/228/228 38/230/230
f 113/229/229 38/230/230 114/231/231
f 114/231/231 38/230/230 37/232/232
f 114/231/231 37/232/232 115/233/233
f 115/233/233 37/232/232 36/234/234
f 115/233/233 36/234/234 116/235/235
f 116/235/235 36/234/234 35/236/236
f 116/235/235 35/236/236 117/237/237
f 117/237/237 35/236/236 34/238/238
f 117/237/237 34/238/238 118/239/239
f 118/239/239 34/238/238 33/240/240
f 118/239/239 33/240/240 119/241/241
f 119/241/241 33/240/240 32/242/242
f 119/241/241 32/242/242 120/243/243
f 181/244/244 180/245/245 90/246/246
f 90/246/246 180/245/245 91/247/247
f 179/248/248 181/249/249 2/250/250
f 2/250/250 181/249/249 90/251/251
f 2/250/250 90/251/251 149/252/252
f 2/250/250 149/252/252 3/253/253
f 3/253/253 149/252/252 148/254/254
f 3/253/253 148/254/254 4/255/255
f 4/255/255 148/254/254 147/256/256
f 4/255/255 147/256/256 5/257/257
f 5/257/257 147/256/256 146/258/258
f 5/257/257 146/258/258 6/259/259
f 6/259/259 146/258/258 145/260/260
f 6/259/259 145/260/260 7/261/261
f 7/261/261 145/260/260 144/262/262
f 7/261/261 144/262/262 8/263/263
f 8/263/263 144/262/262 143/264/264
f 8/263/263 143/264/264 9/265/265
f 9/265/265 143/264/264 142/266/266
f 9/265/265 142/266/266 10/267/267
f 10/267/267 142/266/266 141/268/268
f 10/267/267 141/268/268 11/269/269
f 11/269/269 141/268/268 140/270/270
f 11/269/269 140/270/270 12/271/271
f 12/271/271 140/270/270 139/272/272
f 12/271/271 139/272/272 13/273/273
f 13/273/273 139/272/272 138/274/274
f 13/273/273 138/274/274 14/275/275
f 14/275/275 138/274/274 137/276/276
f 14/275/275 137/276/276 15/277/277
f 15/277/277 137/276/276 136/278/278
f 15/277/277 136/278/278 16/279/279
f 16/279/279 136/278/278 17/280/280
f 17/280/280 136/278/278 135/281/281
f 17/280/280 135/281/281 18/282/282
f 18/282/282 135/281/281 134/283/283
f 18/282/282 134/283/283 19/284/284
f 19/284/284 134/283/283 133/285/285
f 19/284/284 133/285/285 20/286/286
f 20/286/286 133/285/285 132/287/287
f 20/286/286 132/287/287 21/288/288
f 21/288/288 132/287/287 131/289/289
f 21/288/288 131/289/289 22/290/290
f 22/290/290 131/289/289 130/291/291
f 22/290/290 130/291/291 23/292/292
f 23/292/292 130/291/291 129/293/293
f 23/292/292 129/293/293 24/294/294
f 24/294/294 129/293/293 128/295/295
f 24/294/294 128/295/295 25/296/296
f 25/296/296 128/295/295 127/297/297
f 25/296/296 127/297/297 26/298/298
f 26/298/298 127/297/297 126/299/299
f 26/298/298 126/299/299 27/300/300
f 27/300/300 126/299/299 125/301/301
f 27/300/300 125/301/301 28/302/302
f 28/302/302 125/301/301 124/303/303
f 28/302/302 124/303/303 29/304/304
f 29/304/304 124/303/303 123/305/305
f 29/304/304 123/305/305 30/306/306
f 30/306/306 123/305/305 122/307/307
f 30/306/306 122/307/307 31/308/308
f 31/308/308 122/307/307 121/309/309
f 31/310/310 121/311/311 32/312/312
f 32/312/312 121/311/311 120/313/313
f 181/314/314 179/315/315 180/316/316
f 180/316/316 179/315/315 178/317/317
# 181 vertices
# 317 texture params
# 317 normals
# 358 facets

# 1 groups
