# WaveFront *.obj file (generated by Autodesk ATF)

mtllib 45_Turn.mtl

g Body1

v -0.020000 0.500000 -0.010000
v -0.020000 0.500000 0.010000
v -0.010345 0.668402 0.010000
v 0.019158 0.834964 0.010000
v 0.069616 0.996367 0.010000
v 0.103098 1.073382 0.010000
v 0.142209 1.146872 0.010000
v 0.187045 1.216038 0.010000
v 0.237699 1.280081 0.010000
v 0.294268 1.338201 0.010000
v 0.356797 1.389554 0.010000
v 0.425073 1.433311 0.010000
v 0.498844 1.468861 0.010000
v 0.577858 1.495604 0.010000
v 0.661865 1.512938 0.010000
v 0.750598 1.520258 0.010000
v 0.843687 1.517156 0.010000
v 0.940923 1.503631 0.010000
v 1.042133 1.479728 0.010000
v 1.147146 1.445490 0.010000
v 1.255790 1.400962 0.010000
v 1.367894 1.346187 0.010000
v 1.483286 1.281208 0.010000
v 1.601806 1.206131 0.010000
v 1.723381 1.121270 0.010000
v 1.847966 1.026769 0.010000
v 1.975515 0.922749 0.010000
v 2.105978 0.809330 0.010000
v 2.239311 0.686633 0.010000
v 2.375464 0.554779 0.010000
v 2.514391 0.413889 0.010000
v 2.514391 0.413889 -0.010000
v 2.375464 0.554779 -0.010000
v 2.239311 0.686633 -0.010000
v 2.105978 0.809330 -0.010000
v 1.975515 0.922749 -0.010000
v 1.847966 1.026769 -0.010000
v 1.723381 1.121270 -0.010000
v 1.601806 1.206131 -0.010000
v 1.483286 1.281208 -0.010000
v 1.367894 1.346187 -0.010000
v 1.255790 1.400962 -0.010000
v 1.147146 1.445490 -0.010000
v 1.042133 1.479728 -0.010000
v 0.940923 1.503631 -0.010000
v 0.843687 1.517156 -0.010000
v 0.750598 1.520258 -0.010000
v 0.661865 1.512938 -0.010000
v 0.577858 1.495604 -0.010000
v 0.498844 1.468861 -0.010000
v 0.425073 1.433311 -0.010000
v 0.356797 1.389554 -0.010000
v 0.294268 1.338201 -0.010000
v 0.237699 1.280081 -0.010000
v 0.187045 1.216038 -0.010000
v 0.142209 1.146872 -0.010000
v 0.103098 1.073382 -0.010000
v 0.069616 0.996367 -0.010000
v 0.019158 0.834964 -0.010000
v -0.010345 0.668402 -0.010000
v 0.242935 1.286001 0.000000
v 0.589797 1.498730 0.000000
v 1.242259 1.406983 0.000000
v 1.733774 1.113669 0.000000
v 0.007603 0.782508 0.000000
v -0.013179 0.641750 0.000000
v 0.042900 0.920553 0.000000
v 0.093557 1.053012 0.000000
v 0.160085 1.176098 0.000000
v 0.342540 1.378887 0.000000
v 0.290623 1.334818 0.000000
v 0.398568 1.417680 0.000000
v 0.458553 1.450823 0.000000
v 0.522346 1.477960 0.000000
v 0.735072 1.519741 0.000000
v 0.660758 1.512778 0.000000
v 0.812505 1.519334 0.000000
v 0.892914 1.511538 0.000000
v 0.976195 1.496378 0.000000
v 1.062248 1.473882 0.000000
v 1.150970 1.444075 0.000000
v 1.336012 1.362632 0.000000
v 1.432126 1.311049 0.000000
v 1.530501 1.252259 0.000000
v 1.631059 1.186409 0.000000
v 2.000642 0.901439 0.000000
v 1.838617 1.034111 0.000000
v 2.167343 0.753681 0.000000
v 2.338625 0.591082 0.000000
v 0.020000 0.500000 0.010000
v 0.020000 0.500000 -0.010000
v 0.029397 0.663806 -0.010000
v 0.058046 0.825599 -0.010000
v 0.106879 0.981734 -0.010000
v 0.139137 1.055895 -0.010000
v 0.176676 1.126438 -0.010000
v 0.219534 1.192606 -0.010000
v 0.267750 1.253637 -0.010000
v 0.321365 1.308774 -0.010000
v 0.380364 1.357266 -0.010000
v 0.444576 1.398496 -0.010000
v 0.513901 1.431937 -0.010000
v 0.588242 1.457065 -0.010000
v 0.667506 1.473357 -0.010000
v 0.751597 1.480289 -0.010000
v 0.840408 1.477467 -0.010000
v 0.933775 1.464684 -0.010000
v 1.031530 1.441744 -0.010000
v 1.133494 1.408460 -0.010000
v 1.239453 1.364802 -0.010000
v 1.349233 1.310889 -0.010000
v 1.462671 1.246845 -0.010000
v 1.579604 1.172795 -0.010000
v 1.699869 1.088864 -0.010000
v 1.823307 0.995201 -0.010000
v 1.949825 0.892011 -0.010000
v 2.079367 0.779404 -0.010000
v 2.211881 0.657483 -0.010000
v 2.347313 0.526351 -0.010000
v 2.485609 0.386111 -0.010000
v 2.485609 0.386111 0.010000
v 2.347313 0.526351 0.010000
v 2.211881 0.657483 0.010000
v 2.079367 0.779404 0.010000
v 1.949825 0.892011 0.010000
v 1.823307 0.995201 0.010000
v 1.699869 1.088864 0.010000
v 1.579604 1.172795 0.010000
v 1.462671 1.246845 0.010000
v 1.349233 1.310889 0.010000
v 1.239453 1.364802 0.010000
v 1.133494 1.408460 0.010000
v 1.031530 1.441744 0.010000
v 0.933775 1.464684 0.010000
v 0.840408 1.477467 0.010000
v 0.751597 1.480289 0.010000
v 0.667506 1.473357 0.010000
v 0.588242 1.457065 0.010000
v 0.513901 1.431937 0.010000
v 0.444576 1.398496 0.010000
v 0.380364 1.357266 0.010000
v 0.321365 1.308774 0.010000
v 0.267750 1.253637 0.010000
v 0.219534 1.192606 0.010000
v 0.176676 1.126438 0.010000
v 0.139137 1.055895 0.010000
v 0.106879 0.981734 0.010000
v 0.058046 0.825599 0.010000
v 0.029397 0.663806 0.010000
v 0.732516 1.479583 0.000000
v 1.014464 1.446407 0.000000
v 1.335761 1.317949 0.000000
v 0.042002 0.749231 0.000000
v 0.025450 0.624995 0.000000
v 0.069976 0.871367 0.000000
v 0.109901 0.989373 0.000000
v 0.162029 1.100552 0.000000
v 0.226499 1.202209 0.000000
v 0.303450 1.291651 0.000000
v 0.392929 1.366205 0.000000
v 0.494505 1.423625 0.000000
v 0.607813 1.462038 0.000000
v 0.668761 1.473535 0.000000
v 0.799035 1.479989 0.000000
v 0.868249 1.474652 0.000000
v 0.940084 1.463487 0.000000
v 1.091314 1.423326 0.000000
v 1.170537 1.394193 0.000000
v 1.252043 1.359049 0.000000
v 1.421618 1.270948 0.000000
v 1.509542 1.218101 0.000000
v 1.621783 1.144223 0.000000
v 1.736975 1.061476 0.000000
v 1.854992 0.970018 0.000000
v 1.975773 0.870001 0.000000
v 2.099271 0.761513 0.000000
v 2.225440 0.644644 0.000000
v 2.354235 0.519480 0.000000
v -0.020000 0.000000 -0.010000
v -0.020000 0.000000 0.010000
v 0.020000 0.000000 -0.010000
v 0.020000 0.000000 0.010000
vt -0.020000 0.174659 0.000000
vt -0.020000 0.000000 0.000000
vt -0.010000 0.146964 0.000000
vt 0.000000 0.000000 0.000000
vt 0.000000 0.174659 0.000000
vt -0.010000 0.293928 0.000000
vt 0.000000 0.349319 0.000000
vt -0.010000 0.440891 0.000000
vt 0.000000 0.523978 0.000000
vt -0.010000 0.587855 0.000000
vt 0.000000 0.611308 0.000000
vt 0.000000 0.698638 0.000000
vt -0.010000 0.734819 0.000000
vt 0.000000 0.785967 0.000000
vt -0.010000 0.881783 0.000000
vt 0.000000 0.873297 0.000000
vt 0.000000 0.960627 0.000000
vt 0.000000 1.047956 0.000000
vt -0.010000 1.028746 0.000000
vt -0.010000 0.955265 0.000000
vt -0.020000 0.960627 0.000000
vt -0.020000 0.873297 0.000000
vt -0.010000 1.102228 0.000000
vt 0.000000 1.135286 0.000000
vt -0.010000 1.175710 0.000000
vt 0.000000 1.222616 0.000000
vt -0.010000 1.249192 0.000000
vt 0.000000 1.309946 0.000000
vt -0.010000 1.322674 0.000000
vt 0.000000 1.397275 0.000000
vt -0.010000 1.396156 0.000000
vt -0.010000 1.469638 0.000000
vt -0.020000 1.397275 0.000000
vt -0.020000 1.484605 0.000000
vt -0.010000 1.543120 0.000000
vt -0.020000 1.571935 0.000000
vt -0.010000 1.616602 0.000000
vt -0.020000 1.659264 0.000000
vt -0.010000 1.690084 0.000000
vt -0.020000 1.746594 0.000000
vt -0.010000 1.763565 0.000000
vt -0.020000 1.833924 0.000000
vt -0.010000 1.837047 0.000000
vt -0.010000 1.910529 0.000000
vt 0.000000 1.833924 0.000000
vt 0.000000 1.921254 0.000000
vt 0.000000 1.484605 0.000000
vt 0.000000 1.571935 0.000000
vt 0.000000 1.659264 0.000000
vt 0.000000 1.746594 0.000000
vt -0.010000 1.984011 0.000000
vt 0.000000 2.008583 0.000000
vt -0.010000 2.057493 0.000000
vt 0.000000 2.095913 0.000000
vt -0.010000 2.130975 0.000000
vt 0.000000 2.183243 0.000000
vt -0.010000 2.204457 0.000000
vt 0.000000 2.270572 0.000000
vt -0.010000 2.277939 0.000000
vt 0.000000 2.357902 0.000000
vt -0.010000 2.351421 0.000000
vt 0.000000 2.445232 0.000000
vt -0.010000 2.462203 0.000000
vt 0.000000 2.532562 0.000000
vt -0.010000 2.572986 0.000000
vt 0.000000 2.619891 0.000000
vt -0.010000 2.683768 0.000000
vt 0.000000 2.707221 0.000000
vt -0.020000 2.794551 0.000000
vt 0.000000 2.794551 0.000000
vt -0.020000 2.707221 0.000000
vt -0.020000 2.619891 0.000000
vt -0.020000 2.532562 0.000000
vt -0.020000 2.445232 0.000000
vt -0.020000 2.357902 0.000000
vt -0.020000 2.270572 0.000000
vt -0.020000 2.183243 0.000000
vt -0.020000 2.095913 0.000000
vt -0.020000 2.008583 0.000000
vt -0.020000 1.921254 0.000000
vt -0.020000 1.309946 0.000000
vt -0.020000 1.222616 0.000000
vt -0.020000 1.135286 0.000000
vt -0.020000 1.047956 0.000000
vt -0.020000 0.785967 0.000000
vt -0.020000 0.698638 0.000000
vt -0.020000 0.611308 0.000000
vt -0.020000 0.523978 0.000000
vt -0.020000 0.349319 0.000000
vt -0.020000 0.165054 0.000000
vt -0.020000 0.000000 0.000000
vt -0.010000 0.125876 0.000000
vt 0.000000 0.000000 0.000000
vt 0.000000 0.165054 0.000000
vt -0.010000 0.251752 0.000000
vt 0.000000 0.330108 0.000000
vt -0.010000 0.377628 0.000000
vt 0.000000 0.495162 0.000000
vt -0.010000 0.503504 0.000000
vt 0.000000 0.577688 0.000000
vt -0.010000 0.629380 0.000000
vt 0.000000 0.660215 0.000000
vt -0.010000 0.755256 0.000000
vt 0.000000 0.742742 0.000000
vt 0.000000 0.825269 0.000000
vt -0.010000 0.881132 0.000000
vt 0.000000 0.907796 0.000000
vt -0.010000 1.007008 0.000000
vt 0.000000 0.990323 0.000000
vt 0.000000 1.072850 0.000000
vt -0.010000 1.132884 0.000000
vt 0.000000 1.155377 0.000000
vt -0.010000 1.258760 0.000000
vt 0.000000 1.237904 0.000000
vt 0.000000 1.320431 0.000000
vt 0.000000 1.402958 0.000000
vt -0.010000 1.384636 0.000000
vt -0.010000 1.321698 0.000000
vt -0.020000 1.320431 0.000000
vt -0.020000 1.237904 0.000000
vt -0.010000 1.447574 0.000000
vt 0.000000 1.485485 0.000000
vt -0.010000 1.510512 0.000000
vt 0.000000 1.568012 0.000000
vt -0.010000 1.573450 0.000000
vt -0.010000 1.636388 0.000000
vt -0.020000 1.568012 0.000000
vt -0.020000 1.650539 0.000000
vt -0.010000 1.699326 0.000000
vt -0.020000 1.733065 0.000000
vt -0.010000 1.762264 0.000000
vt -0.020000 1.815592 0.000000
vt -0.010000 1.825202 0.000000
vt -0.010000 1.888140 0.000000
vt 0.000000 1.815592 0.000000
vt 0.000000 1.898119 0.000000
vt 0.000000 1.650539 0.000000
vt 0.000000 1.733065 0.000000
vt -0.010000 1.951078 0.000000
vt 0.000000 1.980646 0.000000
vt -0.010000 2.014016 0.000000
vt 0.000000 2.063173 0.000000
vt -0.010000 2.092372 0.000000
vt 0.000000 2.145700 0.000000
vt -0.010000 2.170728 0.000000
vt 0.000000 2.228227 0.000000
vt -0.010000 2.249083 0.000000
vt 0.000000 2.310754 0.000000
vt -0.010000 2.327439 0.000000
vt 0.000000 2.393281 0.000000
vt -0.010000 2.405795 0.000000
vt 0.000000 2.475808 0.000000
vt -0.010000 2.484150 0.000000
vt 0.000000 2.558335 0.000000
vt -0.010000 2.562506 0.000000
vt 0.000000 2.640862 0.000000
vt -0.020000 2.640862 0.000000
vt -0.020000 2.558335 0.000000
vt -0.020000 2.475808 0.000000
vt -0.020000 2.393281 0.000000
vt -0.020000 2.310754 0.000000
vt -0.020000 2.228227 0.000000
vt -0.020000 2.145700 0.000000
vt -0.020000 2.063173 0.000000
vt -0.020000 1.980646 0.000000
vt -0.020000 1.898119 0.000000
vt -0.020000 1.485485 0.000000
vt -0.020000 1.402958 0.000000
vt -0.020000 1.155377 0.000000
vt -0.020000 1.072850 0.000000
vt -0.020000 0.990323 0.000000
vt -0.020000 0.907796 0.000000
vt -0.020000 0.825269 0.000000
vt -0.020000 0.742742 0.000000
vt -0.020000 0.660215 0.000000
vt -0.020000 0.577688 0.000000
vt -0.020000 0.495162 0.000000
vt -0.020000 0.330108 0.000000
vt 0.000000 0.000000 0.000000
vt 0.020000 0.000000 0.000000
vt 0.000000 0.500000 0.000000
vt 0.020000 0.500000 0.000000
vt -0.000000 0.000000 0.000000
vt 0.040000 0.000000 0.000000
vt -0.000000 0.500000 0.000000
vt 0.040000 0.500000 0.000000
vt -0.009397 0.663806 0.000000
vt 0.030345 0.668402 0.000000
vt -0.038046 0.825599 0.000000
vt 0.000842 0.834964 0.000000
vt -0.086879 0.981734 0.000000
vt -0.049616 0.996367 0.000000
vt -0.119137 1.055895 0.000000
vt -0.083098 1.073382 0.000000
vt -0.156676 1.126438 0.000000
vt -0.122209 1.146872 0.000000
vt -0.199534 1.192606 0.000000
vt -0.167045 1.216038 0.000000
vt -0.247750 1.253637 0.000000
vt -0.217699 1.280081 0.000000
vt -0.301365 1.308774 0.000000
vt -0.274268 1.338201 0.000000
vt -0.360364 1.357266 0.000000
vt -0.336797 1.389554 0.000000
vt -0.424576 1.398496 0.000000
vt -0.405073 1.433311 0.000000
vt -0.493901 1.431937 0.000000
vt -0.478844 1.468861 0.000000
vt -0.568242 1.457065 0.000000
vt -0.557858 1.495604 0.000000
vt -0.647506 1.473357 0.000000
vt -0.641865 1.512938 0.000000
vt -0.731597 1.480289 0.000000
vt -0.730598 1.520258 0.000000
vt -0.823687 1.517156 0.000000
vt -0.820408 1.477467 0.000000
vt -0.920923 1.503631 0.000000
vt -0.913775 1.464684 0.000000
vt -1.022133 1.479728 0.000000
vt -1.011530 1.441744 0.000000
vt -1.127146 1.445490 0.000000
vt -1.113494 1.408460 0.000000
vt -1.235790 1.400962 0.000000
vt -1.219453 1.364802 0.000000
vt -1.347894 1.346187 0.000000
vt -1.329233 1.310889 0.000000
vt -1.463286 1.281208 0.000000
vt -1.442671 1.246845 0.000000
vt -1.581806 1.206131 0.000000
vt -1.559604 1.172795 0.000000
vt -1.703381 1.121270 0.000000
vt -1.679869 1.088864 0.000000
vt -1.827966 1.026769 0.000000
vt -1.803307 0.995201 0.000000
vt -1.955515 0.922749 0.000000
vt -1.929825 0.892011 0.000000
vt -2.085978 0.809330 0.000000
vt -2.059367 0.779404 0.000000
vt -2.219311 0.686633 0.000000
vt -2.191881 0.657483 0.000000
vt -2.355464 0.554779 0.000000
vt -2.327313 0.526351 0.000000
vt -2.494391 0.413889 0.000000
vt -2.465609 0.386111 0.000000
vt -0.000000 0.000000 0.000000
vt 0.020000 0.000000 0.000000
vt -0.000000 0.500000 0.000000
vt 0.020000 0.500000 0.000000
vt 0.000000 0.000000 0.000000
vt 0.040000 0.000000 0.000000
vt 0.000000 0.500000 0.000000
vt 0.040000 0.500000 0.000000
vt 0.049397 0.663806 0.000000
vt 0.009655 0.668402 0.000000
vt 0.078046 0.825599 0.000000
vt 0.039158 0.834964 0.000000
vt 0.126879 0.981734 0.000000
vt 0.089616 0.996367 0.000000
vt 0.159137 1.055895 0.000000
vt 0.123098 1.073382 0.000000
vt 0.196676 1.126438 0.000000
vt 0.162209 1.146872 0.000000
vt 0.239534 1.192606 0.000000
vt 0.207045 1.216038 0.000000
vt 0.287750 1.253637 0.000000
vt 0.257699 1.280081 0.000000
vt 0.341365 1.308774 0.000000
vt 0.314268 1.338201 0.000000
vt 0.400364 1.357266 0.000000
vt 0.376797 1.389554 0.000000
vt 0.464576 1.398496 0.000000
vt 0.445073 1.433311 0.000000
vt 0.533901 1.431937 0.000000
vt 0.518844 1.468861 0.000000
vt 0.608242 1.457065 0.000000
vt 0.597858 1.495604 0.000000
vt 0.687506 1.473357 0.000000
vt 0.681865 1.512938 0.000000
vt 0.771597 1.480289 0.000000
vt 0.770598 1.520258 0.000000
vt 0.863687 1.517156 0.000000
vt 0.860408 1.477467 0.000000
vt 0.960923 1.503631 0.000000
vt 0.953775 1.464684 0.000000
vt 1.062133 1.479728 0.000000
vt 1.051530 1.441744 0.000000
vt 1.167146 1.445490 0.000000
vt 1.153494 1.408460 0.000000
vt 1.275790 1.400962 0.000000
vt 1.259453 1.364802 0.000000
vt 1.387894 1.346187 0.000000
vt 1.369233 1.310889 0.000000
vt 1.503286 1.281208 0.000000
vt 1.482671 1.246845 0.000000
vt 1.621806 1.206131 0.000000
vt 1.599604 1.172795 0.000000
vt 1.743381 1.121270 0.000000
vt 1.719869 1.088864 0.000000
vt 1.867966 1.026769 0.000000
vt 1.843307 0.995201 0.000000
vt 1.995515 0.922749 0.000000
vt 1.969825 0.892011 0.000000
vt 2.125978 0.809330 0.000000
vt 2.099367 0.779404 0.000000
vt 2.259311 0.686633 0.000000
vt 2.231881 0.657483 0.000000
vt 2.395464 0.554779 0.000000
vt 2.367313 0.526351 0.000000
vt 2.534391 0.413889 0.000000
vt 2.505609 0.386111 0.000000
vt -0.020000 -0.010000 0.000000
vt 0.020000 -0.010000 0.000000
vt -0.020000 0.010000 0.000000
vt 0.020000 0.010000 0.000000
vt -0.020000 -0.010000 0.000000
vt 0.020000 -0.010000 0.000000
vt -0.020000 0.010000 0.000000
vt 0.020000 0.010000 0.000000
vn -0.993364 0.115013 0.000000
vn -1.000000 -0.000000 0.000000
vn -0.995333 0.096501 0.000000
vn -1.000000 -0.000000 0.000000
vn -0.993364 0.115013 0.000000
vn -0.980607 0.195987 0.000000
vn -0.972170 0.234278 0.000000
vn -0.953652 0.300913 0.000000
vn -0.931332 0.364170 0.000000
vn -0.909965 0.414684 0.000000
vn -0.901076 0.433661 0.000000
vn -0.862348 0.506315 0.000000
vn -0.843412 0.537267 0.000000
vn -0.813391 0.581717 0.000000
vn -0.745741 0.666236 0.000000
vn -0.752376 0.658734 0.000000
vn -0.677720 0.735320 0.000000
vn -0.588679 0.808367 0.000000
vn -0.609338 0.792911 0.000000
vn -0.682718 0.730682 0.000000
vn -0.677720 0.735320 0.000000
vn -0.752376 0.658734 0.000000
vn -0.527451 0.849585 0.000000
vn -0.488206 0.872729 0.000000
vn -0.438399 0.898781 0.000000
vn -0.378409 0.925638 0.000000
vn -0.343533 0.939141 0.000000
vn -0.261982 0.965073 0.000000
vn -0.244658 0.969610 0.000000
vn -0.142353 0.989816 0.000000
vn -0.143891 0.989594 0.000000
vn -0.043382 0.999059 0.000000
vn -0.142353 0.989816 0.000000
vn -0.023335 0.999728 0.000000
vn 0.051945 0.998650 -0.000000
vn 0.087081 0.996201 -0.000000
vn 0.138901 0.990306 -0.000000
vn 0.185356 0.982672 -0.000000
vn 0.217077 0.976154 -0.000000
vn 0.271346 0.962482 -0.000000
vn 0.286691 0.958023 -0.000000
vn 0.345874 0.938281 -0.000000
vn 0.348343 0.937367 -0.000000
vn 0.402814 0.915282 -0.000000
vn 0.345874 0.938281 -0.000000
vn 0.410213 0.911990 -0.000000
vn -0.023335 0.999728 0.000000
vn 0.087081 0.996201 -0.000000
vn 0.185356 0.982672 -0.000000
vn 0.271346 0.962482 -0.000000
vn 0.450939 0.892555 -0.000000
vn 0.465758 0.884912 -0.000000
vn 0.493526 0.869731 -0.000000
vn 0.513840 0.857886 -0.000000
vn 0.531296 0.847186 -0.000000
vn 0.554528 0.832165 -0.000000
vn 0.563371 0.826204 -0.000000
vn 0.588954 0.808167 -0.000000
vn 0.591631 0.806209 -0.000000
vn 0.618676 0.785646 -0.000000
vn 0.616614 0.787266 -0.000000
vn 0.644470 0.764630 -0.000000
vn 0.649083 0.760718 -0.000000
vn 0.666973 0.745082 -0.000000
vn 0.676426 0.736511 -0.000000
vn 0.686712 0.726930 -0.000000
vn 0.699651 0.714485 -0.000000
vn 0.704117 0.710084 -0.000000
vn 0.719543 0.694448 -0.000000
vn 0.719543 0.694448 -0.000000
vn 0.704117 0.710084 -0.000000
vn 0.686712 0.726930 -0.000000
vn 0.666973 0.745082 -0.000000
vn 0.644470 0.764630 -0.000000
vn 0.618676 0.785646 -0.000000
vn 0.588954 0.808167 -0.000000
vn 0.554528 0.832165 -0.000000
vn 0.513840 0.857886 -0.000000
vn 0.465758 0.884912 -0.000000
vn 0.410213 0.911990 -0.000000
vn -0.261982 0.965073 0.000000
vn -0.378409 0.925638 0.000000
vn -0.488206 0.872729 0.000000
vn -0.588679 0.808367 0.000000
vn -0.813391 0.581717 0.000000
vn -0.862348 0.506315 0.000000
vn -0.901076 0.433661 0.000000
vn -0.931332 0.364170 0.000000
vn -0.972170 0.234278 0.000000
vn 0.993363 -0.115023 0.000000
vn 1.000000 0.000000 0.000000
vn 0.996175 -0.087379 0.000000
vn 1.000000 0.000000 0.000000
vn 0.993363 -0.115023 0.000000
vn 0.984197 -0.177076 0.000000
vn 0.972173 -0.234262 0.000000
vn 0.962706 -0.270548 0.000000
vn 0.931232 -0.364428 0.000000
vn 0.928513 -0.371299 0.000000
vn 0.901029 -0.433760 0.000000
vn 0.877949 -0.478755 0.000000
vn 0.862440 -0.506160 0.000000
vn 0.805251 -0.592934 0.000000
vn 0.813660 -0.581342 0.000000
vn 0.752739 -0.658319 0.000000
vn 0.703679 -0.710518 0.000000
vn 0.677875 -0.735177 0.000000
vn 0.569910 -0.821707 0.000000
vn 0.589296 -0.807917 0.000000
vn 0.488837 -0.872375 0.000000
vn 0.409322 -0.912390 0.000000
vn 0.378405 -0.925640 0.000000
vn 0.231167 -0.972914 0.000000
vn 0.261324 -0.965251 0.000000
vn 0.141748 -0.989903 0.000000
vn 0.024219 -0.999707 0.000000
vn 0.049792 -0.998760 0.000000
vn 0.139915 -0.990164 0.000000
vn 0.141748 -0.989903 0.000000
vn 0.261324 -0.965251 0.000000
vn -0.036088 -0.999349 -0.000000
vn -0.084965 -0.996384 -0.000000
vn -0.115980 -0.993252 -0.000000
vn -0.183358 -0.983046 -0.000000
vn -0.189451 -0.981890 -0.000000
vn -0.256454 -0.966556 -0.000000
vn -0.183358 -0.983046 -0.000000
vn -0.270647 -0.962679 -0.000000
vn -0.317213 -0.948354 -0.000000
vn -0.347098 -0.937829 -0.000000
vn -0.371362 -0.928488 -0.000000
vn -0.412138 -0.911121 -0.000000
vn -0.419032 -0.907972 -0.000000
vn -0.461056 -0.887371 -0.000000
vn -0.412138 -0.911121 -0.000000
vn -0.467253 -0.884124 -0.000000
vn -0.270647 -0.962679 -0.000000
vn -0.347098 -0.937829 -0.000000
vn -0.498203 -0.867061 -0.000000
vn -0.514166 -0.857691 -0.000000
vn -0.531150 -0.847278 -0.000000
vn -0.554348 -0.832285 -0.000000
vn -0.567188 -0.823588 -0.000000
vn -0.589013 -0.808123 -0.000000
vn -0.598591 -0.801055 -0.000000
vn -0.618765 -0.785576 -0.000000
vn -0.625599 -0.780145 -0.000000
vn -0.644463 -0.764636 -0.000000
vn -0.649245 -0.760579 -0.000000
vn -0.666914 -0.745135 -0.000000
vn -0.670069 -0.742299 -0.000000
vn -0.686639 -0.726998 -0.000000
vn -0.688499 -0.725237 -0.000000
vn -0.704066 -0.710135 -0.000000
vn -0.704892 -0.709315 -0.000000
vn -0.719543 -0.694448 -0.000000
vn -0.719543 -0.694448 -0.000000
vn -0.704066 -0.710135 -0.000000
vn -0.686639 -0.726998 -0.000000
vn -0.666914 -0.745135 -0.000000
vn -0.644463 -0.764636 -0.000000
vn -0.618765 -0.785576 -0.000000
vn -0.589013 -0.808123 -0.000000
vn -0.554348 -0.832285 -0.000000
vn -0.514166 -0.857691 -0.000000
vn -0.467253 -0.884124 -0.000000
vn -0.084965 -0.996384 -0.000000
vn 0.024219 -0.999707 0.000000
vn 0.378405 -0.925640 0.000000
vn 0.488837 -0.872375 0.000000
vn 0.589296 -0.807917 0.000000
vn 0.677875 -0.735177 0.000000
vn 0.752739 -0.658319 0.000000
vn 0.813660 -0.581342 0.000000
vn 0.862440 -0.506160 0.000000
vn 0.901029 -0.433760 0.000000
vn 0.931232 -0.364428 0.000000
vn 0.972173 -0.234262 0.000000
vn -1.000000 0.000000 0.000000
vn -1.000000 0.000000 0.000000
vn -1.000000 0.000000 0.000000
vn -1.000000 0.000000 0.000000
vn 0.000000 0.000000 -1.000000
vn 0.000000 0.000000 -1.000000
vn 0.000000 0.000000 -1.000000
vn 0.000000 0.000000 -1.000000
vn 0.000000 0.000000 -1.000000
vn 0.000000 0.000000 -1.000000
vn 0.000000 0.000000 -1.000000
vn 0.000000 0.000000 -1.000000
vn 0.000000 0.000000 -1.000000
vn 0.000000 0.000000 -1.000000
vn 0.000000 0.000000 -1.000000
vn 0.000000 0.000000 -1.000000
vn 0.000000 0.000000 -1.000000
vn 0.000000 0.000000 -1.000000
vn 0.000000 0.000000 -1.000000
vn 0.000000 0.000000 -1.000000
vn 0.000000 0.000000 -1.000000
vn 0.000000 0.000000 -1.000000
vn 0.000000 0.000000 -1.000000
vn 0.000000 0.000000 -1.000000
vn 0.000000 0.000000 -1.000000
vn 0.000000 0.000000 -1.000000
vn 0.000000 0.000000 -1.000000
vn 0.000000 0.000000 -1.000000
vn 0.000000 0.000000 -1.000000
vn 0.000000 0.000000 -1.000000
vn 0.000000 0.000000 -1.000000
vn 0.000000 0.000000 -1.000000
vn 0.000000 0.000000 -1.000000
vn 0.000000 0.000000 -1.000000
vn 0.000000 0.000000 -1.000000
vn 0.000000 0.000000 -1.000000
vn 0.000000 0.000000 -1.000000
vn 0.000000 0.000000 -1.000000
vn 0.000000 0.000000 -1.000000
vn 0.000000 0.000000 -1.000000
vn 0.000000 0.000000 -1.000000
vn 0.000000 0.000000 -1.000000
vn 0.000000 0.000000 -1.000000
vn 0.000000 0.000000 -1.000000
vn 0.000000 0.000000 -1.000000
vn 0.000000 0.000000 -1.000000
vn 0.000000 0.000000 -1.000000
vn 0.000000 0.000000 -1.000000
vn 0.000000 0.000000 -1.000000
vn 0.000000 0.000000 -1.000000
vn 0.000000 0.000000 -1.000000
vn 0.000000 0.000000 -1.000000
vn 0.000000 0.000000 -1.000000
vn 0.000000 0.000000 -1.000000
vn 0.000000 0.000000 -1.000000
vn 0.000000 0.000000 -1.000000
vn 0.000000 0.000000 -1.000000
vn 0.000000 0.000000 -1.000000
vn 0.000000 0.000000 -1.000000
vn 0.000000 0.000000 -1.000000
vn 0.000000 0.000000 -1.000000
vn 0.000000 0.000000 -1.000000
vn 0.000000 0.000000 -1.000000
vn 0.000000 0.000000 -1.000000
vn 0.000000 0.000000 -1.000000
vn 0.000000 0.000000 -1.000000
vn 1.000000 0.000000 0.000000
vn 1.000000 0.000000 0.000000
vn 1.000000 0.000000 0.000000
vn 1.000000 0.000000 0.000000
vn 0.000000 -0.000000 1.000000
vn 0.000000 -0.000000 1.000000
vn 0.000000 -0.000000 1.000000
vn 0.000000 -0.000000 1.000000
vn 0.000000 -0.000000 1.000000
vn 0.000000 -0.000000 1.000000
vn 0.000000 -0.000000 1.000000
vn 0.000000 -0.000000 1.000000
vn 0.000000 -0.000000 1.000000
vn 0.000000 -0.000000 1.000000
vn 0.000000 -0.000000 1.000000
vn 0.000000 -0.000000 1.000000
vn 0.000000 -0.000000 1.000000
vn 0.000000 -0.000000 1.000000
vn 0.000000 -0.000000 1.000000
vn 0.000000 -0.000000 1.000000
vn 0.000000 -0.000000 1.000000
vn 0.000000 -0.000000 1.000000
vn 0.000000 -0.000000 1.000000
vn 0.000000 -0.000000 1.000000
vn 0.000000 -0.000000 1.000000
vn 0.000000 -0.000000 1.000000
vn 0.000000 -0.000000 1.000000
vn 0.000000 -0.000000 1.000000
vn 0.000000 -0.000000 1.000000
vn 0.000000 -0.000000 1.000000
vn 0.000000 -0.000000 1.000000
vn 0.000000 -0.000000 1.000000
vn 0.000000 -0.000000 1.000000
vn 0.000000 -0.000000 1.000000
vn 0.000000 -0.000000 1.000000
vn 0.000000 -0.000000 1.000000
vn 0.000000 -0.000000 1.000000
vn 0.000000 -0.000000 1.000000
vn 0.000000 -0.000000 1.000000
vn 0.000000 -0.000000 1.000000
vn 0.000000 -0.000000 1.000000
vn 0.000000 -0.000000 1.000000
vn 0.000000 -0.000000 1.000000
vn 0.000000 -0.000000 1.000000
vn 0.000000 -0.000000 1.000000
vn 0.000000 -0.000000 1.000000
vn 0.000000 -0.000000 1.000000
vn 0.000000 -0.000000 1.000000
vn 0.000000 -0.000000 1.000000
vn 0.000000 -0.000000 1.000000
vn 0.000000 -0.000000 1.000000
vn 0.000000 -0.000000 1.000000
vn 0.000000 -0.000000 1.000000
vn 0.000000 -0.000000 1.000000
vn 0.000000 -0.000000 1.000000
vn 0.000000 -0.000000 1.000000
vn 0.000000 -0.000000 1.000000
vn 0.000000 -0.000000 1.000000
vn 0.000000 -0.000000 1.000000
vn 0.000000 -0.000000 1.000000
vn 0.000000 -0.000000 1.000000
vn 0.000000 -0.000000 1.000000
vn 0.000000 -0.000000 1.000000
vn 0.000000 -0.000000 1.000000
vn 0.000000 -0.000000 1.000000
vn 0.000000 -0.000000 1.000000
vn 0.694448 -0.719543 0.000000
vn 0.694448 -0.719543 0.000000
vn 0.694448 -0.719543 0.000000
vn 0.694448 -0.719543 0.000000
vn -0.000000 -1.000000 -0.000000
vn -0.000000 -1.000000 -0.000000
vn -0.000000 -1.000000 -0.000000
vn -0.000000 -1.000000 -0.000000
usemtl Steel_-_Satin
f 60/1/1 1/2/2 66/3/3
f 66/3/3 1/2/2 2/4/4
f 66/3/3 2/4/4 3/5/5
f 66/3/3 3/5/5 65/6/6
f 65/6/6 3/5/5 4/7/7
f 65/6/6 4/7/7 67/8/8
f 67/8/8 4/7/7 5/9/9
f 67/8/8 5/9/9 68/10/10
f 68/10/10 5/9/9 6/11/11
f 68/10/10 6/11/11 7/12/12
f 68/10/10 7/12/12 69/13/13
f 69/13/13 7/12/12 8/14/14
f 69/13/13 8/14/14 61/15/15
f 61/15/15 8/14/14 9/16/16
f 61/15/15 9/16/16 10/17/17
f 11/18/18 70/19/19 10/17/17
f 10/17/17 70/19/19 71/20/20
f 10/17/17 71/20/20 61/15/15
f 61/15/15 71/20/20 53/21/21
f 61/15/15 53/21/21 54/22/22
f 70/19/19 11/18/18 72/23/23
f 72/23/23 11/18/18 12/24/24
f 72/23/23 12/24/24 73/25/25
f 73/25/25 12/24/24 13/26/26
f 73/25/25 13/26/26 74/27/27
f 74/27/27 13/26/26 14/28/28
f 74/27/27 14/28/28 62/29/29
f 62/29/29 14/28/28 15/30/30
f 62/29/29 15/30/30 76/31/31
f 76/31/31 15/30/30 75/32/32
f 76/31/31 75/32/32 48/33/33
f 48/33/33 75/32/32 47/34/34
f 47/34/34 75/32/32 77/35/35
f 47/34/34 77/35/35 46/36/36
f 46/36/36 77/35/35 78/37/37
f 46/36/36 78/37/37 45/38/38
f 45/38/38 78/37/37 79/39/39
f 45/38/38 79/39/39 44/40/40
f 44/40/40 79/39/39 80/41/41
f 44/40/40 80/41/41 43/42/42
f 43/42/42 80/41/41 81/43/43
f 43/42/42 81/43/43 63/44/44
f 63/44/44 81/43/43 20/45/45
f 63/44/44 20/45/45 21/46/46
f 15/30/30 16/47/47 75/32/32
f 75/32/32 16/47/47 77/35/35
f 16/47/47 17/48/48 77/35/35
f 77/35/35 17/48/48 78/37/37
f 17/48/48 18/49/49 78/37/37
f 78/37/37 18/49/49 79/39/39
f 18/49/49 19/50/50 79/39/39
f 79/39/39 19/50/50 80/41/41
f 19/50/50 20/45/45 80/41/41
f 80/41/41 20/45/45 81/43/43
f 63/44/44 21/46/46 82/51/51
f 82/51/51 21/46/46 22/52/52
f 82/51/51 22/52/52 83/53/53
f 83/53/53 22/52/52 23/54/54
f 83/53/53 23/54/54 84/55/55
f 84/55/55 23/54/54 24/56/56
f 84/55/55 24/56/56 85/57/57
f 85/57/57 24/56/56 25/58/58
f 85/57/57 25/58/58 64/59/59
f 64/59/59 25/58/58 26/60/60
f 64/59/59 26/60/60 87/61/61
f 87/61/61 26/60/60 27/62/62
f 87/61/61 27/62/62 86/63/63
f 86/63/63 27/62/62 28/64/64
f 86/63/63 28/64/64 88/65/65
f 88/65/65 28/64/64 29/66/66
f 88/65/65 29/66/66 89/67/67
f 89/67/67 29/66/66 30/68/68
f 89/67/67 30/68/68 32/69/69
f 32/69/69 30/68/68 31/70/70
f 32/69/69 33/71/71 89/67/67
f 89/67/67 33/71/71 34/72/72
f 89/67/67 34/72/72 88/65/65
f 88/65/65 34/72/72 35/73/73
f 88/65/65 35/73/73 86/63/63
f 86/63/63 35/73/73 36/74/74
f 86/63/63 36/74/74 87/61/61
f 87/61/61 36/74/74 37/75/75
f 87/61/61 37/75/75 64/59/59
f 64/59/59 37/75/75 38/76/76
f 64/59/59 38/76/76 85/57/57
f 85/57/57 38/76/76 39/77/77
f 85/57/57 39/77/77 84/55/55
f 84/55/55 39/77/77 40/78/78
f 84/55/55 40/78/78 83/53/53
f 83/53/53 40/78/78 41/79/79
f 83/53/53 41/79/79 82/51/51
f 82/51/51 41/79/79 42/80/80
f 82/51/51 42/80/80 63/44/44
f 63/44/44 42/80/80 43/42/42
f 76/31/31 48/33/33 62/29/29
f 62/29/29 48/33/33 49/81/81
f 62/29/29 49/81/81 74/27/27
f 74/27/27 49/81/81 50/82/82
f 74/27/27 50/82/82 73/25/25
f 73/25/25 50/82/82 51/83/83
f 73/25/25 51/83/83 72/23/23
f 72/23/23 51/83/83 52/84/84
f 72/23/23 52/84/84 70/19/19
f 70/19/19 52/84/84 53/21/21
f 70/19/19 53/21/21 71/20/20
f 54/22/22 55/85/85 61/15/15
f 61/15/15 55/85/85 69/13/13
f 55/85/85 56/86/86 69/13/13
f 69/13/13 56/86/86 68/10/10
f 56/86/86 57/87/87 68/10/10
f 68/10/10 57/87/87 58/88/88
f 68/10/10 58/88/88 67/8/8
f 67/8/8 58/88/88 59/89/89
f 67/8/8 59/89/89 65/6/6
f 65/6/6 59/89/89 60/1/1
f 65/6/6 60/1/1 66/3/3
f 149/90/90 90/91/91 154/92/92
f 154/92/92 90/91/91 91/93/93
f 154/92/92 91/93/93 92/94/94
f 154/92/92 92/94/94 153/95/95
f 153/95/95 92/94/94 93/96/96
f 153/95/95 93/96/96 155/97/97
f 155/97/97 93/96/96 94/98/98
f 155/97/97 94/98/98 156/99/99
f 156/99/99 94/98/98 95/100/100
f 156/99/99 95/100/100 157/101/101
f 157/101/101 95/100/100 96/102/102
f 157/101/101 96/102/102 158/103/103
f 158/103/103 96/102/102 97/104/104
f 158/103/103 97/104/104 98/105/105
f 158/103/103 98/105/105 159/106/106
f 159/106/106 98/105/105 99/107/107
f 159/106/106 99/107/107 160/108/108
f 160/108/108 99/107/107 100/109/109
f 160/108/108 100/109/109 101/110/110
f 160/108/108 101/110/110 161/111/111
f 161/111/111 101/110/110 102/112/112
f 161/111/111 102/112/112 162/113/113
f 162/113/113 102/112/112 103/114/114
f 162/113/113 103/114/114 104/115/115
f 105/116/116 150/117/117 104/115/115
f 104/115/115 150/117/117 163/118/118
f 104/115/115 163/118/118 162/113/113
f 162/113/113 163/118/118 137/119/119
f 162/113/113 137/119/119 138/120/120
f 150/117/117 105/116/116 164/121/121
f 164/121/121 105/116/116 106/122/122
f 164/121/121 106/122/122 165/123/123
f 165/123/123 106/122/122 107/124/124
f 165/123/123 107/124/124 166/125/125
f 166/125/125 107/124/124 151/126/126
f 166/125/125 151/126/126 134/127/127
f 134/127/127 151/126/126 133/128/128
f 133/128/128 151/126/126 167/129/129
f 133/128/128 167/129/129 132/130/130
f 132/130/130 167/129/129 168/131/131
f 132/130/130 168/131/131 131/132/132
f 131/132/132 168/131/131 169/133/133
f 131/132/132 169/133/133 152/134/134
f 152/134/134 169/133/133 110/135/135
f 152/134/134 110/135/135 111/136/136
f 107/124/124 108/137/137 151/126/126
f 151/126/126 108/137/137 167/129/129
f 108/137/137 109/138/138 167/129/129
f 167/129/129 109/138/138 168/131/131
f 109/138/138 110/135/135 168/131/131
f 168/131/131 110/135/135 169/133/133
f 152/134/134 111/136/136 170/139/139
f 170/139/139 111/136/136 112/140/140
f 170/139/139 112/140/140 171/141/141
f 171/141/141 112/140/140 113/142/142
f 171/141/141 113/142/142 172/143/143
f 172/143/143 113/142/142 114/144/144
f 172/143/143 114/144/144 173/145/145
f 173/145/145 114/144/144 115/146/146
f 173/145/145 115/146/146 174/147/147
f 174/147/147 115/146/146 116/148/148
f 174/147/147 116/148/148 175/149/149
f 175/149/149 116/148/148 117/150/150
f 175/149/149 117/150/150 176/151/151
f 176/151/151 117/150/150 118/152/152
f 176/151/151 118/152/152 177/153/153
f 177/153/153 118/152/152 119/154/154
f 177/153/153 119/154/154 178/155/155
f 178/155/155 119/154/154 120/156/156
f 178/155/155 120/156/156 121/157/157
f 121/157/157 122/158/158 178/155/155
f 178/155/155 122/158/158 177/153/153
f 122/158/158 123/159/159 177/153/153
f 177/153/153 123/159/159 176/151/151
f 123/159/159 124/160/160 176/151/151
f 176/151/151 124/160/160 175/149/149
f 124/160/160 125/161/161 175/149/149
f 175/149/149 125/161/161 174/147/147
f 125/161/161 126/162/162 174/147/147
f 174/147/147 126/162/162 173/145/145
f 126/162/162 127/163/163 173/145/145
f 173/145/145 127/163/163 172/143/143
f 127/163/163 128/164/164 172/143/143
f 172/143/143 128/164/164 171/141/141
f 128/164/164 129/165/165 171/141/141
f 171/141/141 129/165/165 170/139/139
f 129/165/165 130/166/166 170/139/139
f 170/139/139 130/166/166 152/134/134
f 130/166/166 131/132/132 152/134/134
f 166/125/125 134/127/127 165/123/123
f 165/123/123 134/127/127 135/167/167
f 165/123/123 135/167/167 164/121/121
f 164/121/121 135/167/167 136/168/168
f 164/121/121 136/168/168 150/117/117
f 150/117/117 136/168/168 137/119/119
f 150/117/117 137/119/119 163/118/118
f 138/120/120 139/169/169 162/113/113
f 162/113/113 139/169/169 161/111/111
f 139/169/169 140/170/170 161/111/111
f 161/111/111 140/170/170 160/108/108
f 140/170/170 141/171/171 160/108/108
f 160/108/108 141/171/171 142/172/172
f 160/108/108 142/172/172 159/106/106
f 159/106/106 142/172/172 143/173/173
f 159/106/106 143/173/173 158/103/103
f 158/103/103 143/173/173 144/174/174
f 158/103/103 144/174/174 145/175/175
f 158/103/103 145/175/175 157/101/101
f 157/101/101 145/175/175 146/176/176
f 157/101/101 146/176/176 156/99/99
f 156/99/99 146/176/176 147/177/177
f 156/99/99 147/177/177 155/97/97
f 155/97/97 147/177/177 148/178/178
f 155/97/97 148/178/178 153/95/95
f 153/95/95 148/178/178 149/90/90
f 153/95/95 149/90/90 154/92/92
f 179/179/179 180/180/180 1/181/181
f 1/181/181 180/180/180 2/182/182
f 181/183/183 179/184/184 91/185/185
f 91/185/185 179/184/184 1/186/186
f 91/185/185 1/186/186 92/187/187
f 92/187/187 1/186/186 60/188/188
f 92/187/187 60/188/188 93/189/189
f 93/189/189 60/188/188 59/190/190
f 93/189/189 59/190/190 94/191/191
f 94/191/191 59/190/190 58/192/192
f 94/191/191 58/192/192 95/193/193
f 95/193/193 58/192/192 57/194/194
f 95/193/193 57/194/194 96/195/195
f 96/195/195 57/194/194 56/196/196
f 96/195/195 56/196/196 97/197/197
f 97/197/197 56/196/196 55/198/198
f 97/197/197 55/198/198 98/199/199
f 98/199/199 55/198/198 54/200/200
f 98/199/199 54/200/200 99/201/201
f 99/201/201 54/200/200 53/202/202
f 99/201/201 53/202/202 100/203/203
f 100/203/203 53/202/202 52/204/204
f 100/203/203 52/204/204 101/205/205
f 101/205/205 52/204/204 51/206/206
f 101/205/205 51/206/206 102/207/207
f 102/207/207 51/206/206 50/208/208
f 102/207/207 50/208/208 103/209/209
f 103/209/209 50/208/208 49/210/210
f 103/209/209 49/210/210 104/211/211
f 104/211/211 49/210/210 48/212/212
f 104/211/211 48/212/212 105/213/213
f 105/213/213 48/212/212 47/214/214
f 105/213/213 47/214/214 46/215/215
f 105/213/213 46/215/215 106/216/216
f 106/216/216 46/215/215 45/217/217
f 106/216/216 45/217/217 107/218/218
f 107/218/218 45/217/217 44/219/219
f 107/218/218 44/219/219 108/220/220
f 108/220/220 44/219/219 43/221/221
f 108/220/220 43/221/221 109/222/222
f 109/222/222 43/221/221 42/223/223
f 109/222/222 42/223/223 110/224/224
f 110/224/224 42/223/223 41/225/225
f 110/224/224 41/225/225 111/226/226
f 111/226/226 41/225/225 40/227/227
f 111/226/226 40/227/227 112/228/228
f 112/228/228 40/227/227 39/229/229
f 112/228/228 39/229/229 113/230/230
f 113/230/230 39/229/229 38/231/231
f 113/230/230 38/231/231 114/232/232
f 114/232/232 38/231/231 37/233/233
f 114/232/232 37/233/233 115/234/234
f 115/234/234 37/233/233 36/235/235
f 115/234/234 36/235/235 116/236/236
f 116/236/236 36/235/235 35/237/237
f 116/236/236 35/237/237 117/238/238
f 117/238/238 35/237/237 34/239/239
f 117/238/238 34/239/239 118/240/240
f 118/240/240 34/239/239 33/241/241
f 118/240/240 33/241/241 119/242/242
f 119/242/242 33/241/241 32/243/243
f 119/242/242 32/243/243 120/244/244
f 182/245/245 181/246/246 90/247/247
f 90/247/247 181/246/246 91/248/248
f 180/249/249 182/250/250 2/251/251
f 2/251/251 182/250/250 90/252/252
f 2/251/251 90/252/252 149/253/253
f 2/251/251 149/253/253 3/254/254
f 3/254/254 149/253/253 148/255/255
f 3/254/254 148/255/255 4/256/256
f 4/256/256 148/255/255 147/257/257
f 4/256/256 147/257/257 5/258/258
f 5/258/258 147/257/257 146/259/259
f 5/258/258 146/259/259 6/260/260
f 6/260/260 146/259/259 145/261/261
f 6/260/260 145/261/261 7/262/262
f 7/262/262 145/261/261 144/263/263
f 7/262/262 144/263/263 8/264/264
f 8/264/264 144/263/263 143/265/265
f 8/264/264 143/265/265 9/266/266
f 9/266/266 143/265/265 142/267/267
f 9/266/266 142/267/267 10/268/268
f 10/268/268 142/267/267 141/269/269
f 10/268/268 141/269/269 11/270/270
f 11/270/270 141/269/269 140/271/271
f 11/270/270 140/271/271 12/272/272
f 12/272/272 140/271/271 139/273/273
f 12/272/272 139/273/273 13/274/274
f 13/274/274 139/273/273 138/275/275
f 13/274/274 138/275/275 14/276/276
f 14/276/276 138/275/275 137/277/277
f 14/276/276 137/277/277 15/278/278
f 15/278/278 137/277/277 136/279/279
f 15/278/278 136/279/279 16/280/280
f 16/280/280 136/279/279 17/281/281
f 17/281/281 136/279/279 135/282/282
f 17/281/281 135/282/282 18/283/283
f 18/283/283 135/282/282 134/284/284
f 18/283/283 134/284/284 19/285/285
f 19/285/285 134/284/284 133/286/286
f 19/285/285 133/286/286 20/287/287
f 20/287/287 133/286/286 132/288/288
f 20/287/287 132/288/288 21/289/289
f 21/289/289 132/288/288 131/290/290
f 21/289/289 131/290/290 22/291/291
f 22/291/291 131/290/290 130/292/292
f 22/291/291 130/292/292 23/293/293
f 23/293/293 130/292/292 129/294/294
f 23/293/293 129/294/294 24/295/295
f 24/295/295 129/294/294 128/296/296
f 24/295/295 128/296/296 25/297/297
f 25/297/297 128/296/296 127/298/298
f 25/297/297 127/298/298 26/299/299
f 26/299/299 127/298/298 126/300/300
f 26/299/299 126/300/300 27/301/301
f 27/301/301 126/300/300 125/302/302
f 27/301/301 125/302/302 28/303/303
f 28/303/303 125/302/302 124/304/304
f 28/303/303 124/304/304 29/305/305
f 29/305/305 124/304/304 123/306/306
f 29/305/305 123/306/306 30/307/307
f 30/307/307 123/306/306 122/308/308
f 30/307/307 122/308/308 31/309/309
f 31/309/309 122/308/308 121/310/310
f 31/311/311 121/312/312 32/313/313
f 32/313/313 121/312/312 120/314/314
f 182/315/315 180/316/316 181/317/317
f 181/317/317 180/316/316 179/318/318
# 182 vertices
# 318 texture params
# 318 normals
# 360 facets

# 1 groups
