# WaveFront *.obj file (generated by Autodesk ATF)

mtllib 45UUU.mtl

g Body2

v -0.040000 0.500000 -0.010000
v -0.040000 0.500000 0.010000
v -0.032932 0.650336 0.010000
v -0.010901 0.800058 0.010000
v 0.027806 0.946935 0.010000
v 0.054010 1.018048 0.010000
v 0.084962 1.086834 0.010000
v 0.120800 1.152708 0.010000
v 0.161659 1.215087 0.010000
v 0.207675 1.273386 0.010000
v 0.258889 1.326999 0.010000
v 0.314907 1.375390 0.010000
v 0.375311 1.418198 0.010000
v 0.439692 1.455066 0.010000
v 0.507640 1.485639 0.010000
v 0.578721 1.509556 0.010000
v 0.652320 1.526513 0.010000
v 0.728036 1.536490 0.010000
v 0.805525 1.539501 0.010000
v 0.884442 1.535561 0.010000
v 0.964444 1.524685 0.010000
v 1.045186 1.506888 0.010000
v 1.126325 1.482186 0.010000
v 1.207559 1.450652 0.010000
v 1.288859 1.412567 0.010000
v 1.370216 1.368050 0.010000
v 1.451610 1.317198 0.010000
v 1.533023 1.260106 0.010000
v 1.614435 1.196873 0.010000
v 1.695828 1.127594 0.010000
v 1.777183 1.052366 0.010000
v 1.777183 1.052366 -0.010000
v 1.695828 1.127594 -0.010000
v 1.614435 1.196873 -0.010000
v 1.533023 1.260106 -0.010000
v 1.451610 1.317198 -0.010000
v 1.370216 1.368050 -0.010000
v 1.288859 1.412567 -0.010000
v 1.207559 1.450652 -0.010000
v 1.126325 1.482186 -0.010000
v 1.045186 1.506888 -0.010000
v 0.964444 1.524685 -0.010000
v 0.884442 1.535561 -0.010000
v 0.805525 1.539501 -0.010000
v 0.728036 1.536490 -0.010000
v 0.652320 1.526513 -0.010000
v 0.578721 1.509556 -0.010000
v 0.507640 1.485639 -0.010000
v 0.439692 1.455066 -0.010000
v 0.375311 1.418198 -0.010000
v 0.314907 1.375390 -0.010000
v 0.258889 1.326999 -0.010000
v 0.207675 1.273386 -0.010000
v 0.161659 1.215087 -0.010000
v 0.120800 1.152708 -0.010000
v 0.084962 1.086834 -0.010000
v 0.054010 1.018048 -0.010000
v 0.027806 0.946935 -0.010000
v -0.010901 0.800058 -0.010000
v -0.032932 0.650336 -0.010000
v -0.032932 0.650336 0.000000
v -0.010901 0.800058 0.000000
v 0.027806 0.946935 0.000000
v 0.054010 1.018048 0.000000
v 0.084962 1.086834 0.000000
v 0.120800 1.152708 0.000000
v 0.161659 1.215087 0.000000
v 0.207675 1.273386 0.000000
v 0.258889 1.326999 0.000000
v 0.314907 1.375390 0.000000
v 0.375311 1.418198 0.000000
v 0.439692 1.455066 0.000000
v 0.507640 1.485639 0.000000
v 0.578721 1.509556 0.000000
v 0.652320 1.526513 0.000000
v 0.728036 1.536490 0.000000
v 0.805525 1.539501 0.000000
v 0.884442 1.535561 0.000000
v 0.964444 1.524685 0.000000
v 1.045186 1.506888 0.000000
v 1.126325 1.482186 0.000000
v 1.207559 1.450652 0.000000
v 1.288859 1.412567 0.000000
v 1.370216 1.368050 0.000000
v 1.451610 1.317198 0.000000
v 1.533023 1.260106 0.000000
v 1.614435 1.196873 0.000000
v 1.695828 1.127594 0.000000
v 0.040000 0.500000 0.010000
v 0.040000 0.500000 -0.010000
v 0.046665 0.643084 -0.010000
v 0.067457 0.784983 -0.010000
v 0.103567 0.922204 -0.010000
v 0.127740 0.987969 -0.010000
v 0.156189 1.051256 -0.010000
v 0.189099 1.111521 -0.010000
v 0.226520 1.168145 -0.010000
v 0.268303 1.220759 -0.010000
v 0.314294 1.268998 -0.010000
v 0.364337 1.312496 -0.010000
v 0.418279 1.350889 -0.010000
v 0.475904 1.383837 -0.010000
v 0.536783 1.411129 -0.010000
v 0.600549 1.432575 -0.010000
v 0.666841 1.447984 -0.010000
v 0.735297 1.457164 -0.010000
v 0.805534 1.459941 -0.010000
v 0.877311 1.456274 -0.010000
v 0.950438 1.446162 -0.010000
v 1.024726 1.429598 -0.010000
v 1.099987 1.406581 -0.010000
v 1.176032 1.377107 -0.010000
v 1.252681 1.341186 -0.010000
v 1.329849 1.298927 -0.010000
v 1.407488 1.250398 -0.010000
v 1.485549 1.195654 -0.010000
v 1.563979 1.134750 -0.010000
v 1.642728 1.067743 -0.010000
v 1.721746 0.994688 -0.010000
v 1.721746 0.994688 0.010000
v 1.642728 1.067743 0.010000
v 1.563979 1.134750 0.010000
v 1.485549 1.195654 0.010000
v 1.407488 1.250398 0.010000
v 1.329849 1.298927 0.010000
v 1.252681 1.341186 0.010000
v 1.176032 1.377107 0.010000
v 1.099987 1.406581 0.010000
v 1.024726 1.429598 0.010000
v 0.950438 1.446162 0.010000
v 0.877311 1.456274 0.010000
v 0.805534 1.459941 0.010000
v 0.735297 1.457164 0.010000
v 0.666841 1.447984 0.010000
v 0.600549 1.432575 0.010000
v 0.536783 1.411129 0.010000
v 0.475904 1.383837 0.010000
v 0.418279 1.350889 0.010000
v 0.364337 1.312496 0.010000
v 0.314294 1.268998 0.010000
v 0.268303 1.220759 0.010000
v 0.226520 1.168145 0.010000
v 0.189099 1.111521 0.010000
v 0.156189 1.051256 0.010000
v 0.127740 0.987969 0.010000
v 0.103567 0.922204 0.010000
v 0.067457 0.784983 0.010000
v 0.046665 0.643084 0.010000
v 0.046665 0.643084 0.000000
v 0.067457 0.784983 0.000000
v 0.103567 0.922204 0.000000
v 0.127740 0.987969 0.000000
v 0.156189 1.051256 0.000000
v 0.189099 1.111521 0.000000
v 0.226520 1.168145 0.000000
v 0.268303 1.220759 0.000000
v 0.314294 1.268998 0.000000
v 0.364337 1.312496 0.000000
v 0.418279 1.350889 0.000000
v 0.475904 1.383837 0.000000
v 0.536783 1.411129 0.000000
v 0.600549 1.432575 0.000000
v 0.666841 1.447984 0.000000
v 0.735297 1.457164 0.000000
v 0.805534 1.459941 0.000000
v 0.877311 1.456274 0.000000
v 0.950438 1.446162 0.000000
v 1.024726 1.429598 0.000000
v 1.099987 1.406581 0.000000
v 1.176032 1.377107 0.000000
v 1.252681 1.341186 0.000000
v 1.329849 1.298927 0.000000
v 1.407488 1.250398 0.000000
v 1.485549 1.195654 0.000000
v 1.563979 1.134750 0.000000
v 1.642728 1.067743 0.000000
v -0.040000 0.000000 -0.010000
v -0.040000 0.000000 0.010000
v 0.040000 0.000000 -0.010000
v 0.040000 0.000000 0.010000
vt -0.020000 0.149555 0.000000
vt -0.020000 0.000000 0.000000
vt -0.010000 0.149555 0.000000
vt 0.000000 0.000000 0.000000
vt 0.000000 0.149555 0.000000
vt -0.010000 0.299110 0.000000
vt 0.000000 0.299110 0.000000
vt -0.010000 0.448664 0.000000
vt 0.000000 0.448664 0.000000
vt -0.010000 0.523442 0.000000
vt 0.000000 0.523442 0.000000
vt -0.010000 0.598219 0.000000
vt 0.000000 0.598219 0.000000
vt -0.010000 0.672997 0.000000
vt 0.000000 0.672997 0.000000
vt -0.010000 0.747774 0.000000
vt 0.000000 0.747774 0.000000
vt -0.010000 0.822551 0.000000
vt 0.000000 0.822551 0.000000
vt -0.010000 0.897329 0.000000
vt 0.000000 0.897329 0.000000
vt -0.010000 0.972106 0.000000
vt 0.000000 0.972106 0.000000
vt -0.010000 1.046883 0.000000
vt 0.000000 1.046883 0.000000
vt -0.010000 1.121661 0.000000
vt 0.000000 1.121661 0.000000
vt -0.010000 1.196438 0.000000
vt 0.000000 1.196438 0.000000
vt -0.010000 1.271216 0.000000
vt 0.000000 1.271216 0.000000
vt -0.010000 1.345993 0.000000
vt 0.000000 1.345993 0.000000
vt -0.010000 1.420770 0.000000
vt 0.000000 1.420770 0.000000
vt -0.010000 1.495548 0.000000
vt 0.000000 1.495548 0.000000
vt -0.010000 1.570325 0.000000
vt 0.000000 1.570325 0.000000
vt -0.010000 1.645103 0.000000
vt 0.000000 1.645103 0.000000
vt -0.010000 1.719880 0.000000
vt 0.000000 1.719880 0.000000
vt -0.010000 1.794657 0.000000
vt 0.000000 1.794657 0.000000
vt -0.010000 1.869435 0.000000
vt 0.000000 1.869435 0.000000
vt -0.010000 1.944212 0.000000
vt 0.000000 1.944212 0.000000
vt -0.010000 2.018990 0.000000
vt 0.000000 2.018990 0.000000
vt -0.010000 2.093767 0.000000
vt 0.000000 2.093767 0.000000
vt -0.010000 2.168544 0.000000
vt 0.000000 2.168544 0.000000
vt -0.010000 2.243322 0.000000
vt 0.000000 2.243322 0.000000
vt -0.010000 2.318099 0.000000
vt 0.000000 2.318099 0.000000
vt 0.000000 2.392877 0.000000
vt -0.020000 2.392877 0.000000
vt -0.020000 2.318099 0.000000
vt -0.020000 2.243322 0.000000
vt -0.020000 2.168544 0.000000
vt -0.020000 2.093767 0.000000
vt -0.020000 2.018990 0.000000
vt -0.020000 1.944212 0.000000
vt -0.020000 1.869435 0.000000
vt -0.020000 1.794657 0.000000
vt -0.020000 1.719880 0.000000
vt -0.020000 1.645103 0.000000
vt -0.020000 1.570325 0.000000
vt -0.020000 1.495548 0.000000
vt -0.020000 1.420770 0.000000
vt -0.020000 1.345993 0.000000
vt -0.020000 1.271216 0.000000
vt -0.020000 1.196438 0.000000
vt -0.020000 1.121661 0.000000
vt -0.020000 1.046883 0.000000
vt -0.020000 0.972106 0.000000
vt -0.020000 0.897329 0.000000
vt -0.020000 0.822551 0.000000
vt -0.020000 0.747774 0.000000
vt -0.020000 0.672997 0.000000
vt -0.020000 0.598219 0.000000
vt -0.020000 0.523442 0.000000
vt -0.020000 0.448664 0.000000
vt -0.020000 0.299110 0.000000
vt -0.020000 0.133989 0.000000
vt -0.020000 0.000000 0.000000
vt -0.010000 0.133989 0.000000
vt 0.000000 0.000000 0.000000
vt 0.000000 0.133989 0.000000
vt -0.010000 0.267978 0.000000
vt 0.000000 0.267978 0.000000
vt -0.010000 0.401968 0.000000
vt 0.000000 0.401968 0.000000
vt -0.010000 0.468962 0.000000
vt 0.000000 0.468962 0.000000
vt -0.010000 0.535957 0.000000
vt 0.000000 0.535957 0.000000
vt -0.010000 0.602951 0.000000
vt 0.000000 0.602951 0.000000
vt -0.010000 0.669946 0.000000
vt 0.000000 0.669946 0.000000
vt -0.010000 0.736941 0.000000
vt 0.000000 0.736941 0.000000
vt -0.010000 0.803935 0.000000
vt 0.000000 0.803935 0.000000
vt -0.010000 0.870930 0.000000
vt 0.000000 0.870930 0.000000
vt -0.010000 0.937924 0.000000
vt 0.000000 0.937924 0.000000
vt -0.010000 1.004919 0.000000
vt 0.000000 1.004919 0.000000
vt -0.010000 1.071913 0.000000
vt 0.000000 1.071913 0.000000
vt -0.010000 1.138908 0.000000
vt 0.000000 1.138908 0.000000
vt -0.010000 1.205903 0.000000
vt 0.000000 1.205903 0.000000
vt -0.010000 1.272897 0.000000
vt 0.000000 1.272897 0.000000
vt -0.010000 1.339892 0.000000
vt 0.000000 1.339892 0.000000
vt -0.010000 1.406886 0.000000
vt 0.000000 1.406886 0.000000
vt -0.010000 1.473881 0.000000
vt 0.000000 1.473881 0.000000
vt -0.010000 1.540876 0.000000
vt 0.000000 1.540876 0.000000
vt -0.010000 1.607870 0.000000
vt 0.000000 1.607870 0.000000
vt -0.010000 1.674865 0.000000
vt 0.000000 1.674865 0.000000
vt -0.010000 1.741859 0.000000
vt 0.000000 1.741859 0.000000
vt -0.010000 1.808854 0.000000
vt 0.000000 1.808854 0.000000
vt -0.010000 1.875849 0.000000
vt 0.000000 1.875849 0.000000
vt -0.010000 1.942843 0.000000
vt 0.000000 1.942843 0.000000
vt -0.010000 2.009838 0.000000
vt 0.000000 2.009838 0.000000
vt -0.010000 2.076832 0.000000
vt 0.000000 2.076832 0.000000
vt 0.000000 2.143827 0.000000
vt -0.020000 2.143827 0.000000
vt -0.020000 2.076832 0.000000
vt -0.020000 2.009838 0.000000
vt -0.020000 1.942843 0.000000
vt -0.020000 1.875849 0.000000
vt -0.020000 1.808854 0.000000
vt -0.020000 1.741859 0.000000
vt -0.020000 1.674865 0.000000
vt -0.020000 1.607870 0.000000
vt -0.020000 1.540876 0.000000
vt -0.020000 1.473881 0.000000
vt -0.020000 1.406886 0.000000
vt -0.020000 1.339892 0.000000
vt -0.020000 1.272897 0.000000
vt -0.020000 1.205903 0.000000
vt -0.020000 1.138908 0.000000
vt -0.020000 1.071913 0.000000
vt -0.020000 1.004919 0.000000
vt -0.020000 0.937924 0.000000
vt -0.020000 0.870930 0.000000
vt -0.020000 0.803935 0.000000
vt -0.020000 0.736941 0.000000
vt -0.020000 0.669946 0.000000
vt -0.020000 0.602951 0.000000
vt -0.020000 0.535957 0.000000
vt -0.020000 0.468962 0.000000
vt -0.020000 0.401968 0.000000
vt -0.020000 0.267978 0.000000
vt 0.000000 0.000000 0.000000
vt 0.020000 0.000000 0.000000
vt 0.000000 0.500000 0.000000
vt 0.020000 0.500000 0.000000
vt -0.000000 0.000000 0.000000
vt 0.080000 0.000000 0.000000
vt -0.000000 0.500000 0.000000
vt 0.080000 0.500000 0.000000
vt -0.006665 0.643084 0.000000
vt 0.072932 0.650336 0.000000
vt -0.027457 0.784983 0.000000
vt 0.050901 0.800058 0.000000
vt -0.063567 0.922204 0.000000
vt 0.012194 0.946935 0.000000
vt -0.087740 0.987969 0.000000
vt -0.014010 1.018048 0.000000
vt -0.116189 1.051256 0.000000
vt -0.044962 1.086834 0.000000
vt -0.149099 1.111521 0.000000
vt -0.080800 1.152708 0.000000
vt -0.186520 1.168145 0.000000
vt -0.121659 1.215087 0.000000
vt -0.228303 1.220759 0.000000
vt -0.167675 1.273386 0.000000
vt -0.274294 1.268998 0.000000
vt -0.218889 1.326999 0.000000
vt -0.324337 1.312496 0.000000
vt -0.274907 1.375390 0.000000
vt -0.378279 1.350889 0.000000
vt -0.335311 1.418198 0.000000
vt -0.435904 1.383837 0.000000
vt -0.399692 1.455066 0.000000
vt -0.496783 1.411129 0.000000
vt -0.467640 1.485639 0.000000
vt -0.560549 1.432575 0.000000
vt -0.538721 1.509556 0.000000
vt -0.626841 1.447984 0.000000
vt -0.612320 1.526513 0.000000
vt -0.695297 1.457164 0.000000
vt -0.688036 1.536490 0.000000
vt -0.765534 1.459941 0.000000
vt -0.765525 1.539501 0.000000
vt -0.844442 1.535561 0.000000
vt -0.837311 1.456274 0.000000
vt -0.924444 1.524685 0.000000
vt -0.910438 1.446162 0.000000
vt -1.005186 1.506888 0.000000
vt -0.984726 1.429598 0.000000
vt -1.086325 1.482186 0.000000
vt -1.059987 1.406581 0.000000
vt -1.167559 1.450652 0.000000
vt -1.136032 1.377107 0.000000
vt -1.248859 1.412567 0.000000
vt -1.212681 1.341186 0.000000
vt -1.330216 1.368050 0.000000
vt -1.289849 1.298927 0.000000
vt -1.411610 1.317198 0.000000
vt -1.367488 1.250398 0.000000
vt -1.493023 1.260106 0.000000
vt -1.445549 1.195654 0.000000
vt -1.574435 1.196873 0.000000
vt -1.523979 1.134750 0.000000
vt -1.655828 1.127594 0.000000
vt -1.602728 1.067743 0.000000
vt -1.737183 1.052366 0.000000
vt -1.681746 0.994688 0.000000
vt -0.000000 0.000000 0.000000
vt 0.020000 0.000000 0.000000
vt -0.000000 0.500000 0.000000
vt 0.020000 0.500000 0.000000
vt 0.000000 0.000000 0.000000
vt 0.080000 0.000000 0.000000
vt 0.000000 0.500000 0.000000
vt 0.080000 0.500000 0.000000
vt 0.086665 0.643084 0.000000
vt 0.007068 0.650336 0.000000
vt 0.107457 0.784983 0.000000
vt 0.029099 0.800058 0.000000
vt 0.143567 0.922204 0.000000
vt 0.067806 0.946935 0.000000
vt 0.167740 0.987969 0.000000
vt 0.094010 1.018048 0.000000
vt 0.196189 1.051256 0.000000
vt 0.124962 1.086834 0.000000
vt 0.229099 1.111521 0.000000
vt 0.160800 1.152708 0.000000
vt 0.266520 1.168145 0.000000
vt 0.201659 1.215087 0.000000
vt 0.308303 1.220759 0.000000
vt 0.247675 1.273386 0.000000
vt 0.354294 1.268998 0.000000
vt 0.298889 1.326999 0.000000
vt 0.404337 1.312496 0.000000
vt 0.354907 1.375390 0.000000
vt 0.458279 1.350889 0.000000
vt 0.415311 1.418198 0.000000
vt 0.515904 1.383837 0.000000
vt 0.479692 1.455066 0.000000
vt 0.576783 1.411129 0.000000
vt 0.547640 1.485639 0.000000
vt 0.640549 1.432575 0.000000
vt 0.618721 1.509556 0.000000
vt 0.706841 1.447984 0.000000
vt 0.692320 1.526513 0.000000
vt 0.775297 1.457164 0.000000
vt 0.768036 1.536490 0.000000
vt 0.845534 1.459941 0.000000
vt 0.845525 1.539501 0.000000
vt 0.924442 1.535561 0.000000
vt 0.917311 1.456274 0.000000
vt 1.004444 1.524685 0.000000
vt 0.990438 1.446162 0.000000
vt 1.085186 1.506888 0.000000
vt 1.064726 1.429598 0.000000
vt 1.166325 1.482186 0.000000
vt 1.139987 1.406581 0.000000
vt 1.247559 1.450652 0.000000
vt 1.216032 1.377107 0.000000
vt 1.328859 1.412567 0.000000
vt 1.292681 1.341186 0.000000
vt 1.410216 1.368050 0.000000
vt 1.369849 1.298927 0.000000
vt 1.491610 1.317198 0.000000
vt 1.447488 1.250398 0.000000
vt 1.573023 1.260106 0.000000
vt 1.525549 1.195654 0.000000
vt 1.654435 1.196873 0.000000
vt 1.603979 1.134750 0.000000
vt 1.735828 1.127594 0.000000
vt 1.682728 1.067743 0.000000
vt 1.817183 1.052366 0.000000
vt 1.761746 0.994688 0.000000
vt -0.040000 -0.010000 0.000000
vt 0.040000 -0.010000 0.000000
vt -0.040000 0.010000 0.000000
vt 0.040000 0.010000 0.000000
vt -0.040000 -0.010000 0.000000
vt 0.040000 -0.010000 0.000000
vt -0.040000 0.010000 0.000000
vt 0.040000 0.010000 0.000000
vn -0.995480 0.094976 0.000000
vn -1.000000 -0.000000 0.000000
vn -0.995480 0.094976 0.000000
vn -1.000000 -0.000000 0.000000
vn -0.995480 0.094976 0.000000
vn -0.980372 0.197156 0.000000
vn -0.980372 0.197156 0.000000
vn -0.949288 0.314408 0.000000
vn -0.949288 0.314408 0.000000
vn -0.926011 0.377497 0.000000
vn -0.926011 0.377497 0.000000
vn -0.896233 0.443583 0.000000
vn -0.896233 0.443583 0.000000
vn -0.858720 0.512445 0.000000
vn -0.858720 0.512445 0.000000
vn -0.812166 0.583427 0.000000
vn -0.812166 0.583427 0.000000
vn -0.755353 0.655318 0.000000
vn -0.755353 0.655318 0.000000
vn -0.689184 0.724586 0.000000
vn -0.689184 0.724586 0.000000
vn -0.616716 0.787186 0.000000
vn -0.616716 0.787186 0.000000
vn -0.538306 0.842750 0.000000
vn -0.538306 0.842750 0.000000
vn -0.454338 0.890829 0.000000
vn -0.454338 0.890829 0.000000
vn -0.365268 0.930902 0.000000
vn -0.365268 0.930902 0.000000
vn -0.271774 0.962361 0.000000
vn -0.271774 0.962361 0.000000
vn -0.177358 0.984146 0.000000
vn -0.177358 0.984146 0.000000
vn -0.084375 0.996434 0.000000
vn -0.084375 0.996434 0.000000
vn 0.005968 0.999982 -0.000000
vn 0.005968 0.999982 -0.000000
vn 0.092790 0.995686 -0.000000
vn 0.092790 0.995686 -0.000000
vn 0.175509 0.984478 -0.000000
vn 0.175509 0.984478 -0.000000
vn 0.253787 0.967260 -0.000000
vn 0.253787 0.967260 -0.000000
vn 0.327473 0.944861 -0.000000
vn 0.327473 0.944861 -0.000000
vn 0.393999 0.919111 -0.000000
vn 0.393999 0.919111 -0.000000
vn 0.452915 0.891554 -0.000000
vn 0.452915 0.891554 -0.000000
vn 0.505689 0.862716 -0.000000
vn 0.505689 0.862716 -0.000000
vn 0.552692 0.833385 -0.000000
vn 0.552692 0.833385 -0.000000
vn 0.594402 0.804168 -0.000000
vn 0.594402 0.804168 -0.000000
vn 0.631339 0.775507 -0.000000
vn 0.631339 0.775507 -0.000000
vn 0.664027 0.747709 -0.000000
vn 0.664027 0.747709 -0.000000
vn 0.692965 0.720971 -0.000000
vn 0.692965 0.720971 -0.000000
vn 0.664027 0.747709 -0.000000
vn 0.631339 0.775507 -0.000000
vn 0.594402 0.804168 -0.000000
vn 0.552692 0.833385 -0.000000
vn 0.505689 0.862716 -0.000000
vn 0.452915 0.891554 -0.000000
vn 0.393999 0.919111 -0.000000
vn 0.327473 0.944861 -0.000000
vn 0.253787 0.967260 -0.000000
vn 0.175509 0.984478 -0.000000
vn 0.092790 0.995686 -0.000000
vn 0.005968 0.999982 -0.000000
vn -0.084375 0.996434 0.000000
vn -0.177358 0.984146 0.000000
vn -0.271774 0.962361 0.000000
vn -0.365268 0.930902 0.000000
vn -0.454338 0.890829 0.000000
vn -0.538306 0.842750 0.000000
vn -0.616716 0.787186 0.000000
vn -0.689184 0.724586 0.000000
vn -0.755353 0.655318 0.000000
vn -0.812166 0.583427 0.000000
vn -0.858720 0.512445 0.000000
vn -0.896233 0.443583 0.000000
vn -0.926011 0.377497 0.000000
vn -0.949288 0.314408 0.000000
vn -0.980372 0.197156 0.000000
vn 0.995559 -0.094143 0.000000
vn 1.000000 0.000000 0.000000
vn 0.995559 -0.094143 0.000000
vn 1.000000 0.000000 0.000000
vn 0.995559 -0.094143 0.000000
vn 0.980279 -0.197620 0.000000
vn 0.980279 -0.197620 0.000000
vn 0.949543 -0.313636 0.000000
vn 0.949543 -0.313636 0.000000
vn 0.926251 -0.376907 0.000000
vn 0.926251 -0.376907 0.000000
vn 0.896232 -0.443586 0.000000
vn 0.896232 -0.443586 0.000000
vn 0.856950 -0.515399 0.000000
vn 0.856950 -0.515399 0.000000
vn 0.809717 -0.586821 0.000000
vn 0.809717 -0.586821 0.000000
vn 0.754525 -0.656271 0.000000
vn 0.754525 -0.656271 0.000000
vn 0.691027 -0.722829 0.000000
vn 0.691027 -0.722829 0.000000
vn 0.619079 -0.785329 0.000000
vn 0.619079 -0.785329 0.000000
vn 0.538857 -0.842397 0.000000
vn 0.538857 -0.842397 0.000000
vn 0.453131 -0.891444 0.000000
vn 0.453131 -0.891444 0.000000
vn 0.364274 -0.931292 0.000000
vn 0.364274 -0.931292 0.000000
vn 0.272844 -0.962058 0.000000
vn 0.272844 -0.962058 0.000000
vn 0.179817 -0.983700 0.000000
vn 0.179817 -0.983700 0.000000
vn 0.086084 -0.996288 0.000000
vn 0.086084 -0.996288 0.000000
vn -0.006252 -0.999980 -0.000000
vn -0.006252 -0.999980 -0.000000
vn -0.094615 -0.995514 -0.000000
vn -0.094615 -0.995514 -0.000000
vn -0.177985 -0.984033 -0.000000
vn -0.177985 -0.984033 -0.000000
vn -0.255746 -0.966744 -0.000000
vn -0.255746 -0.966744 -0.000000
vn -0.327633 -0.944805 -0.000000
vn -0.327633 -0.944805 -0.000000
vn -0.393646 -0.919262 -0.000000
vn -0.393646 -0.919262 -0.000000
vn -0.453206 -0.891406 -0.000000
vn -0.453206 -0.891406 -0.000000
vn -0.505915 -0.862583 -0.000000
vn -0.505915 -0.862583 -0.000000
vn -0.552774 -0.833332 -0.000000
vn -0.552774 -0.833332 -0.000000
vn -0.594346 -0.804210 -0.000000
vn -0.594346 -0.804210 -0.000000
vn -0.631207 -0.775615 -0.000000
vn -0.631207 -0.775615 -0.000000
vn -0.663910 -0.747813 -0.000000
vn -0.663910 -0.747813 -0.000000
vn -0.692965 -0.720971 -0.000000
vn -0.692965 -0.720971 -0.000000
vn -0.663910 -0.747813 -0.000000
vn -0.631207 -0.775615 -0.000000
vn -0.594346 -0.804210 -0.000000
vn -0.552774 -0.833332 -0.000000
vn -0.505915 -0.862583 -0.000000
vn -0.453206 -0.891406 -0.000000
vn -0.393646 -0.919262 -0.000000
vn -0.327633 -0.944805 -0.000000
vn -0.255746 -0.966744 -0.000000
vn -0.177985 -0.984033 -0.000000
vn -0.094615 -0.995514 -0.000000
vn -0.006252 -0.999980 -0.000000
vn 0.086084 -0.996288 0.000000
vn 0.179817 -0.983700 0.000000
vn 0.272844 -0.962058 0.000000
vn 0.364274 -0.931292 0.000000
vn 0.453131 -0.891444 0.000000
vn 0.538857 -0.842397 0.000000
vn 0.619079 -0.785329 0.000000
vn 0.691027 -0.722829 0.000000
vn 0.754525 -0.656271 0.000000
vn 0.809717 -0.586821 0.000000
vn 0.856950 -0.515399 0.000000
vn 0.896232 -0.443586 0.000000
vn 0.926251 -0.376907 0.000000
vn 0.949543 -0.313636 0.000000
vn 0.980279 -0.197620 0.000000
vn -1.000000 0.000000 0.000000
vn -1.000000 0.000000 0.000000
vn -1.000000 0.000000 0.000000
vn -1.000000 0.000000 0.000000
vn 0.000000 0.000000 -1.000000
vn 0.000000 0.000000 -1.000000
vn 0.000000 0.000000 -1.000000
vn 0.000000 0.000000 -1.000000
vn 0.000000 0.000000 -1.000000
vn 0.000000 0.000000 -1.000000
vn 0.000000 0.000000 -1.000000
vn 0.000000 0.000000 -1.000000
vn 0.000000 0.000000 -1.000000
vn 0.000000 0.000000 -1.000000
vn 0.000000 0.000000 -1.000000
vn 0.000000 0.000000 -1.000000
vn 0.000000 0.000000 -1.000000
vn 0.000000 0.000000 -1.000000
vn 0.000000 0.000000 -1.000000
vn 0.000000 0.000000 -1.000000
vn 0.000000 0.000000 -1.000000
vn 0.000000 0.000000 -1.000000
vn 0.000000 0.000000 -1.000000
vn 0.000000 0.000000 -1.000000
vn 0.000000 0.000000 -1.000000
vn 0.000000 0.000000 -1.000000
vn 0.000000 0.000000 -1.000000
vn 0.000000 0.000000 -1.000000
vn 0.000000 0.000000 -1.000000
vn 0.000000 0.000000 -1.000000
vn 0.000000 0.000000 -1.000000
vn 0.000000 0.000000 -1.000000
vn 0.000000 0.000000 -1.000000
vn 0.000000 0.000000 -1.000000
vn 0.000000 0.000000 -1.000000
vn 0.000000 0.000000 -1.000000
vn 0.000000 0.000000 -1.000000
vn 0.000000 0.000000 -1.000000
vn 0.000000 0.000000 -1.000000
vn 0.000000 0.000000 -1.000000
vn 0.000000 0.000000 -1.000000
vn 0.000000 0.000000 -1.000000
vn 0.000000 0.000000 -1.000000
vn 0.000000 0.000000 -1.000000
vn 0.000000 0.000000 -1.000000
vn 0.000000 0.000000 -1.000000
vn 0.000000 0.000000 -1.000000
vn 0.000000 0.000000 -1.000000
vn 0.000000 0.000000 -1.000000
vn 0.000000 0.000000 -1.000000
vn 0.000000 0.000000 -1.000000
vn 0.000000 0.000000 -1.000000
vn 0.000000 0.000000 -1.000000
vn 0.000000 0.000000 -1.000000
vn 0.000000 0.000000 -1.000000
vn 0.000000 0.000000 -1.000000
vn 0.000000 0.000000 -1.000000
vn 0.000000 0.000000 -1.000000
vn 0.000000 0.000000 -1.000000
vn 0.000000 0.000000 -1.000000
vn 0.000000 0.000000 -1.000000
vn 0.000000 0.000000 -1.000000
vn 0.000000 0.000000 -1.000000
vn 0.000000 0.000000 -1.000000
vn 0.000000 0.000000 -1.000000
vn 0.000000 0.000000 -1.000000
vn 1.000000 0.000000 0.000000
vn 1.000000 0.000000 0.000000
vn 1.000000 0.000000 0.000000
vn 1.000000 0.000000 0.000000
vn 0.000000 -0.000000 1.000000
vn 0.000000 -0.000000 1.000000
vn 0.000000 -0.000000 1.000000
vn 0.000000 -0.000000 1.000000
vn 0.000000 -0.000000 1.000000
vn 0.000000 -0.000000 1.000000
vn 0.000000 -0.000000 1.000000
vn 0.000000 -0.000000 1.000000
vn 0.000000 -0.000000 1.000000
vn 0.000000 -0.000000 1.000000
vn 0.000000 -0.000000 1.000000
vn 0.000000 -0.000000 1.000000
vn 0.000000 -0.000000 1.000000
vn 0.000000 -0.000000 1.000000
vn 0.000000 -0.000000 1.000000
vn 0.000000 -0.000000 1.000000
vn 0.000000 -0.000000 1.000000
vn 0.000000 -0.000000 1.000000
vn 0.000000 -0.000000 1.000000
vn 0.000000 -0.000000 1.000000
vn 0.000000 -0.000000 1.000000
vn 0.000000 -0.000000 1.000000
vn 0.000000 -0.000000 1.000000
vn 0.000000 -0.000000 1.000000
vn 0.000000 -0.000000 1.000000
vn 0.000000 -0.000000 1.000000
vn 0.000000 -0.000000 1.000000
vn 0.000000 -0.000000 1.000000
vn 0.000000 -0.000000 1.000000
vn 0.000000 -0.000000 1.000000
vn 0.000000 -0.000000 1.000000
vn 0.000000 -0.000000 1.000000
vn 0.000000 -0.000000 1.000000
vn 0.000000 -0.000000 1.000000
vn 0.000000 -0.000000 1.000000
vn 0.000000 -0.000000 1.000000
vn 0.000000 -0.000000 1.000000
vn 0.000000 -0.000000 1.000000
vn 0.000000 -0.000000 1.000000
vn 0.000000 -0.000000 1.000000
vn 0.000000 -0.000000 1.000000
vn 0.000000 -0.000000 1.000000
vn 0.000000 -0.000000 1.000000
vn 0.000000 -0.000000 1.000000
vn 0.000000 -0.000000 1.000000
vn 0.000000 -0.000000 1.000000
vn 0.000000 -0.000000 1.000000
vn 0.000000 -0.000000 1.000000
vn 0.000000 -0.000000 1.000000
vn 0.000000 -0.000000 1.000000
vn 0.000000 -0.000000 1.000000
vn 0.000000 -0.000000 1.000000
vn 0.000000 -0.000000 1.000000
vn 0.000000 -0.000000 1.000000
vn 0.000000 -0.000000 1.000000
vn 0.000000 -0.000000 1.000000
vn 0.000000 -0.000000 1.000000
vn 0.000000 -0.000000 1.000000
vn 0.000000 -0.000000 1.000000
vn 0.000000 -0.000000 1.000000
vn 0.000000 -0.000000 1.000000
vn 0.000000 -0.000000 1.000000
vn 0.720971 -0.692965 0.000000
vn 0.720971 -0.692965 0.000000
vn 0.720971 -0.692965 0.000000
vn 0.720971 -0.692965 0.000000
vn -0.000000 -1.000000 -0.000000
vn -0.000000 -1.000000 -0.000000
vn -0.000000 -1.000000 -0.000000
vn -0.000000 -1.000000 -0.000000
usemtl Steel_-_Satin
f 60/1/1 1/2/2 61/3/3
f 61/3/3 1/2/2 2/4/4
f 61/3/3 2/4/4 3/5/5
f 61/3/3 3/5/5 62/6/6
f 62/6/6 3/5/5 4/7/7
f 62/6/6 4/7/7 63/8/8
f 63/8/8 4/7/7 5/9/9
f 63/8/8 5/9/9 64/10/10
f 64/10/10 5/9/9 6/11/11
f 64/10/10 6/11/11 65/12/12
f 65/12/12 6/11/11 7/13/13
f 65/12/12 7/13/13 66/14/14
f 66/14/14 7/13/13 8/15/15
f 66/14/14 8/15/15 67/16/16
f 67/16/16 8/15/15 9/17/17
f 67/16/16 9/17/17 68/18/18
f 68/18/18 9/17/17 10/19/19
f 68/18/18 10/19/19 69/20/20
f 69/20/20 10/19/19 11/21/21
f 69/20/20 11/21/21 70/22/22
f 70/22/22 11/21/21 12/23/23
f 70/22/22 12/23/23 71/24/24
f 71/24/24 12/23/23 13/25/25
f 71/24/24 13/25/25 72/26/26
f 72/26/26 13/25/25 14/27/27
f 72/26/26 14/27/27 73/28/28
f 73/28/28 14/27/27 15/29/29
f 73/28/28 15/29/29 74/30/30
f 74/30/30 15/29/29 16/31/31
f 74/30/30 16/31/31 75/32/32
f 75/32/32 16/31/31 17/33/33
f 75/32/32 17/33/33 76/34/34
f 76/34/34 17/33/33 18/35/35
f 76/34/34 18/35/35 77/36/36
f 77/36/36 18/35/35 19/37/37
f 77/36/36 19/37/37 78/38/38
f 78/38/38 19/37/37 20/39/39
f 78/38/38 20/39/39 79/40/40
f 79/40/40 20/39/39 21/41/41
f 79/40/40 21/41/41 80/42/42
f 80/42/42 21/41/41 22/43/43
f 80/42/42 22/43/43 81/44/44
f 81/44/44 22/43/43 23/45/45
f 81/44/44 23/45/45 82/46/46
f 82/46/46 23/45/45 24/47/47
f 82/46/46 24/47/47 83/48/48
f 83/48/48 24/47/47 25/49/49
f 83/48/48 25/49/49 84/50/50
f 84/50/50 25/49/49 26/51/51
f 84/50/50 26/51/51 85/52/52
f 85/52/52 26/51/51 27/53/53
f 85/52/52 27/53/53 86/54/54
f 86/54/54 27/53/53 28/55/55
f 86/54/54 28/55/55 87/56/56
f 87/56/56 28/55/55 29/57/57
f 87/56/56 29/57/57 88/58/58
f 88/58/58 29/57/57 30/59/59
f 88/58/58 30/59/59 31/60/60
f 31/60/60 32/61/61 88/58/58
f 88/58/58 32/61/61 33/62/62
f 88/58/58 33/62/62 87/56/56
f 87/56/56 33/62/62 34/63/63
f 87/56/56 34/63/63 86/54/54
f 86/54/54 34/63/63 35/64/64
f 86/54/54 35/64/64 85/52/52
f 85/52/52 35/64/64 36/65/65
f 85/52/52 36/65/65 84/50/50
f 84/50/50 36/65/65 37/66/66
f 84/50/50 37/66/66 83/48/48
f 83/48/48 37/66/66 38/67/67
f 83/48/48 38/67/67 82/46/46
f 82/46/46 38/67/67 39/68/68
f 82/46/46 39/68/68 81/44/44
f 81/44/44 39/68/68 40/69/69
f 81/44/44 40/69/69 80/42/42
f 80/42/42 40/69/69 41/70/70
f 80/42/42 41/70/70 79/40/40
f 79/40/40 41/70/70 42/71/71
f 79/40/40 42/71/71 78/38/38
f 78/38/38 42/71/71 43/72/72
f 78/38/38 43/72/72 77/36/36
f 77/36/36 43/72/72 44/73/73
f 77/36/36 44/73/73 76/34/34
f 76/34/34 44/73/73 45/74/74
f 76/34/34 45/74/74 75/32/32
f 75/32/32 45/74/74 46/75/75
f 75/32/32 46/75/75 74/30/30
f 74/30/30 46/75/75 47/76/76
f 74/30/30 47/76/76 73/28/28
f 73/28/28 47/76/76 48/77/77
f 73/28/28 48/77/77 72/26/26
f 72/26/26 48/77/77 49/78/78
f 72/26/26 49/78/78 71/24/24
f 71/24/24 49/78/78 50/79/79
f 71/24/24 50/79/79 70/22/22
f 70/22/22 50/79/79 51/80/80
f 70/22/22 51/80/80 69/20/20
f 69/20/20 51/80/80 52/81/81
f 69/20/20 52/81/81 68/18/18
f 68/18/18 52/81/81 53/82/82
f 68/18/18 53/82/82 67/16/16
f 67/16/16 53/82/82 54/83/83
f 67/16/16 54/83/83 66/14/14
f 66/14/14 54/83/83 55/84/84
f 66/14/14 55/84/84 65/12/12
f 65/12/12 55/84/84 56/85/85
f 65/12/12 56/85/85 64/10/10
f 64/10/10 56/85/85 57/86/86
f 64/10/10 57/86/86 63/8/8
f 63/8/8 57/86/86 58/87/87
f 63/8/8 58/87/87 62/6/6
f 62/6/6 58/87/87 59/88/88
f 62/6/6 59/88/88 61/3/3
f 61/3/3 59/88/88 60/1/1
f 148/89/89 89/90/90 149/91/91
f 149/91/91 89/90/90 90/92/92
f 149/91/91 90/92/92 91/93/93
f 149/91/91 91/93/93 150/94/94
f 150/94/94 91/93/93 92/95/95
f 150/94/94 92/95/95 151/96/96
f 151/96/96 92/95/95 93/97/97
f 151/96/96 93/97/97 152/98/98
f 152/98/98 93/97/97 94/99/99
f 152/98/98 94/99/99 153/100/100
f 153/100/100 94/99/99 95/101/101
f 153/100/100 95/101/101 154/102/102
f 154/102/102 95/101/101 96/103/103
f 154/102/102 96/103/103 155/104/104
f 155/104/104 96/103/103 97/105/105
f 155/104/104 97/105/105 156/106/106
f 156/106/106 97/105/105 98/107/107
f 156/106/106 98/107/107 157/108/108
f 157/108/108 98/107/107 99/109/109
f 157/108/108 99/109/109 158/110/110
f 158/110/110 99/109/109 100/111/111
f 158/110/110 100/111/111 159/112/112
f 159/112/112 100/111/111 101/113/113
f 159/112/112 101/113/113 160/114/114
f 160/114/114 101/113/113 102/115/115
f 160/114/114 102/115/115 161/116/116
f 161/116/116 102/115/115 103/117/117
f 161/116/116 103/117/117 162/118/118
f 162/118/118 103/117/117 104/119/119
f 162/118/118 104/119/119 163/120/120
f 163/120/120 104/119/119 105/121/121
f 163/120/120 105/121/121 164/122/122
f 164/122/122 105/121/121 106/123/123
f 164/122/122 106/123/123 165/124/124
f 165/124/124 106/123/123 107/125/125
f 165/124/124 107/125/125 166/126/126
f 166/126/126 107/125/125 108/127/127
f 166/126/126 108/127/127 167/128/128
f 167/128/128 108/127/127 109/129/129
f 167/128/128 109/129/129 168/130/130
f 168/130/130 109/129/129 110/131/131
f 168/130/130 110/131/131 169/132/132
f 169/132/132 110/131/131 111/133/133
f 169/132/132 111/133/133 170/134/134
f 170/134/134 111/133/133 112/135/135
f 170/134/134 112/135/135 171/136/136
f 171/136/136 112/135/135 113/137/137
f 171/136/136 113/137/137 172/138/138
f 172/138/138 113/137/137 114/139/139
f 172/138/138 114/139/139 173/140/140
f 173/140/140 114/139/139 115/141/141
f 173/140/140 115/141/141 174/142/142
f 174/142/142 115/141/141 116/143/143
f 174/142/142 116/143/143 175/144/144
f 175/144/144 116/143/143 117/145/145
f 175/144/144 117/145/145 176/146/146
f 176/146/146 117/145/145 118/147/147
f 176/146/146 118/147/147 119/148/148
f 119/148/148 120/149/149 176/146/146
f 176/146/146 120/149/149 121/150/150
f 176/146/146 121/150/150 175/144/144
f 175/144/144 121/150/150 122/151/151
f 175/144/144 122/151/151 174/142/142
f 174/142/142 122/151/151 123/152/152
f 174/142/142 123/152/152 173/140/140
f 173/140/140 123/152/152 124/153/153
f 173/140/140 124/153/153 172/138/138
f 172/138/138 124/153/153 125/154/154
f 172/138/138 125/154/154 171/136/136
f 171/136/136 125/154/154 126/155/155
f 171/136/136 126/155/155 170/134/134
f 170/134/134 126/155/155 127/156/156
f 170/134/134 127/156/156 169/132/132
f 169/132/132 127/156/156 128/157/157
f 169/132/132 128/157/157 168/130/130
f 168/130/130 128/157/157 129/158/158
f 168/130/130 129/158/158 167/128/128
f 167/128/128 129/158/158 130/159/159
f 167/128/128 130/159/159 166/126/126
f 166/126/126 130/159/159 131/160/160
f 166/126/126 131/160/160 165/124/124
f 165/124/124 131/160/160 132/161/161
f 165/124/124 132/161/161 164/122/122
f 164/122/122 132/161/161 133/162/162
f 164/122/122 133/162/162 163/120/120
f 163/120/120 133/162/162 134/163/163
f 163/120/120 134/163/163 162/118/118
f 162/118/118 134/163/163 135/164/164
f 162/118/118 135/164/164 161/116/116
f 161/116/116 135/164/164 136/165/165
f 161/116/116 136/165/165 160/114/114
f 160/114/114 136/165/165 137/166/166
f 160/114/114 137/166/166 159/112/112
f 159/112/112 137/166/166 138/167/167
f 159/112/112 138/167/167 158/110/110
f 158/110/110 138/167/167 139/168/168
f 158/110/110 139/168/168 157/108/108
f 157/108/108 139/168/168 140/169/169
f 157/108/108 140/169/169 156/106/106
f 156/106/106 140/169/169 141/170/170
f 156/106/106 141/170/170 155/104/104
f 155/104/104 141/170/170 142/171/171
f 155/104/104 142/171/171 154/102/102
f 154/102/102 142/171/171 143/172/172
f 154/102/102 143/172/172 153/100/100
f 153/100/100 143/172/172 144/173/173
f 153/100/100 144/173/173 152/98/98
f 152/98/98 144/173/173 145/174/174
f 152/98/98 145/174/174 151/96/96
f 151/96/96 145/174/174 146/175/175
f 151/96/96 146/175/175 150/94/94
f 150/94/94 146/175/175 147/176/176
f 150/94/94 147/176/176 149/91/91
f 149/91/91 147/176/176 148/89/89
f 177/177/177 178/178/178 1/179/179
f 1/179/179 178/178/178 2/180/180
f 179/181/181 177/182/182 90/183/183
f 90/183/183 177/182/182 1/184/184
f 90/183/183 1/184/184 91/185/185
f 91/185/185 1/184/184 60/186/186
f 91/185/185 60/186/186 92/187/187
f 92/187/187 60/186/186 59/188/188
f 92/187/187 59/188/188 93/189/189
f 93/189/189 59/188/188 58/190/190
f 93/189/189 58/190/190 94/191/191
f 94/191/191 58/190/190 57/192/192
f 94/191/191 57/192/192 95/193/193
f 95/193/193 57/192/192 56/194/194
f 95/193/193 56/194/194 96/195/195
f 96/195/195 56/194/194 55/196/196
f 96/195/195 55/196/196 97/197/197
f 97/197/197 55/196/196 54/198/198
f 97/197/197 54/198/198 98/199/199
f 98/199/199 54/198/198 53/200/200
f 98/199/199 53/200/200 99/201/201
f 99/201/201 53/200/200 52/202/202
f 99/201/201 52/202/202 100/203/203
f 100/203/203 52/202/202 51/204/204
f 100/203/203 51/204/204 101/205/205
f 101/205/205 51/204/204 50/206/206
f 101/205/205 50/206/206 102/207/207
f 102/207/207 50/206/206 49/208/208
f 102/207/207 49/208/208 103/209/209
f 103/209/209 49/208/208 48/210/210
f 103/209/209 48/210/210 104/211/211
f 104/211/211 48/210/210 47/212/212
f 104/211/211 47/212/212 105/213/213
f 105/213/213 47/212/212 46/214/214
f 105/213/213 46/214/214 106/215/215
f 106/215/215 46/214/214 45/216/216
f 106/215/215 45/216/216 107/217/217
f 107/217/217 45/216/216 44/218/218
f 107/217/217 44/218/218 43/219/219
f 107/217/217 43/219/219 108/220/220
f 108/220/220 43/219/219 42/221/221
f 108/220/220 42/221/221 109/222/222
f 109/222/222 42/221/221 41/223/223
f 109/222/222 41/223/223 110/224/224
f 110/224/224 41/223/223 40/225/225
f 110/224/224 40/225/225 111/226/226
f 111/226/226 40/225/225 39/227/227
f 111/226/226 39/227/227 112/228/228
f 112/228/228 39/227/227 38/229/229
f 112/228/228 38/229/229 113/230/230
f 113/230/230 38/229/229 37/231/231
f 113/230/230 37/231/231 114/232/232
f 114/232/232 37/231/231 36/233/233
f 114/232/232 36/233/233 115/234/234
f 115/234/234 36/233/233 35/235/235
f 115/234/234 35/235/235 116/236/236
f 116/236/236 35/235/235 34/237/237
f 116/236/236 34/237/237 117/238/238
f 117/238/238 34/237/237 33/239/239
f 117/238/238 33/239/239 118/240/240
f 118/240/240 33/239/239 32/241/241
f 118/240/240 32/241/241 119/242/242
f 180/243/243 179/244/244 89/245/245
f 89/245/245 179/244/244 90/246/246
f 178/247/247 180/248/248 2/249/249
f 2/249/249 180/248/248 89/250/250
f 2/249/249 89/250/250 148/251/251
f 2/249/249 148/251/251 3/252/252
f 3/252/252 148/251/251 147/253/253
f 3/252/252 147/253/253 4/254/254
f 4/254/254 147/253/253 146/255/255
f 4/254/254 146/255/255 5/256/256
f 5/256/256 146/255/255 145/257/257
f 5/256/256 145/257/257 6/258/258
f 6/258/258 145/257/257 144/259/259
f 6/258/258 144/259/259 7/260/260
f 7/260/260 144/259/259 143/261/261
f 7/260/260 143/261/261 8/262/262
f 8/262/262 143/261/261 142/263/263
f 8/262/262 142/263/263 9/264/264
f 9/264/264 142/263/263 141/265/265
f 9/264/264 141/265/265 10/266/266
f 10/266/266 141/265/265 140/267/267
f 10/266/266 140/267/267 11/268/268
f 11/268/268 140/267/267 139/269/269
f 11/268/268 139/269/269 12/270/270
f 12/270/270 139/269/269 138/271/271
f 12/270/270 138/271/271 13/272/272
f 13/272/272 138/271/271 137/273/273
f 13/272/272 137/273/273 14/274/274
f 14/274/274 137/273/273 136/275/275
f 14/274/274 136/275/275 15/276/276
f 15/276/276 136/275/275 135/277/277
f 15/276/276 135/277/277 16/278/278
f 16/278/278 135/277/277 134/279/279
f 16/278/278 134/279/279 17/280/280
f 17/280/280 134/279/279 133/281/281
f 17/280/280 133/281/281 18/282/282
f 18/282/282 133/281/281 132/283/283
f 18/282/282 132/283/283 19/284/284
f 19/284/284 132/283/283 20/285/285
f 20/285/285 132/283/283 131/286/286
f 20/285/285 131/286/286 21/287/287
f 21/287/287 131/286/286 130/288/288
f 21/287/287 130/288/288 22/289/289
f 22/289/289 130/288/288 129/290/290
f 22/289/289 129/290/290 23/291/291
f 23/291/291 129/290/290 128/292/292
f 23/291/291 128/292/292 24/293/293
f 24/293/293 128/292/292 127/294/294
f 24/293/293 127/294/294 25/295/295
f 25/295/295 127/294/294 126/296/296
f 25/295/295 126/296/296 26/297/297
f 26/297/297 126/296/296 125/298/298
f 26/297/297 125/298/298 27/299/299
f 27/299/299 125/298/298 124/300/300
f 27/299/299 124/300/300 28/301/301
f 28/301/301 124/300/300 123/302/302
f 28/301/301 123/302/302 29/303/303
f 29/303/303 123/302/302 122/304/304
f 29/303/303 122/304/304 30/305/305
f 30/305/305 122/304/304 121/306/306
f 30/305/305 121/306/306 31/307/307
f 31/307/307 121/306/306 120/308/308
f 31/309/309 120/310/310 32/311/311
f 32/311/311 120/310/310 119/312/312
f 180/313/313 178/314/314 179/315/315
f 179/315/315 178/314/314 177/316/316
# 180 vertices
# 316 texture params
# 316 normals
# 356 facets

# 1 groups
