# WaveFront *.obj file (generated by Autodesk ATF)

mtllib best_wifi.mtl

g Body1

v -1.000000 0.700000 0.000000
v -0.400000 0.350000 0.000000
v -0.400000 0.350000 0.050000
v -1.000000 0.700000 0.050000
v 1.000000 0.700000 0.000000
v 1.000000 0.700000 0.050000
v 0.400000 0.350000 0.000000
v 0.400000 0.350000 0.050000
v 0.400000 0.000000 0.000000
v 0.400000 0.000000 0.050000
v -0.400000 0.000000 0.000000
v -0.400000 0.000000 0.050000
vt 0.000000 0.000000 0.000000
vt 0.694622 0.000000 0.000000
vt 0.000000 0.050000 0.000000
vt 0.694622 0.050000 0.000000
vt -0.000000 0.000000 0.000000
vt 2.000000 0.000000 0.000000
vt -0.000000 0.050000 0.000000
vt 2.000000 0.050000 0.000000
vt 0.000000 0.000000 0.000000
vt 0.694622 0.000000 0.000000
vt 0.000000 0.050000 0.000000
vt 0.694622 0.050000 0.000000
vt 0.000000 0.000000 0.000000
vt 0.350000 0.000000 0.000000
vt 0.000000 0.050000 0.000000
vt 0.350000 0.050000 0.000000
vt 0.000000 0.000000 0.000000
vt 0.800000 0.000000 0.000000
vt 0.000000 0.050000 0.000000
vt 0.800000 0.050000 0.000000
vt 0.000000 0.000000 0.000000
vt 0.350000 0.000000 0.000000
vt 0.000000 0.050000 0.000000
vt 0.350000 0.050000 0.000000
vt -0.400000 -0.350000 0.000000
vt 0.400000 -0.350000 0.000000
vt -0.400000 0.000000 0.000000
vt 0.400000 0.000000 0.000000
vt -1.000000 0.350000 0.000000
vt 1.000000 0.350000 0.000000
vt -0.400000 -0.350000 0.000000
vt 0.400000 -0.350000 0.000000
vt -0.400000 0.000000 0.000000
vt 0.400000 0.000000 0.000000
vt -1.000000 0.350000 0.000000
vt 1.000000 0.350000 0.000000
vn -0.503871 -0.863779 0.000000
vn -0.503871 -0.863779 0.000000
vn -0.503871 -0.863779 0.000000
vn -0.503871 -0.863779 0.000000
vn 0.000000 1.000000 0.000000
vn 0.000000 1.000000 0.000000
vn 0.000000 1.000000 0.000000
vn 0.000000 1.000000 0.000000
vn 0.503871 -0.863779 0.000000
vn 0.503871 -0.863779 0.000000
vn 0.503871 -0.863779 0.000000
vn 0.503871 -0.863779 0.000000
vn 1.000000 0.000000 0.000000
vn 1.000000 0.000000 0.000000
vn 1.000000 0.000000 0.000000
vn 1.000000 0.000000 0.000000
vn 0.000000 -1.000000 0.000000
vn 0.000000 -1.000000 0.000000
vn 0.000000 -1.000000 0.000000
vn 0.000000 -1.000000 0.000000
vn -1.000000 0.000000 0.000000
vn -1.000000 0.000000 0.000000
vn -1.000000 0.000000 0.000000
vn -1.000000 0.000000 0.000000
vn 0.000000 0.000000 1.000000
vn 0.000000 0.000000 1.000000
vn 0.000000 0.000000 1.000000
vn 0.000000 0.000000 1.000000
vn 0.000000 0.000000 1.000000
vn 0.000000 0.000000 1.000000
vn -0.000000 -0.000000 -1.000000
vn -0.000000 -0.000000 -1.000000
vn -0.000000 -0.000000 -1.000000
vn -0.000000 -0.000000 -1.000000
vn -0.000000 -0.000000 -1.000000
vn -0.000000 -0.000000 -1.000000
usemtl Steel_-_Satin
f 1/1/1 2/2/2 4/3/3
f 4/3/3 2/2/2 3/4/4
f 5/5/5 1/6/6 6/7/7
f 6/7/7 1/6/6 4/8/8
f 7/9/9 5/10/10 8/11/11
f 8/11/11 5/10/10 6/12/12
f 9/13/13 7/14/14 10/15/15
f 10/15/15 7/14/14 8/16/16
f 11/17/17 9/18/18 12/19/19
f 12/19/19 9/18/18 10/20/20
f 2/21/21 11/22/22 3/23/23
f 3/23/23 11/22/22 12/24/24
f 12/25/25 10/26/26 3/27/27
f 3/27/27 10/26/26 8/28/28
f 3/27/27 8/28/28 4/29/29
f 4/29/29 8/28/28 6/30/30
f 9/31/31 11/32/32 7/33/33
f 7/33/33 11/32/32 2/34/34
f 7/33/33 2/34/34 5/35/35
f 5/35/35 2/34/34 1/36/36
g Body21

v -1.766667 1.800000 0.000000
v -1.630608 1.595911 0.000000
v -1.630608 1.595911 0.050000
v -1.766667 1.800000 0.050000
v 1.766667 1.800000 0.000000
v 1.325000 1.884395 0.000000
v 0.883333 1.947219 0.000000
v 0.441667 1.986520 0.000000
v 0.000000 2.000000 0.000000
v -0.441667 1.986520 0.000000
v -0.883333 1.947219 0.000000
v -1.325000 1.884395 0.000000
v -1.325000 1.884395 0.050000
v -0.883333 1.947219 0.050000
v -0.441667 1.986520 0.050000
v 0.000000 2.000000 0.050000
v 0.441667 1.986520 0.050000
v 0.883333 1.947219 0.050000
v 1.325000 1.884395 0.050000
v 1.766667 1.800000 0.050000
v 1.630608 1.595911 0.000000
v 1.630608 1.595911 0.050000
v -1.222956 1.682032 0.000000
v -0.815304 1.746140 0.000000
v -0.407652 1.786244 0.000000
v 0.000000 1.800000 0.000000
v 0.407652 1.786244 0.000000
v 0.815304 1.746140 0.000000
v 1.222956 1.682032 0.000000
v 1.222956 1.682032 0.050000
v 0.815304 1.746140 0.050000
v 0.407652 1.786244 0.050000
v 0.000000 1.800000 0.050000
v -0.407652 1.786244 0.050000
v -0.815304 1.746140 0.050000
v -1.222956 1.682032 0.050000
vt 0.000000 0.000000 0.000000
vt 0.245284 0.000000 0.000000
vt 0.000000 0.050000 0.000000
vt 0.245284 0.050000 0.000000
vt -3.533333 0.000000 0.000000
vt -3.091667 0.000000 0.000000
vt -3.533333 0.050000 0.000000
vt -3.091667 0.050000 0.000000
vt -2.650000 0.000000 0.000000
vt -2.650000 0.050000 0.000000
vt -2.208333 0.000000 0.000000
vt -2.208333 0.050000 0.000000
vt -1.766667 0.000000 0.000000
vt -1.766667 0.050000 0.000000
vt -1.325000 0.000000 0.000000
vt -1.325000 0.050000 0.000000
vt -0.883333 0.000000 0.000000
vt -0.883333 0.050000 0.000000
vt -0.441667 0.000000 0.000000
vt -0.441667 0.050000 0.000000
vt 0.000000 0.000000 0.000000
vt 0.000000 0.050000 0.000000
vt 0.000000 0.000000 0.000000
vt 0.245284 0.000000 0.000000
vt 0.000000 0.050000 0.000000
vt 0.245284 0.050000 0.000000
vt 0.000000 0.000000 0.000000
vt 0.407652 0.000000 0.000000
vt 0.000000 0.050000 0.000000
vt 0.407652 0.050000 0.000000
vt 0.815304 0.000000 0.000000
vt 0.815304 0.050000 0.000000
vt 1.222956 0.000000 0.000000
vt 1.222956 0.050000 0.000000
vt 1.630608 0.000000 0.000000
vt 1.630608 0.050000 0.000000
vt 2.038260 0.000000 0.000000
vt 2.038260 0.050000 0.000000
vt 2.445911 0.000000 0.000000
vt 2.445911 0.050000 0.000000
vt 2.853563 0.000000 0.000000
vt 2.853563 0.050000 0.000000
vt 3.261215 0.000000 0.000000
vt 3.261215 0.050000 0.000000
vt -1.630608 -0.204244 0.000000
vt -1.222956 -0.118123 0.000000
vt -1.766667 -0.000155 0.000000
vt -0.815304 -0.054016 0.000000
vt -1.325000 0.084240 0.000000
vt -0.407652 -0.013911 0.000000
vt -0.883333 0.147063 0.000000
vt -0.000000 -0.000155 0.000000
vt -0.441667 0.186365 0.000000
vt 0.000000 0.199845 0.000000
vt 0.441667 0.186365 0.000000
vt 0.883333 0.147063 0.000000
vt 0.407652 -0.013911 0.000000
vt 1.325000 0.084240 0.000000
vt 0.815304 -0.054016 0.000000
vt 1.766667 -0.000155 0.000000
vt 1.222956 -0.118123 0.000000
vt 1.630608 -0.204244 0.000000
vt -1.630608 -0.204244 0.000000
vt -1.222956 -0.118123 0.000000
vt -1.766667 -0.000155 0.000000
vt -0.815304 -0.054016 0.000000
vt -1.325000 0.084240 0.000000
vt -0.407652 -0.013911 0.000000
vt -0.883333 0.147063 0.000000
vt 0.000000 -0.000155 0.000000
vt -0.441667 0.186365 0.000000
vt -0.000000 0.199845 0.000000
vt 0.441667 0.186365 0.000000
vt 0.883333 0.147063 0.000000
vt 0.407652 -0.013911 0.000000
vt 1.325000 0.084240 0.000000
vt 0.815304 -0.054016 0.000000
vt 1.766667 -0.000155 0.000000
vt 1.222956 -0.118123 0.000000
vt 1.630608 -0.204244 0.000000
vn -0.832050 -0.554700 0.000000
vn -0.832050 -0.554700 0.000000
vn -0.832050 -0.554700 0.000000
vn -0.832050 -0.554700 0.000000
vn 0.209882 0.977727 -0.000000
vn 0.164923 0.986306 -0.000000
vn 0.209882 0.977727 -0.000000
vn 0.164923 0.986306 -0.000000
vn 0.115721 0.993282 -0.000000
vn 0.115721 0.993282 -0.000000
vn 0.060429 0.998173 -0.000000
vn 0.060429 0.998173 -0.000000
vn -0.000000 1.000000 0.000000
vn -0.000000 1.000000 0.000000
vn -0.060429 0.998173 0.000000
vn -0.060429 0.998173 0.000000
vn -0.115721 0.993282 0.000000
vn -0.115721 0.993282 0.000000
vn -0.164923 0.986306 0.000000
vn -0.164923 0.986306 0.000000
vn -0.209882 0.977727 0.000000
vn -0.209882 0.977727 0.000000
vn 0.832050 -0.554700 0.000000
vn 0.832050 -0.554700 0.000000
vn 0.832050 -0.554700 0.000000
vn 0.832050 -0.554700 0.000000
vn 0.230915 -0.972974 0.000000
vn 0.181788 -0.983338 0.000000
vn 0.230915 -0.972974 0.000000
vn 0.181788 -0.983338 0.000000
vn 0.127750 -0.991806 0.000000
vn 0.127750 -0.991806 0.000000
vn 0.066782 -0.997768 0.000000
vn 0.066782 -0.997768 0.000000
vn 0.000000 -1.000000 0.000000
vn 0.000000 -1.000000 0.000000
vn -0.066782 -0.997768 0.000000
vn -0.066782 -0.997768 0.000000
vn -0.127750 -0.991806 0.000000
vn -0.127750 -0.991806 0.000000
vn -0.181788 -0.983338 0.000000
vn -0.181788 -0.983338 0.000000
vn -0.230915 -0.972974 0.000000
vn -0.230915 -0.972974 0.000000
vn 0.000000 0.000000 1.000000
vn 0.000000 0.000000 1.000000
vn 0.000000 0.000000 1.000000
vn 0.000000 0.000000 1.000000
vn 0.000000 0.000000 1.000000
vn 0.000000 0.000000 1.000000
vn 0.000000 0.000000 1.000000
vn 0.000000 0.000000 1.000000
vn 0.000000 0.000000 1.000000
vn 0.000000 0.000000 1.000000
vn 0.000000 0.000000 1.000000
vn 0.000000 0.000000 1.000000
vn 0.000000 0.000000 1.000000
vn 0.000000 0.000000 1.000000
vn 0.000000 0.000000 1.000000
vn 0.000000 0.000000 1.000000
vn 0.000000 0.000000 1.000000
vn 0.000000 0.000000 1.000000
vn -0.000000 -0.000000 -1.000000
vn -0.000000 -0.000000 -1.000000
vn -0.000000 -0.000000 -1.000000
vn -0.000000 -0.000000 -1.000000
vn -0.000000 -0.000000 -1.000000
vn -0.000000 -0.000000 -1.000000
vn -0.000000 -0.000000 -1.000000
vn -0.000000 -0.000000 -1.000000
vn -0.000000 -0.000000 -1.000000
vn -0.000000 -0.000000 -1.000000
vn -0.000000 -0.000000 -1.000000
vn -0.000000 -0.000000 -1.000000
vn -0.000000 -0.000000 -1.000000
vn -0.000000 -0.000000 -1.000000
vn -0.000000 -0.000000 -1.000000
vn -0.000000 -0.000000 -1.000000
vn -0.000000 -0.000000 -1.000000
vn -0.000000 -0.000000 -1.000000
f 13/37/37 14/38/38 16/39/39
f 16/39/39 14/38/38 15/40/40
f 17/41/41 18/42/42 32/43/43
f 32/43/43 18/42/42 31/44/44
f 31/44/44 18/42/42 19/45/45
f 31/44/44 19/45/45 30/46/46
f 30/46/46 19/45/45 20/47/47
f 30/46/46 20/47/47 29/48/48
f 29/48/48 20/47/47 21/49/49
f 29/48/48 21/49/49 28/50/50
f 28/50/50 21/49/49 22/51/51
f 28/50/50 22/51/51 27/52/52
f 27/52/52 22/51/51 23/53/53
f 27/52/52 23/53/53 26/54/54
f 26/54/54 23/53/53 24/55/55
f 26/54/54 24/55/55 25/56/56
f 25/56/56 24/55/55 13/57/57
f 25/56/56 13/57/57 16/58/58
f 33/59/59 17/60/60 34/61/61
f 34/61/61 17/60/60 32/62/62
f 14/63/63 35/64/64 15/65/65
f 15/65/65 35/64/64 48/66/66
f 48/66/66 35/64/64 36/67/67
f 48/66/66 36/67/67 47/68/68
f 47/68/68 36/67/67 37/69/69
f 47/68/68 37/69/69 46/70/70
f 46/70/70 37/69/69 38/71/71
f 46/70/70 38/71/71 45/72/72
f 45/72/72 38/71/71 39/73/73
f 45/72/72 39/73/73 44/74/74
f 44/74/74 39/73/73 40/75/75
f 44/74/74 40/75/75 43/76/76
f 43/76/76 40/75/75 41/77/77
f 43/76/76 41/77/77 42/78/78
f 42/78/78 41/77/77 33/79/79
f 42/78/78 33/79/79 34/80/80
f 15/81/81 48/82/82 16/83/83
f 16/83/83 48/82/82 47/84/84
f 16/83/83 47/84/84 25/85/85
f 25/85/85 47/84/84 46/86/86
f 25/85/85 46/86/86 26/87/87
f 26/87/87 46/86/86 45/88/88
f 26/87/87 45/88/88 27/89/89
f 27/89/89 45/88/88 28/90/90
f 28/90/90 45/88/88 29/91/91
f 29/91/91 45/88/88 30/92/92
f 30/92/92 45/88/88 44/93/93
f 30/92/92 44/93/93 31/94/94
f 31/94/94 44/93/93 43/95/95
f 31/94/94 43/95/95 32/96/96
f 32/96/96 43/95/95 42/97/97
f 32/96/96 42/97/97 34/98/98
f 33/99/99 41/100/100 17/101/101
f 17/101/101 41/100/100 40/102/102
f 17/101/101 40/102/102 18/103/103
f 18/103/103 40/102/102 39/104/104
f 18/103/103 39/104/104 19/105/105
f 19/105/105 39/104/104 38/106/106
f 19/105/105 38/106/106 20/107/107
f 20/107/107 38/106/106 21/108/108
f 21/108/108 38/106/106 22/109/109
f 22/109/109 38/106/106 23/110/110
f 23/110/110 38/106/106 37/111/111
f 23/110/110 37/111/111 24/112/112
f 24/112/112 37/111/111 36/113/113
f 24/112/112 36/113/113 13/114/114
f 13/114/114 36/113/113 35/115/115
f 13/114/114 35/115/115 14/116/116
g Body22

v -1.500000 1.400000 0.000000
v -1.366667 1.200000 0.000000
v -1.366667 1.200000 0.050000
v -1.500000 1.400000 0.050000
v 1.500000 1.400000 0.000000
v 1.125000 1.484395 0.000000
v 0.750000 1.547219 0.000000
v 0.562500 1.569960 0.000000
v 0.375000 1.586520 0.000000
v 0.187500 1.596608 0.000000
v 0.000000 1.600000 0.000000
v -0.187500 1.596608 0.000000
v -0.375000 1.586520 0.000000
v -0.562500 1.569960 0.000000
v -0.750000 1.547219 0.000000
v -1.125000 1.484395 0.000000
v -1.125000 1.484395 0.050000
v -0.750000 1.547219 0.050000
v -0.562500 1.569960 0.050000
v -0.375000 1.586520 0.050000
v -0.187500 1.596608 0.050000
v 0.000000 1.600000 0.050000
v 0.187500 1.596608 0.050000
v 0.375000 1.586520 0.050000
v 0.562500 1.569960 0.050000
v 0.750000 1.547219 0.050000
v 1.125000 1.484395 0.050000
v 1.500000 1.400000 0.050000
v 1.366667 1.200000 0.000000
v 1.366667 1.200000 0.050000
v -1.025000 1.284395 0.000000
v -0.683333 1.347219 0.000000
v -0.512500 1.369960 0.000000
v -0.341667 1.386520 0.000000
v -0.170833 1.396608 0.000000
v 0.000000 1.400000 0.000000
v 0.170833 1.396608 0.000000
v 0.341667 1.386520 0.000000
v 0.512500 1.369960 0.000000
v 0.683333 1.347219 0.000000
v 1.025000 1.284395 0.000000
v 1.025000 1.284395 0.050000
v 0.683333 1.347219 0.050000
v 0.512500 1.369960 0.050000
v 0.341667 1.386520 0.050000
v 0.170833 1.396608 0.050000
v 0.000000 1.400000 0.050000
v -0.170833 1.396608 0.050000
v -0.341667 1.386520 0.050000
v -0.512500 1.369960 0.050000
v -0.683333 1.347219 0.050000
v -1.025000 1.284395 0.050000
vt 0.000000 0.000000 0.000000
vt 0.240370 0.000000 0.000000
vt 0.000000 0.050000 0.000000
vt 0.240370 0.050000 0.000000
vt -3.000000 0.000000 0.000000
vt -2.625000 0.000000 0.000000
vt -3.000000 0.050000 0.000000
vt -2.625000 0.050000 0.000000
vt -2.250000 0.000000 0.000000
vt -2.250000 0.050000 0.000000
vt -2.062500 0.000000 0.000000
vt -2.062500 0.050000 0.000000
vt -1.875000 0.000000 0.000000
vt -1.875000 0.050000 0.000000
vt -1.687500 0.000000 0.000000
vt -1.687500 0.050000 0.000000
vt -1.500000 0.000000 0.000000
vt -1.500000 0.050000 0.000000
vt -1.312500 0.000000 0.000000
vt -1.312500 0.050000 0.000000
vt -1.125000 0.000000 0.000000
vt -1.125000 0.050000 0.000000
vt -0.937500 0.000000 0.000000
vt -0.937500 0.050000 0.000000
vt -0.750000 0.000000 0.000000
vt -0.750000 0.050000 0.000000
vt -0.375000 0.000000 0.000000
vt -0.375000 0.050000 0.000000
vt 0.000000 0.000000 0.000000
vt 0.000000 0.050000 0.000000
vt 0.000000 0.000000 0.000000
vt 0.240370 0.000000 0.000000
vt 0.000000 0.050000 0.000000
vt 0.240370 0.050000 0.000000
vt 0.000000 0.000000 0.000000
vt 0.341667 0.000000 0.000000
vt 0.000000 0.050000 0.000000
vt 0.341667 0.050000 0.000000
vt 0.683333 0.000000 0.000000
vt 0.683333 0.050000 0.000000
vt 0.854167 0.000000 0.000000
vt 0.854167 0.050000 0.000000
vt 1.025000 0.000000 0.000000
vt 1.025000 0.050000 0.000000
vt 1.195833 0.000000 0.000000
vt 1.195833 0.050000 0.000000
vt 1.366667 0.000000 0.000000
vt 1.366667 0.050000 0.000000
vt 1.537500 0.000000 0.000000
vt 1.537500 0.050000 0.000000
vt 1.708333 0.000000 0.000000
vt 1.708333 0.050000 0.000000
vt 1.879167 0.000000 0.000000
vt 1.879167 0.050000 0.000000
vt 2.050000 0.000000 0.000000
vt 2.050000 0.050000 0.000000
vt 2.391667 0.000000 0.000000
vt 2.391667 0.050000 0.000000
vt 2.733333 0.000000 0.000000
vt 2.733333 0.050000 0.000000
vt -1.366667 -0.202199 0.000000
vt -1.025000 -0.117804 0.000000
vt -1.500000 -0.002199 0.000000
vt -0.683333 -0.054981 0.000000
vt -0.512500 -0.032240 0.000000
vt -1.125000 0.082196 0.000000
vt -0.341667 -0.015680 0.000000
vt -0.170833 -0.005592 0.000000
vt 0.000000 -0.002199 0.000000
vt -0.562500 0.167760 0.000000
vt -0.750000 0.145019 0.000000
vt 0.170833 -0.005592 0.000000
vt 0.562500 0.167760 0.000000
vt 0.375000 0.184321 0.000000
vt 0.187500 0.194408 0.000000
vt 0.341667 -0.015680 0.000000
vt 1.125000 0.082196 0.000000
vt 0.750000 0.145019 0.000000
vt 0.512500 -0.032240 0.000000
vt 1.500000 -0.002199 0.000000
vt 0.683333 -0.054981 0.000000
vt 1.025000 -0.117804 0.000000
vt 1.366667 -0.202199 0.000000
vt 0.000000 0.197801 0.000000
vt -0.187500 0.194408 0.000000
vt -0.375000 0.184321 0.000000
vt -1.366667 -0.202199 0.000000
vt -1.025000 -0.117804 0.000000
vt -1.500000 -0.002199 0.000000
vt -0.683333 -0.054981 0.000000
vt -0.512500 -0.032240 0.000000
vt -1.125000 0.082196 0.000000
vt -0.341667 -0.015680 0.000000
vt -0.170833 -0.005592 0.000000
vt -0.000000 -0.002199 0.000000
vt -0.562500 0.167760 0.000000
vt -0.750000 0.145019 0.000000
vt 0.170833 -0.005592 0.000000
vt 0.562500 0.167760 0.000000
vt 0.375000 0.184321 0.000000
vt 0.187500 0.194408 0.000000
vt 0.341667 -0.015680 0.000000
vt 1.125000 0.082196 0.000000
vt 0.750000 0.145019 0.000000
vt 0.512500 -0.032240 0.000000
vt 1.500000 -0.002199 0.000000
vt 0.683333 -0.054981 0.000000
vt 1.025000 -0.117804 0.000000
vt 1.366667 -0.202199 0.000000
vt -0.000000 0.197801 0.000000
vt -0.187500 0.194408 0.000000
vt -0.375000 0.184321 0.000000
vn -0.832050 -0.554700 0.000000
vn -0.832050 -0.554700 0.000000
vn -0.832050 -0.554700 0.000000
vn -0.832050 -0.554700 0.000000
vn 0.245113 0.969495 -0.000000
vn 0.193228 0.981154 -0.000000
vn 0.245113 0.969495 -0.000000
vn 0.193228 0.981154 -0.000000
vn 0.135942 0.990717 -0.000000
vn 0.135942 0.990717 -0.000000
vn 0.104503 0.994525 -0.000000
vn 0.104503 0.994525 -0.000000
vn 0.071121 0.997468 -0.000000
vn 0.071121 0.997468 -0.000000
vn 0.036075 0.999349 -0.000000
vn 0.036075 0.999349 -0.000000
vn -0.000000 1.000000 0.000000
vn -0.000000 1.000000 0.000000
vn -0.036075 0.999349 0.000000
vn -0.036075 0.999349 0.000000
vn -0.071121 0.997468 0.000000
vn -0.071121 0.997468 0.000000
vn -0.104503 0.994525 0.000000
vn -0.104503 0.994525 0.000000
vn -0.135942 0.990717 0.000000
vn -0.135942 0.990717 0.000000
vn -0.193228 0.981154 0.000000
vn -0.193228 0.981154 0.000000
vn -0.245113 0.969495 0.000000
vn -0.245113 0.969495 0.000000
vn 0.832050 -0.554700 0.000000
vn 0.832050 -0.554700 0.000000
vn 0.832050 -0.554700 0.000000
vn 0.832050 -0.554700 0.000000
vn 0.267388 -0.963589 0.000000
vn 0.211274 -0.977427 0.000000
vn 0.267388 -0.963589 0.000000
vn 0.211274 -0.977427 0.000000
vn 0.148923 -0.988849 0.000000
vn 0.148923 -0.988849 0.000000
vn 0.114571 -0.993415 0.000000
vn 0.114571 -0.993415 0.000000
vn 0.078020 -0.996952 0.000000
vn 0.078020 -0.996952 0.000000
vn 0.039589 -0.999216 0.000000
vn 0.039589 -0.999216 0.000000
vn 0.000000 -1.000000 0.000000
vn 0.000000 -1.000000 0.000000
vn -0.039589 -0.999216 0.000000
vn -0.039589 -0.999216 0.000000
vn -0.078020 -0.996952 0.000000
vn -0.078020 -0.996952 0.000000
vn -0.114571 -0.993415 0.000000
vn -0.114571 -0.993415 0.000000
vn -0.148923 -0.988849 0.000000
vn -0.148923 -0.988849 0.000000
vn -0.211274 -0.977427 0.000000
vn -0.211274 -0.977427 0.000000
vn -0.267388 -0.963589 0.000000
vn -0.267388 -0.963589 0.000000
vn 0.000000 0.000000 1.000000
vn 0.000000 0.000000 1.000000
vn 0.000000 0.000000 1.000000
vn 0.000000 0.000000 1.000000
vn 0.000000 0.000000 1.000000
vn 0.000000 0.000000 1.000000
vn 0.000000 0.000000 1.000000
vn 0.000000 0.000000 1.000000
vn 0.000000 0.000000 1.000000
vn 0.000000 0.000000 1.000000
vn 0.000000 0.000000 1.000000
vn 0.000000 0.000000 1.000000
vn 0.000000 0.000000 1.000000
vn 0.000000 0.000000 1.000000
vn 0.000000 0.000000 1.000000
vn 0.000000 0.000000 1.000000
vn 0.000000 0.000000 1.000000
vn 0.000000 0.000000 1.000000
vn 0.000000 0.000000 1.000000
vn 0.000000 0.000000 1.000000
vn 0.000000 0.000000 1.000000
vn 0.000000 0.000000 1.000000
vn 0.000000 0.000000 1.000000
vn 0.000000 0.000000 1.000000
vn 0.000000 0.000000 1.000000
vn 0.000000 0.000000 1.000000
vn -0.000000 -0.000000 -1.000000
vn -0.000000 -0.000000 -1.000000
vn -0.000000 -0.000000 -1.000000
vn -0.000000 -0.000000 -1.000000
vn -0.000000 -0.000000 -1.000000
vn -0.000000 -0.000000 -1.000000
vn -0.000000 -0.000000 -1.000000
vn -0.000000 -0.000000 -1.000000
vn -0.000000 -0.000000 -1.000000
vn -0.000000 -0.000000 -1.000000
vn -0.000000 -0.000000 -1.000000
vn -0.000000 -0.000000 -1.000000
vn -0.000000 -0.000000 -1.000000
vn -0.000000 -0.000000 -1.000000
vn -0.000000 -0.000000 -1.000000
vn -0.000000 -0.000000 -1.000000
vn -0.000000 -0.000000 -1.000000
vn -0.000000 -0.000000 -1.000000
vn -0.000000 -0.000000 -1.000000
vn -0.000000 -0.000000 -1.000000
vn -0.000000 -0.000000 -1.000000
vn -0.000000 -0.000000 -1.000000
vn -0.000000 -0.000000 -1.000000
vn -0.000000 -0.000000 -1.000000
vn -0.000000 -0.000000 -1.000000
vn -0.000000 -0.000000 -1.000000
f 49/117/117 50/118/118 52/119/119
f 52/119/119 50/118/118 51/120/120
f 53/121/121 54/122/122 76/123/123
f 76/123/123 54/122/122 75/124/124
f 75/124/124 54/122/122 55/125/125
f 75/124/124 55/125/125 74/126/126
f 74/126/126 55/125/125 56/127/127
f 74/126/126 56/127/127 73/128/128
f 73/128/128 56/127/127 57/129/129
f 73/128/128 57/129/129 72/130/130
f 72/130/130 57/129/129 58/131/131
f 72/130/130 58/131/131 71/132/132
f 71/132/132 58/131/131 59/133/133
f 71/132/132 59/133/133 70/134/134
f 70/134/134 59/133/133 60/135/135
f 70/134/134 60/135/135 69/136/136
f 69/136/136 60/135/135 61/137/137
f 69/136/136 61/137/137 68/138/138
f 68/138/138 61/137/137 62/139/139
f 68/138/138 62/139/139 67/140/140
f 67/140/140 62/139/139 63/141/141
f 67/140/140 63/141/141 66/142/142
f 66/142/142 63/141/141 64/143/143
f 66/142/142 64/143/143 65/144/144
f 65/144/144 64/143/143 49/145/145
f 65/144/144 49/145/145 52/146/146
f 77/147/147 53/148/148 78/149/149
f 78/149/149 53/148/148 76/150/150
f 50/151/151 79/152/152 51/153/153
f 51/153/153 79/152/152 100/154/154
f 100/154/154 79/152/152 80/155/155
f 100/154/154 80/155/155 99/156/156
f 99/156/156 80/155/155 81/157/157
f 99/156/156 81/157/157 98/158/158
f 98/158/158 81/157/157 82/159/159
f 98/158/158 82/159/159 97/160/160
f 97/160/160 82/159/159 83/161/161
f 97/160/160 83/161/161 96/162/162
f 96/162/162 83/161/161 84/163/163
f 96/162/162 84/163/163 95/164/164
f 95/164/164 84/163/163 85/165/165
f 95/164/164 85/165/165 94/166/166
f 94/166/166 85/165/165 86/167/167
f 94/166/166 86/167/167 93/168/168
f 93/168/168 86/167/167 87/169/169
f 93/168/168 87/169/169 92/170/170
f 92/170/170 87/169/169 88/171/171
f 92/170/170 88/171/171 91/172/172
f 91/172/172 88/171/171 89/173/173
f 91/172/172 89/173/173 90/174/174
f 90/174/174 89/173/173 77/175/175
f 90/174/174 77/175/175 78/176/176
f 51/177/177 100/178/178 52/179/179
f 52/179/179 100/178/178 99/180/180
f 52/179/179 99/180/180 98/181/181
f 52/179/179 98/181/181 65/182/182
f 65/182/182 98/181/181 97/183/183
f 65/182/182 97/183/183 96/184/184
f 95/185/185 67/186/186 96/184/184
f 96/184/184 67/186/186 66/187/187
f 96/184/184 66/187/187 65/182/182
f 94/188/188 73/189/189 95/185/185
f 95/185/185 73/189/189 72/190/190
f 95/185/185 72/190/190 71/191/191
f 93/192/192 75/193/193 94/188/188
f 94/188/188 75/193/193 74/194/194
f 94/188/188 74/194/194 73/189/189
f 93/192/192 92/195/195 75/193/193
f 75/193/193 92/195/195 76/196/196
f 76/196/196 92/195/195 91/197/197
f 76/196/196 91/197/197 90/198/198
f 90/198/198 78/199/199 76/196/196
f 71/191/191 70/200/200 95/185/185
f 95/185/185 70/200/200 69/201/201
f 95/185/185 69/201/201 68/202/202
f 68/202/202 67/186/186 95/185/185
f 77/203/203 89/204/204 53/205/205
f 53/205/205 89/204/204 88/206/206
f 53/205/205 88/206/206 87/207/207
f 53/205/205 87/207/207 54/208/208
f 54/208/208 87/207/207 86/209/209
f 54/208/208 86/209/209 85/210/210
f 84/211/211 56/212/212 85/210/210
f 85/210/210 56/212/212 55/213/213
f 85/210/210 55/213/213 54/208/208
f 83/214/214 62/215/215 84/211/211
f 84/211/211 62/215/215 61/216/216
f 84/211/211 61/216/216 60/217/217
f 82/218/218 64/219/219 83/214/214
f 83/214/214 64/219/219 63/220/220
f 83/214/214 63/220/220 62/215/215
f 82/218/218 81/221/221 64/219/219
f 64/219/219 81/221/221 49/222/222
f 49/222/222 81/221/221 80/223/223
f 49/222/222 80/223/223 79/224/224
f 79/224/224 50/225/225 49/222/222
f 60/217/217 59/226/226 84/211/211
f 84/211/211 59/226/226 58/227/227
f 84/211/211 58/227/227 57/228/228
f 57/228/228 56/212/212 84/211/211
g Body18

v -2.033333 2.200000 0.000000
v -1.900000 2.000000 0.000000
v -1.900000 2.000000 0.050000
v -2.033333 2.200000 0.050000
v 2.033333 2.200000 0.000000
v 1.525000 2.284395 0.000000
v 1.016667 2.347219 0.000000
v 0.508333 2.386520 0.000000
v 0.000000 2.400000 0.000000
v -0.508333 2.386520 0.000000
v -1.016667 2.347219 0.000000
v -1.525000 2.284395 0.000000
v -1.525000 2.284395 0.050000
v -1.016667 2.347219 0.050000
v -0.508333 2.386520 0.050000
v 0.000000 2.400000 0.050000
v 0.508333 2.386520 0.050000
v 1.016667 2.347219 0.050000
v 1.525000 2.284395 0.050000
v 2.033333 2.200000 0.050000
v 1.900000 2.000000 0.000000
v 1.900000 2.000000 0.050000
v -1.425000 2.084395 0.000000
v -0.950000 2.147219 0.000000
v -0.475000 2.186520 0.000000
v 0.000000 2.200000 0.000000
v 0.475000 2.186520 0.000000
v 0.950000 2.147219 0.000000
v 1.425000 2.084395 0.000000
v 1.425000 2.084395 0.050000
v 0.950000 2.147219 0.050000
v 0.475000 2.186520 0.050000
v 0.000000 2.200000 0.050000
v -0.475000 2.186520 0.050000
v -0.950000 2.147219 0.050000
v -1.425000 2.084395 0.050000
vt 0.000000 0.000000 0.000000
vt 0.240370 0.000000 0.000000
vt 0.000000 0.050000 0.000000
vt 0.240370 0.050000 0.000000
vt -4.066667 0.000000 0.000000
vt -3.558333 0.000000 0.000000
vt -4.066667 0.050000 0.000000
vt -3.558333 0.050000 0.000000
vt -3.050000 0.000000 0.000000
vt -3.050000 0.050000 0.000000
vt -2.541667 0.000000 0.000000
vt -2.541667 0.050000 0.000000
vt -2.033333 0.000000 0.000000
vt -2.033333 0.050000 0.000000
vt -1.525000 0.000000 0.000000
vt -1.525000 0.050000 0.000000
vt -1.016667 0.000000 0.000000
vt -1.016667 0.050000 0.000000
vt -0.508333 0.000000 0.000000
vt -0.508333 0.050000 0.000000
vt 0.000000 0.000000 0.000000
vt 0.000000 0.050000 0.000000
vt 0.000000 0.000000 0.000000
vt 0.240370 0.000000 0.000000
vt 0.000000 0.050000 0.000000
vt 0.240370 0.050000 0.000000
vt 0.000000 0.000000 0.000000
vt 0.475000 0.000000 0.000000
vt 0.000000 0.050000 0.000000
vt 0.475000 0.050000 0.000000
vt 0.950000 0.000000 0.000000
vt 0.950000 0.050000 0.000000
vt 1.425000 0.000000 0.000000
vt 1.425000 0.050000 0.000000
vt 1.900000 0.000000 0.000000
vt 1.900000 0.050000 0.000000
vt 2.375000 0.000000 0.000000
vt 2.375000 0.050000 0.000000
vt 2.850000 0.000000 0.000000
vt 2.850000 0.050000 0.000000
vt 3.325000 0.000000 0.000000
vt 3.325000 0.050000 0.000000
vt 3.800000 0.000000 0.000000
vt 3.800000 0.050000 0.000000
vt -1.900000 -0.202199 0.000000
vt -1.425000 -0.117804 0.000000
vt -2.033333 -0.002199 0.000000
vt -0.950000 -0.054981 0.000000
vt -1.525000 0.082196 0.000000
vt -0.475000 -0.015680 0.000000
vt -1.016667 0.145019 0.000000
vt 0.000000 -0.002199 0.000000
vt -0.508333 0.184321 0.000000
vt 0.000000 0.197801 0.000000
vt 0.508333 0.184321 0.000000
vt 1.016667 0.145019 0.000000
vt 0.475000 -0.015680 0.000000
vt 1.525000 0.082196 0.000000
vt 0.950000 -0.054981 0.000000
vt 2.033333 -0.002199 0.000000
vt 1.425000 -0.117804 0.000000
vt 1.900000 -0.202199 0.000000
vt -1.900000 -0.202199 0.000000
vt -1.425000 -0.117804 0.000000
vt -2.033333 -0.002199 0.000000
vt -0.950000 -0.054981 0.000000
vt -1.525000 0.082196 0.000000
vt -0.475000 -0.015680 0.000000
vt -1.016667 0.145019 0.000000
vt -0.000000 -0.002199 0.000000
vt -0.508333 0.184321 0.000000
vt -0.000000 0.197801 0.000000
vt 0.508333 0.184321 0.000000
vt 1.016667 0.145019 0.000000
vt 0.475000 -0.015680 0.000000
vt 1.525000 0.082196 0.000000
vt 0.950000 -0.054981 0.000000
vt 2.033333 -0.002199 0.000000
vt 1.425000 -0.117804 0.000000
vt 1.900000 -0.202199 0.000000
vn -0.832050 -0.554700 0.000000
vn -0.832050 -0.554700 0.000000
vn -0.832050 -0.554700 0.000000
vn -0.832050 -0.554700 0.000000
vn 0.183349 0.983048 -0.000000
vn 0.143774 0.989611 -0.000000
vn 0.183349 0.983048 -0.000000
vn 0.143774 0.989611 -0.000000
vn 0.100710 0.994916 -0.000000
vn 0.100710 0.994916 -0.000000
vn 0.052527 0.998619 -0.000000
vn 0.052527 0.998619 -0.000000
vn -0.000000 1.000000 0.000000
vn -0.000000 1.000000 0.000000
vn -0.052527 0.998619 0.000000
vn -0.052527 0.998619 0.000000
vn -0.100710 0.994916 0.000000
vn -0.100710 0.994916 0.000000
vn -0.143774 0.989611 0.000000
vn -0.143774 0.989611 0.000000
vn -0.183349 0.983048 0.000000
vn -0.183349 0.983048 0.000000
vn 0.832050 -0.554700 0.000000
vn 0.832050 -0.554700 0.000000
vn 0.832050 -0.554700 0.000000
vn 0.832050 -0.554700 0.000000
vn 0.195738 -0.980656 0.000000
vn 0.153632 -0.988128 0.000000
vn 0.195738 -0.980656 0.000000
vn 0.153632 -0.988128 0.000000
vn 0.107698 -0.994184 0.000000
vn 0.107698 -0.994184 0.000000
vn 0.056202 -0.998419 0.000000
vn 0.056202 -0.998419 0.000000
vn 0.000000 -1.000000 0.000000
vn 0.000000 -1.000000 0.000000
vn -0.056202 -0.998419 0.000000
vn -0.056202 -0.998419 0.000000
vn -0.107698 -0.994184 0.000000
vn -0.107698 -0.994184 0.000000
vn -0.153632 -0.988128 0.000000
vn -0.153632 -0.988128 0.000000
vn -0.195738 -0.980656 0.000000
vn -0.195738 -0.980656 0.000000
vn 0.000000 0.000000 1.000000
vn 0.000000 0.000000 1.000000
vn 0.000000 0.000000 1.000000
vn 0.000000 0.000000 1.000000
vn 0.000000 0.000000 1.000000
vn 0.000000 0.000000 1.000000
vn 0.000000 0.000000 1.000000
vn 0.000000 0.000000 1.000000
vn 0.000000 0.000000 1.000000
vn 0.000000 0.000000 1.000000
vn 0.000000 0.000000 1.000000
vn 0.000000 0.000000 1.000000
vn 0.000000 0.000000 1.000000
vn 0.000000 0.000000 1.000000
vn 0.000000 0.000000 1.000000
vn 0.000000 0.000000 1.000000
vn 0.000000 0.000000 1.000000
vn 0.000000 0.000000 1.000000
vn -0.000000 -0.000000 -1.000000
vn -0.000000 -0.000000 -1.000000
vn -0.000000 -0.000000 -1.000000
vn -0.000000 -0.000000 -1.000000
vn -0.000000 -0.000000 -1.000000
vn -0.000000 -0.000000 -1.000000
vn -0.000000 -0.000000 -1.000000
vn -0.000000 -0.000000 -1.000000
vn -0.000000 -0.000000 -1.000000
vn -0.000000 -0.000000 -1.000000
vn -0.000000 -0.000000 -1.000000
vn -0.000000 -0.000000 -1.000000
vn -0.000000 -0.000000 -1.000000
vn -0.000000 -0.000000 -1.000000
vn -0.000000 -0.000000 -1.000000
vn -0.000000 -0.000000 -1.000000
vn -0.000000 -0.000000 -1.000000
vn -0.000000 -0.000000 -1.000000
f 101/229/229 102/230/230 104/231/231
f 104/231/231 102/230/230 103/232/232
f 105/233/233 106/234/234 120/235/235
f 120/235/235 106/234/234 119/236/236
f 119/236/236 106/234/234 107/237/237
f 119/236/236 107/237/237 118/238/238
f 118/238/238 107/237/237 108/239/239
f 118/238/238 108/239/239 117/240/240
f 117/240/240 108/239/239 109/241/241
f 117/240/240 109/241/241 116/242/242
f 116/242/242 109/241/241 110/243/243
f 116/242/242 110/243/243 115/244/244
f 115/244/244 110/243/243 111/245/245
f 115/244/244 111/245/245 114/246/246
f 114/246/246 111/245/245 112/247/247
f 114/246/246 112/247/247 113/248/248
f 113/248/248 112/247/247 101/249/249
f 113/248/248 101/249/249 104/250/250
f 121/251/251 105/252/252 122/253/253
f 122/253/253 105/252/252 120/254/254
f 102/255/255 123/256/256 103/257/257
f 103/257/257 123/256/256 136/258/258
f 136/258/258 123/256/256 124/259/259
f 136/258/258 124/259/259 135/260/260
f 135/260/260 124/259/259 125/261/261
f 135/260/260 125/261/261 134/262/262
f 134/262/262 125/261/261 126/263/263
f 134/262/262 126/263/263 133/264/264
f 133/264/264 126/263/263 127/265/265
f 133/264/264 127/265/265 132/266/266
f 132/266/266 127/265/265 128/267/267
f 132/266/266 128/267/267 131/268/268
f 131/268/268 128/267/267 129/269/269
f 131/268/268 129/269/269 130/270/270
f 130/270/270 129/269/269 121/271/271
f 130/270/270 121/271/271 122/272/272
f 103/273/273 136/274/274 104/275/275
f 104/275/275 136/274/274 135/276/276
f 104/275/275 135/276/276 113/277/277
f 113/277/277 135/276/276 134/278/278
f 113/277/277 134/278/278 114/279/279
f 114/279/279 134/278/278 133/280/280
f 114/279/279 133/280/280 115/281/281
f 115/281/281 133/280/280 116/282/282
f 116/282/282 133/280/280 117/283/283
f 117/283/283 133/280/280 118/284/284
f 118/284/284 133/280/280 132/285/285
f 118/284/284 132/285/285 119/286/286
f 119/286/286 132/285/285 131/287/287
f 119/286/286 131/287/287 120/288/288
f 120/288/288 131/287/287 130/289/289
f 120/288/288 130/289/289 122/290/290
f 121/291/291 129/292/292 105/293/293
f 105/293/293 129/292/292 128/294/294
f 105/293/293 128/294/294 106/295/295
f 106/295/295 128/294/294 127/296/296
f 106/295/295 127/296/296 107/297/297
f 107/297/297 127/296/296 126/298/298
f 107/297/297 126/298/298 108/299/299
f 108/299/299 126/298/298 109/300/300
f 109/300/300 126/298/298 110/301/301
f 110/301/301 126/298/298 111/302/302
f 111/302/302 126/298/298 125/303/303
f 111/302/302 125/303/303 112/304/304
f 112/304/304 125/303/303 124/305/305
f 112/304/304 124/305/305 101/306/306
f 101/306/306 124/305/305 123/307/307
f 101/306/306 123/307/307 102/308/308
g Body19

v -1.233333 1.000000 0.000000
v -1.100000 0.800000 0.000000
v -1.100000 0.800000 0.050000
v -1.233333 1.000000 0.050000
v 1.233333 1.000000 0.000000
v 1.079167 1.044813 0.000000
v 0.925000 1.084395 0.000000
v 0.770833 1.118604 0.000000
v 0.616667 1.147219 0.000000
v 0.462500 1.169960 0.000000
v 0.308333 1.186520 0.000000
v 0.154167 1.196608 0.000000
v 0.000000 1.200000 0.000000
v -0.154167 1.196608 0.000000
v -0.308333 1.186520 0.000000
v -0.462500 1.169960 0.000000
v -0.616667 1.147219 0.000000
v -0.770833 1.118604 0.000000
v -0.925000 1.084395 0.000000
v -1.079167 1.044813 0.000000
v -1.079167 1.044813 0.050000
v -0.925000 1.084395 0.050000
v -0.770833 1.118604 0.050000
v -0.616667 1.147219 0.050000
v -0.462500 1.169960 0.050000
v -0.308333 1.186520 0.050000
v -0.154167 1.196608 0.050000
v 0.000000 1.200000 0.050000
v 0.154167 1.196608 0.050000
v 0.308333 1.186520 0.050000
v 0.462500 1.169960 0.050000
v 0.616667 1.147219 0.050000
v 0.770833 1.118604 0.050000
v 0.925000 1.084395 0.050000
v 1.079167 1.044813 0.050000
v 1.233333 1.000000 0.050000
v 1.100000 0.800000 0.000000
v 1.100000 0.800000 0.050000
v -0.962500 0.844813 0.000000
v -0.825000 0.884395 0.000000
v -0.687500 0.918604 0.000000
v -0.550000 0.947219 0.000000
v -0.412500 0.969960 0.000000
v -0.275000 0.986520 0.000000
v -0.137500 0.996608 0.000000
v 0.000000 1.000000 0.000000
v 0.137500 0.996608 0.000000
v 0.275000 0.986520 0.000000
v 0.412500 0.969960 0.000000
v 0.550000 0.947219 0.000000
v 0.687500 0.918604 0.000000
v 0.825000 0.884395 0.000000
v 0.962500 0.844813 0.000000
v 0.962500 0.844813 0.050000
v 0.825000 0.884395 0.050000
v 0.687500 0.918604 0.050000
v 0.550000 0.947219 0.050000
v 0.412500 0.969960 0.050000
v 0.275000 0.986520 0.050000
v 0.137500 0.996608 0.050000
v 0.000000 1.000000 0.050000
v -0.137500 0.996608 0.050000
v -0.275000 0.986520 0.050000
v -0.412500 0.969960 0.050000
v -0.550000 0.947219 0.050000
v -0.687500 0.918604 0.050000
v -0.825000 0.884395 0.050000
v -0.962500 0.844813 0.050000
vt 0.000000 0.000000 0.000000
vt 0.240370 0.000000 0.000000
vt 0.000000 0.050000 0.000000
vt 0.240370 0.050000 0.000000
vt -2.466667 0.000000 0.000000
vt -2.312500 0.000000 0.000000
vt -2.466667 0.050000 0.000000
vt -2.312500 0.050000 0.000000
vt -2.158333 0.000000 0.000000
vt -2.158333 0.050000 0.000000
vt -2.004167 0.000000 0.000000
vt -2.004167 0.050000 0.000000
vt -1.850000 0.000000 0.000000
vt -1.850000 0.050000 0.000000
vt -1.695833 0.000000 0.000000
vt -1.695833 0.050000 0.000000
vt -1.541667 0.000000 0.000000
vt -1.541667 0.050000 0.000000
vt -1.387500 0.000000 0.000000
vt -1.387500 0.050000 0.000000
vt -1.233333 0.000000 0.000000
vt -1.233333 0.050000 0.000000
vt -1.079167 0.000000 0.000000
vt -1.079167 0.050000 0.000000
vt -0.925000 0.000000 0.000000
vt -0.925000 0.050000 0.000000
vt -0.770833 0.000000 0.000000
vt -0.770833 0.050000 0.000000
vt -0.616667 0.000000 0.000000
vt -0.616667 0.050000 0.000000
vt -0.462500 0.000000 0.000000
vt -0.462500 0.050000 0.000000
vt -0.308333 0.000000 0.000000
vt -0.308333 0.050000 0.000000
vt -0.154167 0.000000 0.000000
vt -0.154167 0.050000 0.000000
vt 0.000000 0.000000 0.000000
vt 0.000000 0.050000 0.000000
vt 0.000000 0.000000 0.000000
vt 0.240370 0.000000 0.000000
vt 0.000000 0.050000 0.000000
vt 0.240370 0.050000 0.000000
vt 0.000000 0.000000 0.000000
vt 0.137500 0.000000 0.000000
vt 0.000000 0.050000 0.000000
vt 0.137500 0.050000 0.000000
vt 0.275000 0.000000 0.000000
vt 0.275000 0.050000 0.000000
vt 0.412500 0.000000 0.000000
vt 0.412500 0.050000 0.000000
vt 0.550000 0.000000 0.000000
vt 0.550000 0.050000 0.000000
vt 0.687500 0.000000 0.000000
vt 0.687500 0.050000 0.000000
vt 0.825000 0.000000 0.000000
vt 0.825000 0.050000 0.000000
vt 0.962500 0.000000 0.000000
vt 0.962500 0.050000 0.000000
vt 1.100000 0.000000 0.000000
vt 1.100000 0.050000 0.000000
vt 1.237500 0.000000 0.000000
vt 1.237500 0.050000 0.000000
vt 1.375000 0.000000 0.000000
vt 1.375000 0.050000 0.000000
vt 1.512500 0.000000 0.000000
vt 1.512500 0.050000 0.000000
vt 1.650000 0.000000 0.000000
vt 1.650000 0.050000 0.000000
vt 1.787500 0.000000 0.000000
vt 1.787500 0.050000 0.000000
vt 1.925000 0.000000 0.000000
vt 1.925000 0.050000 0.000000
vt 2.062500 0.000000 0.000000
vt 2.062500 0.050000 0.000000
vt 2.200000 0.000000 0.000000
vt 2.200000 0.050000 0.000000
vt -1.100000 -0.202199 0.000000
vt -0.962500 -0.157386 0.000000
vt -1.233333 -0.002199 0.000000
vt -0.825000 -0.117804 0.000000
vt -0.687500 -0.083596 0.000000
vt -0.550000 -0.054981 0.000000
vt -1.079167 0.042614 0.000000
vt -0.412500 -0.032240 0.000000
vt -0.925000 0.082196 0.000000
vt -0.275000 -0.015680 0.000000
vt -0.770833 0.116404 0.000000
vt -0.137500 -0.005592 0.000000
vt -0.616667 0.145019 0.000000
vt -0.462500 0.167760 0.000000
vt 0.000000 -0.002199 0.000000
vt -0.308333 0.184321 0.000000
vt -0.154167 0.194408 0.000000
vt 0.000000 0.197801 0.000000
vt 0.154167 0.194408 0.000000
vt 0.308333 0.184321 0.000000
vt 0.462500 0.167760 0.000000
vt 0.137500 -0.005592 0.000000
vt 0.616667 0.145019 0.000000
vt 0.770833 0.116404 0.000000
vt 0.275000 -0.015680 0.000000
vt 0.925000 0.082196 0.000000
vt 0.412500 -0.032240 0.000000
vt 1.079167 0.042614 0.000000
vt 0.550000 -0.054981 0.000000
vt 1.233333 -0.002199 0.000000
vt 0.687500 -0.083596 0.000000
vt 0.825000 -0.117804 0.000000
vt 0.962500 -0.157386 0.000000
vt 1.100000 -0.202199 0.000000
vt -1.100000 -0.202199 0.000000
vt -0.962500 -0.157386 0.000000
vt -1.233333 -0.002199 0.000000
vt -0.825000 -0.117804 0.000000
vt -0.687500 -0.083596 0.000000
vt -0.550000 -0.054981 0.000000
vt -1.079167 0.042614 0.000000
vt -0.412500 -0.032240 0.000000
vt -0.925000 0.082196 0.000000
vt -0.275000 -0.015680 0.000000
vt -0.770833 0.116404 0.000000
vt -0.137500 -0.005592 0.000000
vt -0.616667 0.145019 0.000000
vt -0.462500 0.167760 0.000000
vt -0.000000 -0.002199 0.000000
vt -0.308333 0.184321 0.000000
vt -0.154167 0.194408 0.000000
vt -0.000000 0.197801 0.000000
vt 0.154167 0.194408 0.000000
vt 0.308333 0.184321 0.000000
vt 0.462500 0.167760 0.000000
vt 0.137500 -0.005592 0.000000
vt 0.616667 0.145019 0.000000
vt 0.770833 0.116404 0.000000
vt 0.275000 -0.015680 0.000000
vt 0.925000 0.082196 0.000000
vt 0.412500 -0.032240 0.000000
vt 1.079167 0.042614 0.000000
vt 0.550000 -0.054981 0.000000
vt 1.233333 -0.002199 0.000000
vt 0.687500 -0.083596 0.000000
vt 0.825000 -0.117804 0.000000
vt 0.962500 -0.157386 0.000000
vt 1.100000 -0.202199 0.000000
vn -0.832050 -0.554700 0.000000
vn -0.832050 -0.554700 0.000000
vn -0.832050 -0.554700 0.000000
vn -0.832050 -0.554700 0.000000
vn 0.293909 0.955833 -0.000000
vn 0.264096 0.964496 -0.000000
vn 0.293909 0.955833 -0.000000
vn 0.264096 0.964496 -0.000000
vn 0.232932 0.972493 -0.000000
vn 0.232932 0.972493 -0.000000
vn 0.199910 0.979814 -0.000000
vn 0.199910 0.979814 -0.000000
vn 0.164607 0.986359 -0.000000
vn 0.164607 0.986359 -0.000000
vn 0.126767 0.991933 -0.000000
vn 0.126767 0.991933 -0.000000
vn 0.086394 0.996261 -0.000000
vn 0.086394 0.996261 -0.000000
vn 0.043861 0.999038 -0.000000
vn 0.043861 0.999038 -0.000000
vn -0.000000 1.000000 0.000000
vn -0.000000 1.000000 0.000000
vn -0.043861 0.999038 0.000000
vn -0.043861 0.999038 0.000000
vn -0.086394 0.996261 0.000000
vn -0.086394 0.996261 0.000000
vn -0.126767 0.991933 0.000000
vn -0.126767 0.991933 0.000000
vn -0.164607 0.986359 0.000000
vn -0.164607 0.986359 0.000000
vn -0.199910 0.979814 0.000000
vn -0.199910 0.979814 0.000000
vn -0.232932 0.972493 0.000000
vn -0.232932 0.972493 0.000000
vn -0.264096 0.964496 0.000000
vn -0.264096 0.964496 0.000000
vn -0.293909 0.955833 0.000000
vn -0.293909 0.955833 0.000000
vn 0.832050 -0.554700 0.000000
vn 0.832050 -0.554700 0.000000
vn 0.832050 -0.554700 0.000000
vn 0.832050 -0.554700 0.000000
vn 0.325935 -0.945392 0.000000
vn 0.293488 -0.955963 0.000000
vn 0.325935 -0.945392 0.000000
vn 0.293488 -0.955963 0.000000
vn 0.259363 -0.965780 0.000000
vn 0.259363 -0.965780 0.000000
vn 0.222999 -0.974819 0.000000
vn 0.222999 -0.974819 0.000000
vn 0.183920 -0.982941 0.000000
vn 0.183920 -0.982941 0.000000
vn 0.141840 -0.989890 0.000000
vn 0.141840 -0.989890 0.000000
vn 0.096774 -0.995306 0.000000
vn 0.096774 -0.995306 0.000000
vn 0.049165 -0.998791 0.000000
vn 0.049165 -0.998791 0.000000
vn 0.000000 -1.000000 0.000000
vn 0.000000 -1.000000 0.000000
vn -0.049165 -0.998791 0.000000
vn -0.049165 -0.998791 0.000000
vn -0.096774 -0.995306 0.000000
vn -0.096774 -0.995306 0.000000
vn -0.141840 -0.989890 0.000000
vn -0.141840 -0.989890 0.000000
vn -0.183920 -0.982941 0.000000
vn -0.183920 -0.982941 0.000000
vn -0.222999 -0.974819 0.000000
vn -0.222999 -0.974819 0.000000
vn -0.259363 -0.965780 0.000000
vn -0.259363 -0.965780 0.000000
vn -0.293488 -0.955963 0.000000
vn -0.293488 -0.955963 0.000000
vn -0.325935 -0.945392 0.000000
vn -0.325935 -0.945392 0.000000
vn 0.000000 0.000000 1.000000
vn 0.000000 0.000000 1.000000
vn 0.000000 0.000000 1.000000
vn 0.000000 0.000000 1.000000
vn 0.000000 0.000000 1.000000
vn 0.000000 0.000000 1.000000
vn 0.000000 0.000000 1.000000
vn 0.000000 0.000000 1.000000
vn 0.000000 0.000000 1.000000
vn 0.000000 0.000000 1.000000
vn 0.000000 0.000000 1.000000
vn 0.000000 0.000000 1.000000
vn 0.000000 0.000000 1.000000
vn 0.000000 0.000000 1.000000
vn 0.000000 0.000000 1.000000
vn 0.000000 0.000000 1.000000
vn 0.000000 0.000000 1.000000
vn 0.000000 0.000000 1.000000
vn 0.000000 0.000000 1.000000
vn 0.000000 0.000000 1.000000
vn 0.000000 0.000000 1.000000
vn 0.000000 0.000000 1.000000
vn 0.000000 0.000000 1.000000
vn 0.000000 0.000000 1.000000
vn 0.000000 0.000000 1.000000
vn 0.000000 0.000000 1.000000
vn 0.000000 0.000000 1.000000
vn 0.000000 0.000000 1.000000
vn 0.000000 0.000000 1.000000
vn 0.000000 0.000000 1.000000
vn 0.000000 0.000000 1.000000
vn 0.000000 0.000000 1.000000
vn 0.000000 0.000000 1.000000
vn 0.000000 0.000000 1.000000
vn -0.000000 -0.000000 -1.000000
vn -0.000000 -0.000000 -1.000000
vn -0.000000 -0.000000 -1.000000
vn -0.000000 -0.000000 -1.000000
vn -0.000000 -0.000000 -1.000000
vn -0.000000 -0.000000 -1.000000
vn -0.000000 -0.000000 -1.000000
vn -0.000000 -0.000000 -1.000000
vn -0.000000 -0.000000 -1.000000
vn -0.000000 -0.000000 -1.000000
vn -0.000000 -0.000000 -1.000000
vn -0.000000 -0.000000 -1.000000
vn -0.000000 -0.000000 -1.000000
vn -0.000000 -0.000000 -1.000000
vn -0.000000 -0.000000 -1.000000
vn -0.000000 -0.000000 -1.000000
vn -0.000000 -0.000000 -1.000000
vn -0.000000 -0.000000 -1.000000
vn -0.000000 -0.000000 -1.000000
vn -0.000000 -0.000000 -1.000000
vn -0.000000 -0.000000 -1.000000
vn -0.000000 -0.000000 -1.000000
vn -0.000000 -0.000000 -1.000000
vn -0.000000 -0.000000 -1.000000
vn -0.000000 -0.000000 -1.000000
vn -0.000000 -0.000000 -1.000000
vn -0.000000 -0.000000 -1.000000
vn -0.000000 -0.000000 -1.000000
vn -0.000000 -0.000000 -1.000000
vn -0.000000 -0.000000 -1.000000
vn -0.000000 -0.000000 -1.000000
vn -0.000000 -0.000000 -1.000000
vn -0.000000 -0.000000 -1.000000
vn -0.000000 -0.000000 -1.000000
f 137/309/309 138/310/310 140/311/311
f 140/311/311 138/310/310 139/312/312
f 141/313/313 142/314/314 172/315/315
f 172/315/315 142/314/314 171/316/316
f 171/316/316 142/314/314 143/317/317
f 171/316/316 143/317/317 170/318/318
f 170/318/318 143/317/317 144/319/319
f 170/318/318 144/319/319 169/320/320
f 169/320/320 144/319/319 145/321/321
f 169/320/320 145/321/321 168/322/322
f 168/322/322 145/321/321 146/323/323
f 168/322/322 146/323/323 167/324/324
f 167/324/324 146/323/323 147/325/325
f 167/324/324 147/325/325 166/326/326
f 166/326/326 147/325/325 148/327/327
f 166/326/326 148/327/327 165/328/328
f 165/328/328 148/327/327 149/329/329
f 165/328/328 149/329/329 164/330/330
f 164/330/330 149/329/329 150/331/331
f 164/330/330 150/331/331 163/332/332
f 163/332/332 150/331/331 151/333/333
f 163/332/332 151/333/333 162/334/334
f 162/334/334 151/333/333 152/335/335
f 162/334/334 152/335/335 161/336/336
f 161/336/336 152/335/335 153/337/337
f 161/336/336 153/337/337 160/338/338
f 160/338/338 153/337/337 154/339/339
f 160/338/338 154/339/339 159/340/340
f 159/340/340 154/339/339 155/341/341
f 159/340/340 155/341/341 158/342/342
f 158/342/342 155/341/341 156/343/343
f 158/342/342 156/343/343 157/344/344
f 157/344/344 156/343/343 137/345/345
f 157/344/344 137/345/345 140/346/346
f 173/347/347 141/348/348 174/349/349
f 174/349/349 141/348/348 172/350/350
f 138/351/351 175/352/352 139/353/353
f 139/353/353 175/352/352 204/354/354
f 204/354/354 175/352/352 176/355/355
f 204/354/354 176/355/355 203/356/356
f 203/356/356 176/355/355 177/357/357
f 203/356/356 177/357/357 202/358/358
f 202/358/358 177/357/357 178/359/359
f 202/358/358 178/359/359 201/360/360
f 201/360/360 178/359/359 179/361/361
f 201/360/360 179/361/361 200/362/362
f 200/362/362 179/361/361 180/363/363
f 200/362/362 180/363/363 199/364/364
f 199/364/364 180/363/363 181/365/365
f 199/364/364 181/365/365 198/366/366
f 198/366/366 181/365/365 182/367/367
f 198/366/366 182/367/367 197/368/368
f 197/368/368 182/367/367 183/369/369
f 197/368/368 183/369/369 196/370/370
f 196/370/370 183/369/369 184/371/371
f 196/370/370 184/371/371 195/372/372
f 195/372/372 184/371/371 185/373/373
f 195/372/372 185/373/373 194/374/374
f 194/374/374 185/373/373 186/375/375
f 194/374/374 186/375/375 193/376/376
f 193/376/376 186/375/375 187/377/377
f 193/376/376 187/377/377 192/378/378
f 192/378/378 187/377/377 188/379/379
f 192/378/378 188/379/379 191/380/380
f 191/380/380 188/379/379 189/381/381
f 191/380/380 189/381/381 190/382/382
f 190/382/382 189/381/381 173/383/383
f 190/382/382 173/383/383 174/384/384
f 139/385/385 204/386/386 140/387/387
f 140/387/387 204/386/386 203/388/388
f 140/387/387 203/388/388 202/389/389
f 202/389/389 201/390/390 140/387/387
f 140/387/387 201/390/390 157/391/391
f 157/391/391 201/390/390 200/392/392
f 157/391/391 200/392/392 158/393/393
f 158/393/393 200/392/392 199/394/394
f 158/393/393 199/394/394 159/395/395
f 159/395/395 199/394/394 198/396/396
f 159/395/395 198/396/396 160/397/397
f 160/397/397 198/396/396 161/398/398
f 161/398/398 198/396/396 197/399/399
f 161/398/398 197/399/399 162/400/400
f 162/400/400 197/399/399 163/401/401
f 163/401/401 197/399/399 164/402/402
f 164/402/402 197/399/399 165/403/403
f 165/403/403 197/399/399 166/404/404
f 166/404/404 197/399/399 167/405/405
f 167/405/405 197/399/399 196/406/406
f 167/405/405 196/406/406 168/407/407
f 168/407/407 196/406/406 169/408/408
f 169/408/408 196/406/406 195/409/409
f 169/408/408 195/409/409 170/410/410
f 170/410/410 195/409/409 194/411/411
f 170/410/410 194/411/411 171/412/412
f 171/412/412 194/411/411 193/413/413
f 171/412/412 193/413/413 172/414/414
f 172/414/414 193/413/413 192/415/415
f 172/414/414 192/415/415 191/416/416
f 191/416/416 190/417/417 172/414/414
f 172/414/414 190/417/417 174/418/418
f 173/419/419 189/420/420 141/421/421
f 141/421/421 189/420/420 188/422/422
f 141/421/421 188/422/422 187/423/423
f 187/423/423 186/424/424 141/421/421
f 141/421/421 186/424/424 142/425/425
f 142/425/425 186/424/424 185/426/426
f 142/425/425 185/426/426 143/427/427
f 143/427/427 185/426/426 184/428/428
f 143/427/427 184/428/428 144/429/429
f 144/429/429 184/428/428 183/430/430
f 144/429/429 183/430/430 145/431/431
f 145/431/431 183/430/430 146/432/432
f 146/432/432 183/430/430 182/433/433
f 146/432/432 182/433/433 147/434/434
f 147/434/434 182/433/433 148/435/435
f 148/435/435 182/433/433 149/436/436
f 149/436/436 182/433/433 150/437/437
f 150/437/437 182/433/433 151/438/438
f 151/438/438 182/433/433 152/439/439
f 152/439/439 182/433/433 181/440/440
f 152/439/439 181/440/440 153/441/441
f 153/441/441 181/440/440 154/442/442
f 154/442/442 181/440/440 180/443/443
f 154/442/442 180/443/443 155/444/444
f 155/444/444 180/443/443 179/445/445
f 155/444/444 179/445/445 156/446/446
f 156/446/446 179/445/445 178/447/447
f 156/446/446 178/447/447 137/448/448
f 137/448/448 178/447/447 177/449/449
f 137/448/448 177/449/449 176/450/450
f 176/450/450 175/451/451 137/448/448
f 137/448/448 175/451/451 138/452/452
g Body20

v -2.300000 2.600000 0.000000
v -2.166667 2.400000 0.000000
v -2.166667 2.400000 0.050000
v -2.300000 2.600000 0.050000
v 2.300000 2.600000 0.000000
v 1.725000 2.684395 0.000000
v 1.150000 2.747219 0.000000
v 0.575000 2.786520 0.000000
v 0.000000 2.800000 0.000000
v -0.575000 2.786520 0.000000
v -1.150000 2.747219 0.000000
v -1.725000 2.684395 0.000000
v -1.725000 2.684395 0.050000
v -1.150000 2.747219 0.050000
v -0.575000 2.786520 0.050000
v 0.000000 2.800000 0.050000
v 0.575000 2.786520 0.050000
v 1.150000 2.747219 0.050000
v 1.725000 2.684395 0.050000
v 2.300000 2.600000 0.050000
v 2.166667 2.400000 0.000000
v 2.166667 2.400000 0.050000
v -1.625000 2.484395 0.000000
v -1.083333 2.547219 0.000000
v -0.541667 2.586520 0.000000
v 0.000000 2.600000 0.000000
v 0.541667 2.586520 0.000000
v 1.083333 2.547219 0.000000
v 1.625000 2.484395 0.000000
v 1.625000 2.484395 0.050000
v 1.083333 2.547219 0.050000
v 0.541667 2.586520 0.050000
v 0.000000 2.600000 0.050000
v -0.541667 2.586520 0.050000
v -1.083333 2.547219 0.050000
v -1.625000 2.484395 0.050000
vt 0.000000 0.000000 0.000000
vt 0.240370 0.000000 0.000000
vt 0.000000 0.050000 0.000000
vt 0.240370 0.050000 0.000000
vt -4.600000 0.000000 0.000000
vt -4.025000 0.000000 0.000000
vt -4.600000 0.050000 0.000000
vt -4.025000 0.050000 0.000000
vt -3.450000 0.000000 0.000000
vt -3.450000 0.050000 0.000000
vt -2.875000 0.000000 0.000000
vt -2.875000 0.050000 0.000000
vt -2.300000 0.000000 0.000000
vt -2.300000 0.050000 0.000000
vt -1.725000 0.000000 0.000000
vt -1.725000 0.050000 0.000000
vt -1.150000 0.000000 0.000000
vt -1.150000 0.050000 0.000000
vt -0.575000 0.000000 0.000000
vt -0.575000 0.050000 0.000000
vt 0.000000 0.000000 0.000000
vt 0.000000 0.050000 0.000000
vt 0.000000 0.000000 0.000000
vt 0.240370 0.000000 0.000000
vt 0.000000 0.050000 0.000000
vt 0.240370 0.050000 0.000000
vt 0.000000 0.000000 0.000000
vt 0.541667 0.000000 0.000000
vt 0.000000 0.050000 0.000000
vt 0.541667 0.050000 0.000000
vt 1.083333 0.000000 0.000000
vt 1.083333 0.050000 0.000000
vt 1.625000 0.000000 0.000000
vt 1.625000 0.050000 0.000000
vt 2.166667 0.000000 0.000000
vt 2.166667 0.050000 0.000000
vt 2.708333 0.000000 0.000000
vt 2.708333 0.050000 0.000000
vt 3.250000 0.000000 0.000000
vt 3.250000 0.050000 0.000000
vt 3.791667 0.000000 0.000000
vt 3.791667 0.050000 0.000000
vt 4.333333 0.000000 0.000000
vt 4.333333 0.050000 0.000000
vt -2.166667 -0.202199 0.000000
vt -1.625000 -0.117804 0.000000
vt -2.300000 -0.002199 0.000000
vt -1.083333 -0.054981 0.000000
vt -1.725000 0.082196 0.000000
vt -0.541667 -0.015680 0.000000
vt -1.150000 0.145019 0.000000
vt 0.000000 -0.002199 0.000000
vt -0.575000 0.184321 0.000000
vt 0.000000 0.197801 0.000000
vt 0.575000 0.184321 0.000000
vt 1.150000 0.145019 0.000000
vt 0.541667 -0.015680 0.000000
vt 1.725000 0.082196 0.000000
vt 1.083333 -0.054981 0.000000
vt 2.300000 -0.002199 0.000000
vt 1.625000 -0.117804 0.000000
vt 2.166667 -0.202199 0.000000
vt -2.166667 -0.202199 0.000000
vt -1.625000 -0.117804 0.000000
vt -2.300000 -0.002199 0.000000
vt -1.083333 -0.054981 0.000000
vt -1.725000 0.082196 0.000000
vt -0.541667 -0.015680 0.000000
vt -1.150000 0.145019 0.000000
vt -0.000000 -0.002199 0.000000
vt -0.575000 0.184321 0.000000
vt -0.000000 0.197801 0.000000
vt 0.575000 0.184321 0.000000
vt 1.150000 0.145019 0.000000
vt 0.541667 -0.015680 0.000000
vt 1.725000 0.082196 0.000000
vt 1.083333 -0.054981 0.000000
vt 2.300000 -0.002199 0.000000
vt 1.625000 -0.117804 0.000000
vt 2.166667 -0.202199 0.000000
vn -0.832050 -0.554700 0.000000
vn -0.832050 -0.554700 0.000000
vn -0.832050 -0.554700 0.000000
vn -0.832050 -0.554700 0.000000
vn 0.162689 0.986677 -0.000000
vn 0.127392 0.991852 -0.000000
vn 0.162689 0.986677 -0.000000
vn 0.127392 0.991852 -0.000000
vn 0.089132 0.996020 -0.000000
vn 0.089132 0.996020 -0.000000
vn 0.046451 0.998921 -0.000000
vn 0.046451 0.998921 -0.000000
vn -0.000000 1.000000 0.000000
vn -0.000000 1.000000 0.000000
vn -0.046451 0.998921 0.000000
vn -0.046451 0.998921 0.000000
vn -0.089132 0.996020 0.000000
vn -0.089132 0.996020 0.000000
vn -0.127392 0.991852 0.000000
vn -0.127392 0.991852 0.000000
vn -0.162689 0.986677 0.000000
vn -0.162689 0.986677 0.000000
vn 0.832050 -0.554700 0.000000
vn 0.832050 -0.554700 0.000000
vn 0.832050 -0.554700 0.000000
vn 0.832050 -0.554700 0.000000
vn 0.172412 -0.985025 0.000000
vn 0.135093 -0.990833 0.000000
vn 0.172412 -0.985025 0.000000
vn 0.135093 -0.990833 0.000000
vn 0.094570 -0.995518 0.000000
vn 0.094570 -0.995518 0.000000
vn 0.049303 -0.998784 0.000000
vn 0.049303 -0.998784 0.000000
vn 0.000000 -1.000000 0.000000
vn 0.000000 -1.000000 0.000000
vn -0.049303 -0.998784 0.000000
vn -0.049303 -0.998784 0.000000
vn -0.094570 -0.995518 0.000000
vn -0.094570 -0.995518 0.000000
vn -0.135093 -0.990833 0.000000
vn -0.135093 -0.990833 0.000000
vn -0.172412 -0.985025 0.000000
vn -0.172412 -0.985025 0.000000
vn 0.000000 0.000000 1.000000
vn 0.000000 0.000000 1.000000
vn 0.000000 0.000000 1.000000
vn 0.000000 0.000000 1.000000
vn 0.000000 0.000000 1.000000
vn 0.000000 0.000000 1.000000
vn 0.000000 0.000000 1.000000
vn 0.000000 0.000000 1.000000
vn 0.000000 0.000000 1.000000
vn 0.000000 0.000000 1.000000
vn 0.000000 0.000000 1.000000
vn 0.000000 0.000000 1.000000
vn 0.000000 0.000000 1.000000
vn 0.000000 0.000000 1.000000
vn 0.000000 0.000000 1.000000
vn 0.000000 0.000000 1.000000
vn 0.000000 0.000000 1.000000
vn 0.000000 0.000000 1.000000
vn -0.000000 -0.000000 -1.000000
vn -0.000000 -0.000000 -1.000000
vn -0.000000 -0.000000 -1.000000
vn -0.000000 -0.000000 -1.000000
vn -0.000000 -0.000000 -1.000000
vn -0.000000 -0.000000 -1.000000
vn -0.000000 -0.000000 -1.000000
vn -0.000000 -0.000000 -1.000000
vn -0.000000 -0.000000 -1.000000
vn -0.000000 -0.000000 -1.000000
vn -0.000000 -0.000000 -1.000000
vn -0.000000 -0.000000 -1.000000
vn -0.000000 -0.000000 -1.000000
vn -0.000000 -0.000000 -1.000000
vn -0.000000 -0.000000 -1.000000
vn -0.000000 -0.000000 -1.000000
vn -0.000000 -0.000000 -1.000000
vn -0.000000 -0.000000 -1.000000
f 205/453/453 206/454/454 208/455/455
f 208/455/455 206/454/454 207/456/456
f 209/457/457 210/458/458 224/459/459
f 224/459/459 210/458/458 223/460/460
f 223/460/460 210/458/458 211/461/461
f 223/460/460 211/461/461 222/462/462
f 222/462/462 211/461/461 212/463/463
f 222/462/462 212/463/463 221/464/464
f 221/464/464 212/463/463 213/465/465
f 221/464/464 213/465/465 220/466/466
f 220/466/466 213/465/465 214/467/467
f 220/466/466 214/467/467 219/468/468
f 219/468/468 214/467/467 215/469/469
f 219/468/468 215/469/469 218/470/470
f 218/470/470 215/469/469 216/471/471
f 218/470/470 216/471/471 217/472/472
f 217/472/472 216/471/471 205/473/473
f 217/472/472 205/473/473 208/474/474
f 225/475/475 209/476/476 226/477/477
f 226/477/477 209/476/476 224/478/478
f 206/479/479 227/480/480 207/481/481
f 207/481/481 227/480/480 240/482/482
f 240/482/482 227/480/480 228/483/483
f 240/482/482 228/483/483 239/484/484
f 239/484/484 228/483/483 229/485/485
f 239/484/484 229/485/485 238/486/486
f 238/486/486 229/485/485 230/487/487
f 238/486/486 230/487/487 237/488/488
f 237/488/488 230/487/487 231/489/489
f 237/488/488 231/489/489 236/490/490
f 236/490/490 231/489/489 232/491/491
f 236/490/490 232/491/491 235/492/492
f 235/492/492 232/491/491 233/493/493
f 235/492/492 233/493/493 234/494/494
f 234/494/494 233/493/493 225/495/495
f 234/494/494 225/495/495 226/496/496
f 207/497/497 240/498/498 208/499/499
f 208/499/499 240/498/498 239/500/500
f 208/499/499 239/500/500 217/501/501
f 217/501/501 239/500/500 238/502/502
f 217/501/501 238/502/502 218/503/503
f 218/503/503 238/502/502 237/504/504
f 218/503/503 237/504/504 219/505/505
f 219/505/505 237/504/504 220/506/506
f 220/506/506 237/504/504 221/507/507
f 221/507/507 237/504/504 222/508/508
f 222/508/508 237/504/504 236/509/509
f 222/508/508 236/509/509 223/510/510
f 223/510/510 236/509/509 235/511/511
f 223/510/510 235/511/511 224/512/512
f 224/512/512 235/511/511 234/513/513
f 224/512/512 234/513/513 226/514/514
f 225/515/515 233/516/516 209/517/517
f 209/517/517 233/516/516 232/518/518
f 209/517/517 232/518/518 210/519/519
f 210/519/519 232/518/518 231/520/520
f 210/519/519 231/520/520 211/521/521
f 211/521/521 231/520/520 230/522/522
f 211/521/521 230/522/522 212/523/523
f 212/523/523 230/522/522 213/524/524
f 213/524/524 230/522/522 214/525/525
f 214/525/525 230/522/522 215/526/526
f 215/526/526 230/522/522 229/527/527
f 215/526/526 229/527/527 216/528/528
f 216/528/528 229/527/527 228/529/529
f 216/528/528 228/529/529 205/530/530
f 205/530/530 228/529/529 227/531/531
f 205/530/530 227/531/531 206/532/532
g Body24

v -2.566667 3.000000 0.000000
v -2.433333 2.800000 0.000000
v -2.433333 2.800000 0.050000
v -2.566667 3.000000 0.050000
v 2.566667 3.000000 0.000000
v 1.925000 3.084395 0.000000
v 1.283333 3.147219 0.000000
v 0.641667 3.186520 0.000000
v 0.000000 3.200000 0.000000
v -0.641667 3.186520 0.000000
v -1.283333 3.147219 0.000000
v -1.925000 3.084395 0.000000
v -1.925000 3.084395 0.050000
v -1.283333 3.147219 0.050000
v -0.641667 3.186520 0.050000
v 0.000000 3.200000 0.050000
v 0.641667 3.186520 0.050000
v 1.283333 3.147219 0.050000
v 1.925000 3.084395 0.050000
v 2.566667 3.000000 0.050000
v 2.433333 2.800000 0.000000
v 2.433333 2.800000 0.050000
v -1.825000 2.884395 0.000000
v -1.216667 2.947219 0.000000
v -0.608333 2.986520 0.000000
v 0.000000 3.000000 0.000000
v 0.608333 2.986520 0.000000
v 1.216667 2.947219 0.000000
v 1.825000 2.884395 0.000000
v 1.825000 2.884395 0.050000
v 1.216667 2.947219 0.050000
v 0.608333 2.986520 0.050000
v 0.000000 3.000000 0.050000
v -0.608333 2.986520 0.050000
v -1.216667 2.947219 0.050000
v -1.825000 2.884395 0.050000
vt 0.000000 0.000000 0.000000
vt 0.240370 0.000000 0.000000
vt 0.000000 0.050000 0.000000
vt 0.240370 0.050000 0.000000
vt -5.133333 0.000000 0.000000
vt -4.491667 0.000000 0.000000
vt -5.133333 0.050000 0.000000
vt -4.491667 0.050000 0.000000
vt -3.850000 0.000000 0.000000
vt -3.850000 0.050000 0.000000
vt -3.208333 0.000000 0.000000
vt -3.208333 0.050000 0.000000
vt -2.566667 0.000000 0.000000
vt -2.566667 0.050000 0.000000
vt -1.925000 0.000000 0.000000
vt -1.925000 0.050000 0.000000
vt -1.283333 0.000000 0.000000
vt -1.283333 0.050000 0.000000
vt -0.641667 0.000000 0.000000
vt -0.641667 0.050000 0.000000
vt 0.000000 0.000000 0.000000
vt 0.000000 0.050000 0.000000
vt 0.000000 0.000000 0.000000
vt 0.240370 0.000000 0.000000
vt 0.000000 0.050000 0.000000
vt 0.240370 0.050000 0.000000
vt 0.000000 0.000000 0.000000
vt 0.608333 0.000000 0.000000
vt 0.000000 0.050000 0.000000
vt 0.608333 0.050000 0.000000
vt 1.216667 0.000000 0.000000
vt 1.216667 0.050000 0.000000
vt 1.825000 0.000000 0.000000
vt 1.825000 0.050000 0.000000
vt 2.433333 0.000000 0.000000
vt 2.433333 0.050000 0.000000
vt 3.041667 0.000000 0.000000
vt 3.041667 0.050000 0.000000
vt 3.650000 0.000000 0.000000
vt 3.650000 0.050000 0.000000
vt 4.258333 0.000000 0.000000
vt 4.258333 0.050000 0.000000
vt 4.866667 0.000000 0.000000
vt 4.866667 0.050000 0.000000
vt -2.433333 -0.202199 0.000000
vt -1.825000 -0.117804 0.000000
vt -2.566667 -0.002199 0.000000
vt -1.216667 -0.054981 0.000000
vt -1.925000 0.082196 0.000000
vt -0.608333 -0.015680 0.000000
vt -1.283333 0.145019 0.000000
vt 0.000000 -0.002199 0.000000
vt -0.641667 0.184321 0.000000
vt 0.000000 0.197801 0.000000
vt 0.641667 0.184321 0.000000
vt 1.283333 0.145019 0.000000
vt 0.608333 -0.015680 0.000000
vt 1.925000 0.082196 0.000000
vt 1.216667 -0.054981 0.000000
vt 2.566667 -0.002199 0.000000
vt 1.825000 -0.117804 0.000000
vt 2.433333 -0.202199 0.000000
vt -2.433333 -0.202199 0.000000
vt -1.825000 -0.117804 0.000000
vt -2.566667 -0.002199 0.000000
vt -1.216667 -0.054981 0.000000
vt -1.925000 0.082196 0.000000
vt -0.608333 -0.015680 0.000000
vt -1.283333 0.145019 0.000000
vt -0.000000 -0.002199 0.000000
vt -0.641667 0.184321 0.000000
vt -0.000000 0.197801 0.000000
vt 0.641667 0.184321 0.000000
vt 1.283333 0.145019 0.000000
vt 0.608333 -0.015680 0.000000
vt 1.925000 0.082196 0.000000
vt 1.216667 -0.054981 0.000000
vt 2.566667 -0.002199 0.000000
vt 1.825000 -0.117804 0.000000
vt 2.433333 -0.202199 0.000000
vn -0.832050 -0.554700 0.000000
vn -0.832050 -0.554700 0.000000
vn -0.832050 -0.554700 0.000000
vn -0.832050 -0.554700 0.000000
vn 0.146168 0.989260 -0.000000
vn 0.114339 0.993442 -0.000000
vn 0.146168 0.989260 -0.000000
vn 0.114339 0.993442 -0.000000
vn 0.079934 0.996800 -0.000000
vn 0.079934 0.996800 -0.000000
vn 0.041634 0.999133 -0.000000
vn 0.041634 0.999133 -0.000000
vn -0.000000 1.000000 0.000000
vn -0.000000 1.000000 0.000000
vn -0.041634 0.999133 0.000000
vn -0.041634 0.999133 0.000000
vn -0.079934 0.996800 0.000000
vn -0.079934 0.996800 0.000000
vn -0.114339 0.993442 0.000000
vn -0.114339 0.993442 0.000000
vn -0.146168 0.989260 0.000000
vn -0.146168 0.989260 0.000000
vn 0.832050 -0.554700 0.000000
vn 0.832050 -0.554700 0.000000
vn 0.832050 -0.554700 0.000000
vn 0.832050 -0.554700 0.000000
vn 0.153992 -0.988072 0.000000
vn 0.120516 -0.992711 0.000000
vn 0.153992 -0.988072 0.000000
vn 0.120516 -0.992711 0.000000
vn 0.084284 -0.996442 0.000000
vn 0.084284 -0.996442 0.000000
vn 0.043911 -0.999035 0.000000
vn 0.043911 -0.999035 0.000000
vn 0.000000 -1.000000 0.000000
vn 0.000000 -1.000000 0.000000
vn -0.043911 -0.999035 0.000000
vn -0.043911 -0.999035 0.000000
vn -0.084284 -0.996442 0.000000
vn -0.084284 -0.996442 0.000000
vn -0.120516 -0.992711 0.000000
vn -0.120516 -0.992711 0.000000
vn -0.153992 -0.988072 0.000000
vn -0.153992 -0.988072 0.000000
vn 0.000000 0.000000 1.000000
vn 0.000000 0.000000 1.000000
vn 0.000000 0.000000 1.000000
vn 0.000000 0.000000 1.000000
vn 0.000000 0.000000 1.000000
vn 0.000000 0.000000 1.000000
vn 0.000000 0.000000 1.000000
vn 0.000000 0.000000 1.000000
vn 0.000000 0.000000 1.000000
vn 0.000000 0.000000 1.000000
vn 0.000000 0.000000 1.000000
vn 0.000000 0.000000 1.000000
vn 0.000000 0.000000 1.000000
vn 0.000000 0.000000 1.000000
vn 0.000000 0.000000 1.000000
vn 0.000000 0.000000 1.000000
vn 0.000000 0.000000 1.000000
vn 0.000000 0.000000 1.000000
vn -0.000000 -0.000000 -1.000000
vn -0.000000 -0.000000 -1.000000
vn -0.000000 -0.000000 -1.000000
vn -0.000000 -0.000000 -1.000000
vn -0.000000 -0.000000 -1.000000
vn -0.000000 -0.000000 -1.000000
vn -0.000000 -0.000000 -1.000000
vn -0.000000 -0.000000 -1.000000
vn -0.000000 -0.000000 -1.000000
vn -0.000000 -0.000000 -1.000000
vn -0.000000 -0.000000 -1.000000
vn -0.000000 -0.000000 -1.000000
vn -0.000000 -0.000000 -1.000000
vn -0.000000 -0.000000 -1.000000
vn -0.000000 -0.000000 -1.000000
vn -0.000000 -0.000000 -1.000000
vn -0.000000 -0.000000 -1.000000
vn -0.000000 -0.000000 -1.000000
f 241/533/533 242/534/534 244/535/535
f 244/535/535 242/534/534 243/536/536
f 245/537/537 246/538/538 260/539/539
f 260/539/539 246/538/538 259/540/540
f 259/540/540 246/538/538 247/541/541
f 259/540/540 247/541/541 258/542/542
f 258/542/542 247/541/541 248/543/543
f 258/542/542 248/543/543 257/544/544
f 257/544/544 248/543/543 249/545/545
f 257/544/544 249/545/545 256/546/546
f 256/546/546 249/545/545 250/547/547
f 256/546/546 250/547/547 255/548/548
f 255/548/548 250/547/547 251/549/549
f 255/548/548 251/549/549 254/550/550
f 254/550/550 251/549/549 252/551/551
f 254/550/550 252/551/551 253/552/552
f 253/552/552 252/551/551 241/553/553
f 253/552/552 241/553/553 244/554/554
f 261/555/555 245/556/556 262/557/557
f 262/557/557 245/556/556 260/558/558
f 242/559/559 263/560/560 243/561/561
f 243/561/561 263/560/560 276/562/562
f 276/562/562 263/560/560 264/563/563
f 276/562/562 264/563/563 275/564/564
f 275/564/564 264/563/563 265/565/565
f 275/564/564 265/565/565 274/566/566
f 274/566/566 265/565/565 266/567/567
f 274/566/566 266/567/567 273/568/568
f 273/568/568 266/567/567 267/569/569
f 273/568/568 267/569/569 272/570/570
f 272/570/570 267/569/569 268/571/571
f 272/570/570 268/571/571 271/572/572
f 271/572/572 268/571/571 269/573/573
f 271/572/572 269/573/573 270/574/574
f 270/574/574 269/573/573 261/575/575
f 270/574/574 261/575/575 262/576/576
f 243/577/577 276/578/578 244/579/579
f 244/579/579 276/578/578 275/580/580
f 244/579/579 275/580/580 253/581/581
f 253/581/581 275/580/580 274/582/582
f 253/581/581 274/582/582 254/583/583
f 254/583/583 274/582/582 273/584/584
f 254/583/583 273/584/584 255/585/585
f 255/585/585 273/584/584 256/586/586
f 256/586/586 273/584/584 257/587/587
f 257/587/587 273/584/584 258/588/588
f 258/588/588 273/584/584 272/589/589
f 258/588/588 272/589/589 259/590/590
f 259/590/590 272/589/589 271/591/591
f 259/590/590 271/591/591 260/592/592
f 260/592/592 271/591/591 270/593/593
f 260/592/592 270/593/593 262/594/594
f 261/595/595 269/596/596 245/597/597
f 245/597/597 269/596/596 268/598/598
f 245/597/597 268/598/598 246/599/599
f 246/599/599 268/598/598 267/600/600
f 246/599/599 267/600/600 247/601/601
f 247/601/601 267/600/600 266/602/602
f 247/601/601 266/602/602 248/603/603
f 248/603/603 266/602/602 249/604/604
f 249/604/604 266/602/602 250/605/605
f 250/605/605 266/602/602 251/606/606
f 251/606/606 266/602/602 265/607/607
f 251/606/606 265/607/607 252/608/608
f 252/608/608 265/607/607 264/609/609
f 252/608/608 264/609/609 241/610/610
f 241/610/610 264/609/609 263/611/611
f 241/610/610 263/611/611 242/612/612
g Body25

v -2.833333 3.400000 0.000000
v -2.700000 3.200000 0.000000
v -2.700000 3.200000 0.050000
v -2.833333 3.400000 0.050000
v 2.833333 3.400000 0.000000
v 2.125000 3.484395 0.000000
v 1.416667 3.547219 0.000000
v 0.708333 3.586520 0.000000
v -0.000000 3.600000 0.000000
v -0.708333 3.586520 0.000000
v -1.416667 3.547219 0.000000
v -2.125000 3.484395 0.000000
v -2.125000 3.484395 0.050000
v -1.416667 3.547219 0.050000
v -0.708333 3.586520 0.050000
v -0.000000 3.600000 0.050000
v 0.708333 3.586520 0.050000
v 1.416667 3.547219 0.050000
v 2.125000 3.484395 0.050000
v 2.833333 3.400000 0.050000
v 2.700000 3.200000 0.000000
v 2.700000 3.200000 0.050000
v -2.025000 3.284395 0.000000
v -1.350000 3.347219 0.000000
v -0.675000 3.386520 0.000000
v 0.000000 3.400000 0.000000
v 0.675000 3.386520 0.000000
v 1.350000 3.347219 0.000000
v 2.025000 3.284395 0.000000
v 2.025000 3.284395 0.050000
v 1.350000 3.347219 0.050000
v 0.675000 3.386520 0.050000
v 0.000000 3.400000 0.050000
v -0.675000 3.386520 0.050000
v -1.350000 3.347219 0.050000
v -2.025000 3.284395 0.050000
vt 0.000000 0.000000 0.000000
vt 0.240370 0.000000 0.000000
vt 0.000000 0.050000 0.000000
vt 0.240370 0.050000 0.000000
vt -5.666667 0.000000 0.000000
vt -4.958333 0.000000 0.000000
vt -5.666667 0.050000 0.000000
vt -4.958333 0.050000 0.000000
vt -4.250000 0.000000 0.000000
vt -4.250000 0.050000 0.000000
vt -3.541667 0.000000 0.000000
vt -3.541667 0.050000 0.000000
vt -2.833333 0.000000 0.000000
vt -2.833333 0.050000 0.000000
vt -2.125000 0.000000 0.000000
vt -2.125000 0.050000 0.000000
vt -1.416667 0.000000 0.000000
vt -1.416667 0.050000 0.000000
vt -0.708333 0.000000 0.000000
vt -0.708333 0.050000 0.000000
vt 0.000000 0.000000 0.000000
vt 0.000000 0.050000 0.000000
vt 0.000000 0.000000 0.000000
vt 0.240370 0.000000 0.000000
vt 0.000000 0.050000 0.000000
vt 0.240370 0.050000 0.000000
vt 0.000000 0.000000 0.000000
vt 0.675000 0.000000 0.000000
vt 0.000000 0.050000 0.000000
vt 0.675000 0.050000 0.000000
vt 1.350000 0.000000 0.000000
vt 1.350000 0.050000 0.000000
vt 2.025000 0.000000 0.000000
vt 2.025000 0.050000 0.000000
vt 2.700000 0.000000 0.000000
vt 2.700000 0.050000 0.000000
vt 3.375000 0.000000 0.000000
vt 3.375000 0.050000 0.000000
vt 4.050000 0.000000 0.000000
vt 4.050000 0.050000 0.000000
vt 4.725000 0.000000 0.000000
vt 4.725000 0.050000 0.000000
vt 5.400000 0.000000 0.000000
vt 5.400000 0.050000 0.000000
vt -2.700000 -0.202199 0.000000
vt -2.025000 -0.117804 0.000000
vt -2.833333 -0.002199 0.000000
vt -1.350000 -0.054981 0.000000
vt -2.125000 0.082196 0.000000
vt -0.675000 -0.015680 0.000000
vt -1.416667 0.145019 0.000000
vt 0.000000 -0.002199 0.000000
vt -0.708333 0.184321 0.000000
vt -0.000000 0.197801 0.000000
vt 0.708333 0.184321 0.000000
vt 1.416667 0.145019 0.000000
vt 0.675000 -0.015680 0.000000
vt 2.125000 0.082196 0.000000
vt 1.350000 -0.054981 0.000000
vt 2.833333 -0.002199 0.000000
vt 2.025000 -0.117804 0.000000
vt 2.700000 -0.202199 0.000000
vt -2.700000 -0.202199 0.000000
vt -2.025000 -0.117804 0.000000
vt -2.833333 -0.002199 0.000000
vt -1.350000 -0.054981 0.000000
vt -2.125000 0.082196 0.000000
vt -0.675000 -0.015680 0.000000
vt -1.416667 0.145019 0.000000
vt -0.000000 -0.002199 0.000000
vt -0.708333 0.184321 0.000000
vt 0.000000 0.197801 0.000000
vt 0.708333 0.184321 0.000000
vt 1.416667 0.145019 0.000000
vt 0.675000 -0.015680 0.000000
vt 2.125000 0.082196 0.000000
vt 1.350000 -0.054981 0.000000
vt 2.833333 -0.002199 0.000000
vt 2.025000 -0.117804 0.000000
vt 2.700000 -0.202199 0.000000
vn -0.832050 -0.554700 0.000000
vn -0.832050 -0.554700 0.000000
vn -0.832050 -0.554700 0.000000
vn -0.832050 -0.554700 0.000000
vn 0.132666 0.991161 -0.000000
vn 0.103700 0.994609 -0.000000
vn 0.132666 0.991161 -0.000000
vn 0.103700 0.994609 -0.000000
vn 0.072453 0.997372 -0.000000
vn 0.072453 0.997372 -0.000000
vn 0.037721 0.999288 -0.000000
vn 0.037721 0.999288 -0.000000
vn -0.000000 1.000000 0.000000
vn -0.000000 1.000000 0.000000
vn -0.037721 0.999288 0.000000
vn -0.037721 0.999288 0.000000
vn -0.072453 0.997372 0.000000
vn -0.072453 0.997372 0.000000
vn -0.103700 0.994609 0.000000
vn -0.103700 0.994609 0.000000
vn -0.132666 0.991161 0.000000
vn -0.132666 0.991161 0.000000
vn 0.832050 -0.554700 0.000000
vn 0.832050 -0.554700 0.000000
vn 0.832050 -0.554700 0.000000
vn 0.832050 -0.554700 0.000000
vn 0.139093 -0.990279 0.000000
vn 0.108762 -0.994068 0.000000
vn 0.139093 -0.990279 0.000000
vn 0.108762 -0.994068 0.000000
vn 0.076010 -0.997107 0.000000
vn 0.076010 -0.997107 0.000000
vn 0.039581 -0.999216 0.000000
vn 0.039581 -0.999216 0.000000
vn 0.000000 -1.000000 0.000000
vn 0.000000 -1.000000 0.000000
vn -0.039581 -0.999216 0.000000
vn -0.039581 -0.999216 0.000000
vn -0.076010 -0.997107 0.000000
vn -0.076010 -0.997107 0.000000
vn -0.108762 -0.994068 0.000000
vn -0.108762 -0.994068 0.000000
vn -0.139093 -0.990279 0.000000
vn -0.139093 -0.990279 0.000000
vn 0.000000 0.000000 1.000000
vn 0.000000 0.000000 1.000000
vn 0.000000 0.000000 1.000000
vn 0.000000 0.000000 1.000000
vn 0.000000 0.000000 1.000000
vn 0.000000 0.000000 1.000000
vn 0.000000 0.000000 1.000000
vn 0.000000 0.000000 1.000000
vn 0.000000 0.000000 1.000000
vn 0.000000 0.000000 1.000000
vn 0.000000 0.000000 1.000000
vn 0.000000 0.000000 1.000000
vn 0.000000 0.000000 1.000000
vn 0.000000 0.000000 1.000000
vn 0.000000 0.000000 1.000000
vn 0.000000 0.000000 1.000000
vn 0.000000 0.000000 1.000000
vn 0.000000 0.000000 1.000000
vn -0.000000 -0.000000 -1.000000
vn -0.000000 -0.000000 -1.000000
vn -0.000000 -0.000000 -1.000000
vn -0.000000 -0.000000 -1.000000
vn -0.000000 -0.000000 -1.000000
vn -0.000000 -0.000000 -1.000000
vn -0.000000 -0.000000 -1.000000
vn -0.000000 -0.000000 -1.000000
vn -0.000000 -0.000000 -1.000000
vn -0.000000 -0.000000 -1.000000
vn -0.000000 -0.000000 -1.000000
vn -0.000000 -0.000000 -1.000000
vn -0.000000 -0.000000 -1.000000
vn -0.000000 -0.000000 -1.000000
vn -0.000000 -0.000000 -1.000000
vn -0.000000 -0.000000 -1.000000
vn -0.000000 -0.000000 -1.000000
vn -0.000000 -0.000000 -1.000000
f 277/613/613 278/614/614 280/615/615
f 280/615/615 278/614/614 279/616/616
f 281/617/617 282/618/618 296/619/619
f 296/619/619 282/618/618 295/620/620
f 295/620/620 282/618/618 283/621/621
f 295/620/620 283/621/621 294/622/622
f 294/622/622 283/621/621 284/623/623
f 294/622/622 284/623/623 293/624/624
f 293/624/624 284/623/623 285/625/625
f 293/624/624 285/625/625 292/626/626
f 292/626/626 285/625/625 286/627/627
f 292/626/626 286/627/627 291/628/628
f 291/628/628 286/627/627 287/629/629
f 291/628/628 287/629/629 290/630/630
f 290/630/630 287/629/629 288/631/631
f 290/630/630 288/631/631 289/632/632
f 289/632/632 288/631/631 277/633/633
f 289/632/632 277/633/633 280/634/634
f 297/635/635 281/636/636 298/637/637
f 298/637/637 281/636/636 296/638/638
f 278/639/639 299/640/640 279/641/641
f 279/641/641 299/640/640 312/642/642
f 312/642/642 299/640/640 300/643/643
f 312/642/642 300/643/643 311/644/644
f 311/644/644 300/643/643 301/645/645
f 311/644/644 301/645/645 310/646/646
f 310/646/646 301/645/645 302/647/647
f 310/646/646 302/647/647 309/648/648
f 309/648/648 302/647/647 303/649/649
f 309/648/648 303/649/649 308/650/650
f 308/650/650 303/649/649 304/651/651
f 308/650/650 304/651/651 307/652/652
f 307/652/652 304/651/651 305/653/653
f 307/652/652 305/653/653 306/654/654
f 306/654/654 305/653/653 297/655/655
f 306/654/654 297/655/655 298/656/656
f 279/657/657 312/658/658 280/659/659
f 280/659/659 312/658/658 311/660/660
f 280/659/659 311/660/660 289/661/661
f 289/661/661 311/660/660 310/662/662
f 289/661/661 310/662/662 290/663/663
f 290/663/663 310/662/662 309/664/664
f 290/663/663 309/664/664 291/665/665
f 291/665/665 309/664/664 292/666/666
f 292/666/666 309/664/664 293/667/667
f 293/667/667 309/664/664 294/668/668
f 294/668/668 309/664/664 308/669/669
f 294/668/668 308/669/669 295/670/670
f 295/670/670 308/669/669 307/671/671
f 295/670/670 307/671/671 296/672/672
f 296/672/672 307/671/671 306/673/673
f 296/672/672 306/673/673 298/674/674
f 297/675/675 305/676/676 281/677/677
f 281/677/677 305/676/676 304/678/678
f 281/677/677 304/678/678 282/679/679
f 282/679/679 304/678/678 303/680/680
f 282/679/679 303/680/680 283/681/681
f 283/681/681 303/680/680 302/682/682
f 283/681/681 302/682/682 284/683/683
f 284/683/683 302/682/682 285/684/684
f 285/684/684 302/682/682 286/685/685
f 286/685/685 302/682/682 287/686/686
f 287/686/686 302/682/682 301/687/687
f 287/686/686 301/687/687 288/688/688
f 288/688/688 301/687/687 300/689/689
f 288/688/688 300/689/689 277/690/690
f 277/690/690 300/689/689 299/691/691
f 277/690/690 299/691/691 278/692/692
# 312 vertices
# 692 texture params
# 692 normals
# 592 facets

# 8 groups
