# WaveFront *.obj file (generated by Autodesk ATF)

mtllib InGA_Emitter_Holder.mtl

g Body1

v 5.500000 1.000000 0.000000
v 5.500000 0.500000 0.000000
v 5.500000 0.500000 0.300000
v 5.500000 1.000000 0.300000
v 5.000000 1.000000 0.000000
v 5.000000 1.000000 0.300000
v 5.000000 0.500000 0.000000
v 5.000000 0.500000 0.300000
v 2.500000 1.000000 0.000000
v 2.500000 0.500000 0.000000
v 2.500000 0.500000 0.300000
v 2.500000 1.000000 0.300000
v 2.000000 1.000000 0.000000
v 2.000000 1.000000 0.300000
v 2.000000 0.500000 0.000000
v 2.000000 0.500000 0.300000
v 1.500000 1.000000 0.000000
v 1.500000 0.500000 0.000000
v 1.500000 0.500000 0.300000
v 1.500000 1.000000 0.300000
v 1.000000 1.000000 0.000000
v 1.000000 1.000000 0.300000
v 1.000000 0.500000 0.000000
v 1.000000 0.500000 0.300000
v 3.500000 1.000000 0.000000
v 3.500000 0.500000 0.000000
v 3.500000 0.500000 0.300000
v 3.500000 1.000000 0.300000
v 3.000000 1.000000 0.000000
v 3.000000 1.000000 0.300000
v 3.000000 0.500000 0.000000
v 3.000000 0.500000 0.300000
v 4.500000 1.000000 0.000000
v 4.500000 0.500000 0.000000
v 4.500000 0.500000 0.300000
v 4.500000 1.000000 0.300000
v 4.000000 1.000000 0.000000
v 4.000000 1.000000 0.300000
v 4.000000 0.500000 0.000000
v 4.000000 0.500000 0.300000
v 0.000000 1.500000 0.000000
v 0.000000 0.000000 0.000000
v 0.000000 0.000000 0.300000
v 0.000000 1.500000 0.300000
v 6.000000 1.500000 0.000000
v 6.000000 1.500000 0.300000
v 6.000000 0.000000 0.000000
v 6.000000 0.000000 0.300000
vt 0.000000 0.000000 0.000000
vt 0.500000 0.000000 0.000000
vt 0.000000 0.300000 0.000000
vt 0.500000 0.300000 0.000000
vt 0.000000 0.000000 0.000000
vt 0.500000 0.000000 0.000000
vt 0.000000 0.300000 0.000000
vt 0.500000 0.300000 0.000000
vt 0.000000 0.000000 0.000000
vt 0.500000 0.000000 0.000000
vt 0.000000 0.300000 0.000000
vt 0.500000 0.300000 0.000000
vt 0.000000 0.000000 0.000000
vt 0.500000 0.000000 0.000000
vt 0.000000 0.300000 0.000000
vt 0.500000 0.300000 0.000000
vt 0.000000 0.000000 0.000000
vt 0.500000 0.000000 0.000000
vt 0.000000 0.300000 0.000000
vt 0.500000 0.300000 0.000000
vt 0.000000 0.000000 0.000000
vt 0.500000 0.000000 0.000000
vt 0.000000 0.300000 0.000000
vt 0.500000 0.300000 0.000000
vt 0.000000 0.000000 0.000000
vt 0.500000 0.000000 0.000000
vt 0.000000 0.300000 0.000000
vt 0.500000 0.300000 0.000000
vt 0.000000 0.000000 0.000000
vt 0.500000 0.000000 0.000000
vt 0.000000 0.300000 0.000000
vt 0.500000 0.300000 0.000000
vt 0.000000 0.000000 0.000000
vt 0.500000 0.000000 0.000000
vt 0.000000 0.300000 0.000000
vt 0.500000 0.300000 0.000000
vt 0.000000 0.000000 0.000000
vt 0.500000 0.000000 0.000000
vt 0.000000 0.300000 0.000000
vt 0.500000 0.300000 0.000000
vt 0.000000 0.000000 0.000000
vt 0.500000 0.000000 0.000000
vt 0.000000 0.300000 0.000000
vt 0.500000 0.300000 0.000000
vt 0.000000 0.000000 0.000000
vt 0.500000 0.000000 0.000000
vt 0.000000 0.300000 0.000000
vt 0.500000 0.300000 0.000000
vt 0.000000 0.000000 0.000000
vt 0.500000 0.000000 0.000000
vt 0.000000 0.300000 0.000000
vt 0.500000 0.300000 0.000000
vt 0.000000 0.000000 0.000000
vt 0.500000 0.000000 0.000000
vt 0.000000 0.300000 0.000000
vt 0.500000 0.300000 0.000000
vt 0.000000 0.000000 0.000000
vt 0.500000 0.000000 0.000000
vt 0.000000 0.300000 0.000000
vt 0.500000 0.300000 0.000000
vt 0.000000 0.000000 0.000000
vt 0.500000 0.000000 0.000000
vt 0.000000 0.300000 0.000000
vt 0.500000 0.300000 0.000000
vt 0.000000 0.000000 0.000000
vt 0.500000 0.000000 0.000000
vt 0.000000 0.300000 0.000000
vt 0.500000 0.300000 0.000000
vt 0.000000 0.000000 0.000000
vt 0.500000 0.000000 0.000000
vt 0.000000 0.300000 0.000000
vt 0.500000 0.300000 0.000000
vt 0.000000 0.000000 0.000000
vt 0.500000 0.000000 0.000000
vt 0.000000 0.300000 0.000000
vt 0.500000 0.300000 0.000000
vt 0.000000 0.000000 0.000000
vt 0.500000 0.000000 0.000000
vt 0.000000 0.300000 0.000000
vt 0.500000 0.300000 0.000000
vt -0.000000 0.000000 0.000000
vt 1.500000 0.000000 0.000000
vt -0.000000 0.300000 0.000000
vt 1.500000 0.300000 0.000000
vt -0.000000 0.000000 0.000000
vt 6.000000 0.000000 0.000000
vt -0.000000 0.300000 0.000000
vt 6.000000 0.300000 0.000000
vt 0.000000 0.000000 0.000000
vt 1.500000 0.000000 0.000000
vt 0.000000 0.300000 0.000000
vt 1.500000 0.300000 0.000000
vt 0.000000 0.000000 0.000000
vt 6.000000 0.000000 0.000000
vt 0.000000 0.300000 0.000000
vt 6.000000 0.300000 0.000000
vt 1.000000 -0.250000 0.000000
vt 3.000000 -0.750000 0.000000
vt 1.500000 -0.250000 0.000000
vt 2.000000 -0.250000 0.000000
vt 1.500000 0.250000 0.000000
vt 2.000000 0.250000 0.000000
vt 3.000000 0.750000 0.000000
vt 2.500000 0.250000 0.000000
vt 2.500000 -0.250000 0.000000
vt 1.000000 0.250000 0.000000
vt 0.500000 0.250000 0.000000
vt 0.500000 -0.250000 0.000000
vt 0.000000 -0.250000 0.000000
vt -3.000000 -0.750000 0.000000
vt -0.500000 -0.250000 0.000000
vt -1.000000 -0.250000 0.000000
vt -0.500000 0.250000 0.000000
vt 0.000000 0.250000 0.000000
vt -3.000000 0.750000 0.000000
vt -2.000000 -0.250000 0.000000
vt -1.500000 -0.250000 0.000000
vt -1.500000 0.250000 0.000000
vt -1.000000 0.250000 0.000000
vt -2.000000 0.250000 0.000000
vt -1.500000 -0.250000 0.000000
vt -3.000000 -0.750000 0.000000
vt -1.000000 -0.250000 0.000000
vt -0.500000 -0.250000 0.000000
vt -1.000000 0.250000 0.000000
vt -0.500000 0.250000 0.000000
vt -3.000000 0.750000 0.000000
vt -0.000000 0.250000 0.000000
vt 3.000000 0.750000 0.000000
vt 0.500000 0.250000 0.000000
vt 1.000000 0.250000 0.000000
vt -1.500000 0.250000 0.000000
vt -2.000000 0.250000 0.000000
vt -2.000000 -0.250000 0.000000
vt -2.500000 -0.250000 0.000000
vt -2.500000 0.250000 0.000000
vt -0.000000 -0.250000 0.000000
vt 3.000000 -0.750000 0.000000
vt 0.500000 -0.250000 0.000000
vt 1.000000 -0.250000 0.000000
vt 1.500000 -0.250000 0.000000
vt 1.500000 0.250000 0.000000
vt 2.000000 0.250000 0.000000
vt 2.000000 -0.250000 0.000000
vn -1.000000 0.000000 0.000000
vn -1.000000 0.000000 0.000000
vn -1.000000 0.000000 0.000000
vn -1.000000 0.000000 0.000000
vn 0.000000 -1.000000 0.000000
vn 0.000000 -1.000000 0.000000
vn 0.000000 -1.000000 0.000000
vn 0.000000 -1.000000 0.000000
vn 1.000000 0.000000 0.000000
vn 1.000000 0.000000 0.000000
vn 1.000000 0.000000 0.000000
vn 1.000000 0.000000 0.000000
vn 0.000000 1.000000 -0.000000
vn 0.000000 1.000000 -0.000000
vn 0.000000 1.000000 -0.000000
vn 0.000000 1.000000 -0.000000
vn -1.000000 0.000000 0.000000
vn -1.000000 0.000000 0.000000
vn -1.000000 0.000000 0.000000
vn -1.000000 0.000000 0.000000
vn 0.000000 -1.000000 0.000000
vn 0.000000 -1.000000 0.000000
vn 0.000000 -1.000000 0.000000
vn 0.000000 -1.000000 0.000000
vn 1.000000 0.000000 0.000000
vn 1.000000 0.000000 0.000000
vn 1.000000 0.000000 0.000000
vn 1.000000 0.000000 0.000000
vn 0.000000 1.000000 -0.000000
vn 0.000000 1.000000 -0.000000
vn 0.000000 1.000000 -0.000000
vn 0.000000 1.000000 -0.000000
vn -1.000000 0.000000 0.000000
vn -1.000000 0.000000 0.000000
vn -1.000000 0.000000 0.000000
vn -1.000000 0.000000 0.000000
vn 0.000000 -1.000000 0.000000
vn 0.000000 -1.000000 0.000000
vn 0.000000 -1.000000 0.000000
vn 0.000000 -1.000000 0.000000
vn 1.000000 0.000000 0.000000
vn 1.000000 0.000000 0.000000
vn 1.000000 0.000000 0.000000
vn 1.000000 0.000000 0.000000
vn 0.000000 1.000000 -0.000000
vn 0.000000 1.000000 -0.000000
vn 0.000000 1.000000 -0.000000
vn 0.000000 1.000000 -0.000000
vn -1.000000 0.000000 0.000000
vn -1.000000 0.000000 0.000000
vn -1.000000 0.000000 0.000000
vn -1.000000 0.000000 0.000000
vn 0.000000 -1.000000 0.000000
vn 0.000000 -1.000000 0.000000
vn 0.000000 -1.000000 0.000000
vn 0.000000 -1.000000 0.000000
vn 1.000000 0.000000 0.000000
vn 1.000000 0.000000 0.000000
vn 1.000000 0.000000 0.000000
vn 1.000000 0.000000 0.000000
vn 0.000000 1.000000 -0.000000
vn 0.000000 1.000000 -0.000000
vn 0.000000 1.000000 -0.000000
vn 0.000000 1.000000 -0.000000
vn -1.000000 0.000000 0.000000
vn -1.000000 0.000000 0.000000
vn -1.000000 0.000000 0.000000
vn -1.000000 0.000000 0.000000
vn 0.000000 -1.000000 0.000000
vn 0.000000 -1.000000 0.000000
vn 0.000000 -1.000000 0.000000
vn 0.000000 -1.000000 0.000000
vn 1.000000 0.000000 0.000000
vn 1.000000 0.000000 0.000000
vn 1.000000 0.000000 0.000000
vn 1.000000 0.000000 0.000000
vn 0.000000 1.000000 -0.000000
vn 0.000000 1.000000 -0.000000
vn 0.000000 1.000000 -0.000000
vn 0.000000 1.000000 -0.000000
vn -1.000000 0.000000 0.000000
vn -1.000000 0.000000 0.000000
vn -1.000000 0.000000 0.000000
vn -1.000000 0.000000 0.000000
vn 0.000000 1.000000 0.000000
vn 0.000000 1.000000 0.000000
vn 0.000000 1.000000 0.000000
vn 0.000000 1.000000 0.000000
vn 1.000000 0.000000 -0.000000
vn 1.000000 0.000000 -0.000000
vn 1.000000 0.000000 -0.000000
vn 1.000000 0.000000 -0.000000
vn 0.000000 -1.000000 0.000000
vn 0.000000 -1.000000 0.000000
vn 0.000000 -1.000000 0.000000
vn 0.000000 -1.000000 0.000000
vn 0.000000 0.000000 1.000000
vn 0.000000 0.000000 1.000000
vn 0.000000 0.000000 1.000000
vn 0.000000 0.000000 1.000000
vn 0.000000 0.000000 1.000000
vn 0.000000 0.000000 1.000000
vn 0.000000 0.000000 1.000000
vn 0.000000 0.000000 1.000000
vn 0.000000 0.000000 1.000000
vn 0.000000 0.000000 1.000000
vn 0.000000 0.000000 1.000000
vn 0.000000 0.000000 1.000000
vn 0.000000 0.000000 1.000000
vn 0.000000 0.000000 1.000000
vn 0.000000 0.000000 1.000000
vn 0.000000 0.000000 1.000000
vn 0.000000 0.000000 1.000000
vn 0.000000 0.000000 1.000000
vn 0.000000 0.000000 1.000000
vn 0.000000 0.000000 1.000000
vn 0.000000 0.000000 1.000000
vn 0.000000 0.000000 1.000000
vn 0.000000 0.000000 1.000000
vn 0.000000 0.000000 1.000000
vn -0.000000 0.000000 -1.000000
vn -0.000000 0.000000 -1.000000
vn -0.000000 0.000000 -1.000000
vn -0.000000 0.000000 -1.000000
vn -0.000000 0.000000 -1.000000
vn -0.000000 0.000000 -1.000000
vn -0.000000 0.000000 -1.000000
vn -0.000000 0.000000 -1.000000
vn -0.000000 0.000000 -1.000000
vn -0.000000 0.000000 -1.000000
vn -0.000000 0.000000 -1.000000
vn -0.000000 0.000000 -1.000000
vn -0.000000 0.000000 -1.000000
vn -0.000000 0.000000 -1.000000
vn -0.000000 0.000000 -1.000000
vn -0.000000 0.000000 -1.000000
vn -0.000000 0.000000 -1.000000
vn -0.000000 0.000000 -1.000000
vn -0.000000 0.000000 -1.000000
vn -0.000000 0.000000 -1.000000
vn -0.000000 0.000000 -1.000000
vn -0.000000 0.000000 -1.000000
vn -0.000000 0.000000 -1.000000
vn -0.000000 0.000000 -1.000000
usemtl Steel_-_Satin
f 1/1/1 2/2/2 4/3/3
f 4/3/3 2/2/2 3/4/4
f 5/5/5 1/6/6 6/7/7
f 6/7/7 1/6/6 4/8/8
f 7/9/9 5/10/10 8/11/11
f 8/11/11 5/10/10 6/12/12
f 2/13/13 7/14/14 3/15/15
f 3/15/15 7/14/14 8/16/16
f 9/17/17 10/18/18 12/19/19
f 12/19/19 10/18/18 11/20/20
f 13/21/21 9/22/22 14/23/23
f 14/23/23 9/22/22 12/24/24
f 15/25/25 13/26/26 16/27/27
f 16/27/27 13/26/26 14/28/28
f 10/29/29 15/30/30 11/31/31
f 11/31/31 15/30/30 16/32/32
f 17/33/33 18/34/34 20/35/35
f 20/35/35 18/34/34 19/36/36
f 21/37/37 17/38/38 22/39/39
f 22/39/39 17/38/38 20/40/40
f 23/41/41 21/42/42 24/43/43
f 24/43/43 21/42/42 22/44/44
f 18/45/45 23/46/46 19/47/47
f 19/47/47 23/46/46 24/48/48
f 25/49/49 26/50/50 28/51/51
f 28/51/51 26/50/50 27/52/52
f 29/53/53 25/54/54 30/55/55
f 30/55/55 25/54/54 28/56/56
f 31/57/57 29/58/58 32/59/59
f 32/59/59 29/58/58 30/60/60
f 26/61/61 31/62/62 27/63/63
f 27/63/63 31/62/62 32/64/64
f 33/65/65 34/66/66 36/67/67
f 36/67/67 34/66/66 35/68/68
f 37/69/69 33/70/70 38/71/71
f 38/71/71 33/70/70 36/72/72
f 39/73/73 37/74/74 40/75/75
f 40/75/75 37/74/74 38/76/76
f 34/77/77 39/78/78 35/79/79
f 35/79/79 39/78/78 40/80/80
f 41/81/81 42/82/82 44/83/83
f 44/83/83 42/82/82 43/84/84
f 45/85/85 41/86/86 46/87/87
f 46/87/87 41/86/86 44/88/88
f 47/89/89 45/90/90 48/91/91
f 48/91/91 45/90/90 46/92/92
f 42/93/93 47/94/94 43/95/95
f 43/95/95 47/94/94 48/96/96
f 40/97/97 48/98/98 35/99/99
f 35/99/99 48/98/98 8/100/100
f 35/99/99 8/100/100 36/101/101
f 36/101/101 8/100/100 6/102/102
f 36/101/101 6/102/102 46/103/103
f 46/103/103 6/102/102 4/104/104
f 46/103/103 4/104/104 48/98/98
f 48/98/98 4/104/104 3/105/105
f 48/98/98 3/105/105 8/100/100
f 38/106/106 28/107/107 40/97/97
f 40/97/97 28/107/107 27/108/108
f 40/97/97 27/108/108 48/98/98
f 48/98/98 27/108/108 32/109/109
f 48/98/98 32/109/109 43/110/110
f 43/110/110 32/109/109 11/111/111
f 43/110/110 11/111/111 16/112/112
f 28/107/107 38/106/106 46/103/103
f 46/103/103 38/106/106 36/101/101
f 11/111/111 32/109/109 12/113/113
f 12/113/113 32/109/109 30/114/114
f 12/113/113 30/114/114 44/115/115
f 44/115/115 30/114/114 46/103/103
f 46/103/103 30/114/114 28/107/107
f 24/116/116 43/110/110 19/117/117
f 19/117/117 43/110/110 16/112/112
f 19/117/117 16/112/112 20/118/118
f 20/118/118 16/112/112 14/119/119
f 20/118/118 14/119/119 44/115/115
f 44/115/115 14/119/119 12/113/113
f 24/116/116 22/120/120 43/110/110
f 43/110/110 22/120/120 44/115/115
f 44/115/115 22/120/120 20/118/118
f 34/121/121 47/122/122 39/123/123
f 39/123/123 47/122/122 26/124/124
f 39/123/123 26/124/124 37/125/125
f 37/125/125 26/124/124 25/126/126
f 37/125/125 25/126/126 45/127/127
f 45/127/127 25/126/126 29/128/128
f 45/127/127 29/128/128 41/129/129
f 41/129/129 29/128/128 9/130/130
f 41/129/129 9/130/130 13/131/131
f 33/132/132 5/133/133 34/121/121
f 34/121/121 5/133/133 7/134/134
f 34/121/121 7/134/134 47/122/122
f 47/122/122 7/134/134 2/135/135
f 47/122/122 2/135/135 1/136/136
f 5/133/133 33/132/132 45/127/127
f 45/127/127 33/132/132 37/125/125
f 26/124/124 47/122/122 31/137/137
f 31/137/137 47/122/122 42/138/138
f 31/137/137 42/138/138 10/139/139
f 10/139/139 42/138/138 15/140/140
f 15/140/140 42/138/138 18/141/141
f 15/140/140 18/141/141 13/131/131
f 13/131/131 18/141/141 17/142/142
f 13/131/131 17/142/142 41/129/129
f 41/129/129 17/142/142 21/143/143
f 41/129/129 21/143/143 42/138/138
f 42/138/138 21/143/143 23/144/144
f 42/138/138 23/144/144 18/141/141
f 9/130/130 29/128/128 10/139/139
f 10/139/139 29/128/128 31/137/137
f 47/122/122 1/136/136 45/127/127
f 45/127/127 1/136/136 5/133/133
# 48 vertices
# 144 texture params
# 144 normals
# 112 facets

# 1 groups
