# WaveFront *.obj file (generated by Autodesk ATF)

mtllib large_wifi.mtl

g Body1

v -1.000000 0.700000 0.000000
v -0.400000 0.350000 0.000000
v -0.400000 0.350000 0.050000
v -1.000000 0.700000 0.050000
v 1.000000 0.700000 0.000000
v 1.000000 0.700000 0.050000
v 0.400000 0.350000 0.000000
v 0.400000 0.350000 0.050000
v 0.400000 0.000000 0.000000
v 0.400000 0.000000 0.050000
v -0.400000 0.000000 0.000000
v -0.400000 0.000000 0.050000
vt 0.000000 0.000000 0.000000
vt 0.694622 0.000000 0.000000
vt 0.000000 0.050000 0.000000
vt 0.694622 0.050000 0.000000
vt -0.000000 0.000000 0.000000
vt 2.000000 0.000000 0.000000
vt -0.000000 0.050000 0.000000
vt 2.000000 0.050000 0.000000
vt 0.000000 0.000000 0.000000
vt 0.694622 0.000000 0.000000
vt 0.000000 0.050000 0.000000
vt 0.694622 0.050000 0.000000
vt 0.000000 0.000000 0.000000
vt 0.350000 0.000000 0.000000
vt 0.000000 0.050000 0.000000
vt 0.350000 0.050000 0.000000
vt 0.000000 0.000000 0.000000
vt 0.800000 0.000000 0.000000
vt 0.000000 0.050000 0.000000
vt 0.800000 0.050000 0.000000
vt 0.000000 0.000000 0.000000
vt 0.350000 0.000000 0.000000
vt 0.000000 0.050000 0.000000
vt 0.350000 0.050000 0.000000
vt -0.400000 -0.350000 0.000000
vt 0.400000 -0.350000 0.000000
vt -0.400000 0.000000 0.000000
vt 0.400000 0.000000 0.000000
vt -1.000000 0.350000 0.000000
vt 1.000000 0.350000 0.000000
vt -0.400000 -0.350000 0.000000
vt 0.400000 -0.350000 0.000000
vt -0.400000 0.000000 0.000000
vt 0.400000 0.000000 0.000000
vt -1.000000 0.350000 0.000000
vt 1.000000 0.350000 0.000000
vn -0.503871 -0.863779 0.000000
vn -0.503871 -0.863779 0.000000
vn -0.503871 -0.863779 0.000000
vn -0.503871 -0.863779 0.000000
vn 0.000000 1.000000 0.000000
vn 0.000000 1.000000 0.000000
vn 0.000000 1.000000 0.000000
vn 0.000000 1.000000 0.000000
vn 0.503871 -0.863779 0.000000
vn 0.503871 -0.863779 0.000000
vn 0.503871 -0.863779 0.000000
vn 0.503871 -0.863779 0.000000
vn 1.000000 0.000000 0.000000
vn 1.000000 0.000000 0.000000
vn 1.000000 0.000000 0.000000
vn 1.000000 0.000000 0.000000
vn 0.000000 -1.000000 0.000000
vn 0.000000 -1.000000 0.000000
vn 0.000000 -1.000000 0.000000
vn 0.000000 -1.000000 0.000000
vn -1.000000 0.000000 0.000000
vn -1.000000 0.000000 0.000000
vn -1.000000 0.000000 0.000000
vn -1.000000 0.000000 0.000000
vn 0.000000 0.000000 1.000000
vn 0.000000 0.000000 1.000000
vn 0.000000 0.000000 1.000000
vn 0.000000 0.000000 1.000000
vn 0.000000 0.000000 1.000000
vn 0.000000 0.000000 1.000000
vn -0.000000 -0.000000 -1.000000
vn -0.000000 -0.000000 -1.000000
vn -0.000000 -0.000000 -1.000000
vn -0.000000 -0.000000 -1.000000
vn -0.000000 -0.000000 -1.000000
vn -0.000000 -0.000000 -1.000000
usemtl Steel_-_Satin
f 1/1/1 2/2/2 4/3/3
f 4/3/3 2/2/2 3/4/4
f 5/5/5 1/6/6 6/7/7
f 6/7/7 1/6/6 4/8/8
f 7/9/9 5/10/10 8/11/11
f 8/11/11 5/10/10 6/12/12
f 9/13/13 7/14/14 10/15/15
f 10/15/15 7/14/14 8/16/16
f 11/17/17 9/18/18 12/19/19
f 12/19/19 9/18/18 10/20/20
f 2/21/21 11/22/22 3/23/23
f 3/23/23 11/22/22 12/24/24
f 12/25/25 10/26/26 3/27/27
f 3/27/27 10/26/26 8/28/28
f 3/27/27 8/28/28 4/29/29
f 4/29/29 8/28/28 6/30/30
f 9/31/31 11/32/32 7/33/33
f 7/33/33 11/32/32 2/34/34
f 7/33/33 2/34/34 5/35/35
f 5/35/35 2/34/34 1/36/36
g Body18

v -2.033333 2.200000 0.000000
v -1.900000 2.000000 0.000000
v -1.900000 2.000000 0.050000
v -2.033333 2.200000 0.050000
v 2.033333 2.200000 0.000000
v 1.525000 2.284395 0.000000
v 1.016667 2.347219 0.000000
v 0.508333 2.386520 0.000000
v 0.000000 2.400000 0.000000
v -0.508333 2.386520 0.000000
v -1.016667 2.347219 0.000000
v -1.525000 2.284395 0.000000
v -1.525000 2.284395 0.050000
v -1.016667 2.347219 0.050000
v -0.508333 2.386520 0.050000
v 0.000000 2.400000 0.050000
v 0.508333 2.386520 0.050000
v 1.016667 2.347219 0.050000
v 1.525000 2.284395 0.050000
v 2.033333 2.200000 0.050000
v 1.900000 2.000000 0.000000
v 1.900000 2.000000 0.050000
v -1.425000 2.084395 0.000000
v -0.950000 2.147219 0.000000
v -0.475000 2.186520 0.000000
v 0.000000 2.200000 0.000000
v 0.475000 2.186520 0.000000
v 0.950000 2.147219 0.000000
v 1.425000 2.084395 0.000000
v 1.425000 2.084395 0.050000
v 0.950000 2.147219 0.050000
v 0.475000 2.186520 0.050000
v 0.000000 2.200000 0.050000
v -0.475000 2.186520 0.050000
v -0.950000 2.147219 0.050000
v -1.425000 2.084395 0.050000
vt 0.000000 0.000000 0.000000
vt 0.240370 0.000000 0.000000
vt 0.000000 0.050000 0.000000
vt 0.240370 0.050000 0.000000
vt -4.066667 0.000000 0.000000
vt -3.558333 0.000000 0.000000
vt -4.066667 0.050000 0.000000
vt -3.558333 0.050000 0.000000
vt -3.050000 0.000000 0.000000
vt -3.050000 0.050000 0.000000
vt -2.541667 0.000000 0.000000
vt -2.541667 0.050000 0.000000
vt -2.033333 0.000000 0.000000
vt -2.033333 0.050000 0.000000
vt -1.525000 0.000000 0.000000
vt -1.525000 0.050000 0.000000
vt -1.016667 0.000000 0.000000
vt -1.016667 0.050000 0.000000
vt -0.508333 0.000000 0.000000
vt -0.508333 0.050000 0.000000
vt 0.000000 0.000000 0.000000
vt 0.000000 0.050000 0.000000
vt 0.000000 0.000000 0.000000
vt 0.240370 0.000000 0.000000
vt 0.000000 0.050000 0.000000
vt 0.240370 0.050000 0.000000
vt 0.000000 0.000000 0.000000
vt 0.475000 0.000000 0.000000
vt 0.000000 0.050000 0.000000
vt 0.475000 0.050000 0.000000
vt 0.950000 0.000000 0.000000
vt 0.950000 0.050000 0.000000
vt 1.425000 0.000000 0.000000
vt 1.425000 0.050000 0.000000
vt 1.900000 0.000000 0.000000
vt 1.900000 0.050000 0.000000
vt 2.375000 0.000000 0.000000
vt 2.375000 0.050000 0.000000
vt 2.850000 0.000000 0.000000
vt 2.850000 0.050000 0.000000
vt 3.325000 0.000000 0.000000
vt 3.325000 0.050000 0.000000
vt 3.800000 0.000000 0.000000
vt 3.800000 0.050000 0.000000
vt -1.900000 -0.202199 0.000000
vt -1.425000 -0.117804 0.000000
vt -2.033333 -0.002199 0.000000
vt -0.950000 -0.054981 0.000000
vt -1.525000 0.082196 0.000000
vt -0.475000 -0.015680 0.000000
vt -1.016667 0.145019 0.000000
vt 0.000000 -0.002199 0.000000
vt -0.508333 0.184321 0.000000
vt 0.000000 0.197801 0.000000
vt 0.508333 0.184321 0.000000
vt 1.016667 0.145019 0.000000
vt 0.475000 -0.015680 0.000000
vt 1.525000 0.082196 0.000000
vt 0.950000 -0.054981 0.000000
vt 2.033333 -0.002199 0.000000
vt 1.425000 -0.117804 0.000000
vt 1.900000 -0.202199 0.000000
vt -1.900000 -0.202199 0.000000
vt -1.425000 -0.117804 0.000000
vt -2.033333 -0.002199 0.000000
vt -0.950000 -0.054981 0.000000
vt -1.525000 0.082196 0.000000
vt -0.475000 -0.015680 0.000000
vt -1.016667 0.145019 0.000000
vt -0.000000 -0.002199 0.000000
vt -0.508333 0.184321 0.000000
vt -0.000000 0.197801 0.000000
vt 0.508333 0.184321 0.000000
vt 1.016667 0.145019 0.000000
vt 0.475000 -0.015680 0.000000
vt 1.525000 0.082196 0.000000
vt 0.950000 -0.054981 0.000000
vt 2.033333 -0.002199 0.000000
vt 1.425000 -0.117804 0.000000
vt 1.900000 -0.202199 0.000000
vn -0.832050 -0.554700 0.000000
vn -0.832050 -0.554700 0.000000
vn -0.832050 -0.554700 0.000000
vn -0.832050 -0.554700 0.000000
vn 0.183349 0.983048 -0.000000
vn 0.143774 0.989611 -0.000000
vn 0.183349 0.983048 -0.000000
vn 0.143774 0.989611 -0.000000
vn 0.100710 0.994916 -0.000000
vn 0.100710 0.994916 -0.000000
vn 0.052527 0.998619 -0.000000
vn 0.052527 0.998619 -0.000000
vn -0.000000 1.000000 0.000000
vn -0.000000 1.000000 0.000000
vn -0.052527 0.998619 0.000000
vn -0.052527 0.998619 0.000000
vn -0.100710 0.994916 0.000000
vn -0.100710 0.994916 0.000000
vn -0.143774 0.989611 0.000000
vn -0.143774 0.989611 0.000000
vn -0.183349 0.983048 0.000000
vn -0.183349 0.983048 0.000000
vn 0.832050 -0.554700 0.000000
vn 0.832050 -0.554700 0.000000
vn 0.832050 -0.554700 0.000000
vn 0.832050 -0.554700 0.000000
vn 0.195738 -0.980656 0.000000
vn 0.153632 -0.988128 0.000000
vn 0.195738 -0.980656 0.000000
vn 0.153632 -0.988128 0.000000
vn 0.107698 -0.994184 0.000000
vn 0.107698 -0.994184 0.000000
vn 0.056202 -0.998419 0.000000
vn 0.056202 -0.998419 0.000000
vn 0.000000 -1.000000 0.000000
vn 0.000000 -1.000000 0.000000
vn -0.056202 -0.998419 0.000000
vn -0.056202 -0.998419 0.000000
vn -0.107698 -0.994184 0.000000
vn -0.107698 -0.994184 0.000000
vn -0.153632 -0.988128 0.000000
vn -0.153632 -0.988128 0.000000
vn -0.195738 -0.980656 0.000000
vn -0.195738 -0.980656 0.000000
vn 0.000000 0.000000 1.000000
vn 0.000000 0.000000 1.000000
vn 0.000000 0.000000 1.000000
vn 0.000000 0.000000 1.000000
vn 0.000000 0.000000 1.000000
vn 0.000000 0.000000 1.000000
vn 0.000000 0.000000 1.000000
vn 0.000000 0.000000 1.000000
vn 0.000000 0.000000 1.000000
vn 0.000000 0.000000 1.000000
vn 0.000000 0.000000 1.000000
vn 0.000000 0.000000 1.000000
vn 0.000000 0.000000 1.000000
vn 0.000000 0.000000 1.000000
vn 0.000000 0.000000 1.000000
vn 0.000000 0.000000 1.000000
vn 0.000000 0.000000 1.000000
vn 0.000000 0.000000 1.000000
vn -0.000000 -0.000000 -1.000000
vn -0.000000 -0.000000 -1.000000
vn -0.000000 -0.000000 -1.000000
vn -0.000000 -0.000000 -1.000000
vn -0.000000 -0.000000 -1.000000
vn -0.000000 -0.000000 -1.000000
vn -0.000000 -0.000000 -1.000000
vn -0.000000 -0.000000 -1.000000
vn -0.000000 -0.000000 -1.000000
vn -0.000000 -0.000000 -1.000000
vn -0.000000 -0.000000 -1.000000
vn -0.000000 -0.000000 -1.000000
vn -0.000000 -0.000000 -1.000000
vn -0.000000 -0.000000 -1.000000
vn -0.000000 -0.000000 -1.000000
vn -0.000000 -0.000000 -1.000000
vn -0.000000 -0.000000 -1.000000
vn -0.000000 -0.000000 -1.000000
f 13/37/37 14/38/38 16/39/39
f 16/39/39 14/38/38 15/40/40
f 17/41/41 18/42/42 32/43/43
f 32/43/43 18/42/42 31/44/44
f 31/44/44 18/42/42 19/45/45
f 31/44/44 19/45/45 30/46/46
f 30/46/46 19/45/45 20/47/47
f 30/46/46 20/47/47 29/48/48
f 29/48/48 20/47/47 21/49/49
f 29/48/48 21/49/49 28/50/50
f 28/50/50 21/49/49 22/51/51
f 28/50/50 22/51/51 27/52/52
f 27/52/52 22/51/51 23/53/53
f 27/52/52 23/53/53 26/54/54
f 26/54/54 23/53/53 24/55/55
f 26/54/54 24/55/55 25/56/56
f 25/56/56 24/55/55 13/57/57
f 25/56/56 13/57/57 16/58/58
f 33/59/59 17/60/60 34/61/61
f 34/61/61 17/60/60 32/62/62
f 14/63/63 35/64/64 15/65/65
f 15/65/65 35/64/64 48/66/66
f 48/66/66 35/64/64 36/67/67
f 48/66/66 36/67/67 47/68/68
f 47/68/68 36/67/67 37/69/69
f 47/68/68 37/69/69 46/70/70
f 46/70/70 37/69/69 38/71/71
f 46/70/70 38/71/71 45/72/72
f 45/72/72 38/71/71 39/73/73
f 45/72/72 39/73/73 44/74/74
f 44/74/74 39/73/73 40/75/75
f 44/74/74 40/75/75 43/76/76
f 43/76/76 40/75/75 41/77/77
f 43/76/76 41/77/77 42/78/78
f 42/78/78 41/77/77 33/79/79
f 42/78/78 33/79/79 34/80/80
f 15/81/81 48/82/82 16/83/83
f 16/83/83 48/82/82 47/84/84
f 16/83/83 47/84/84 25/85/85
f 25/85/85 47/84/84 46/86/86
f 25/85/85 46/86/86 26/87/87
f 26/87/87 46/86/86 45/88/88
f 26/87/87 45/88/88 27/89/89
f 27/89/89 45/88/88 28/90/90
f 28/90/90 45/88/88 29/91/91
f 29/91/91 45/88/88 30/92/92
f 30/92/92 45/88/88 44/93/93
f 30/92/92 44/93/93 31/94/94
f 31/94/94 44/93/93 43/95/95
f 31/94/94 43/95/95 32/96/96
f 32/96/96 43/95/95 42/97/97
f 32/96/96 42/97/97 34/98/98
f 33/99/99 41/100/100 17/101/101
f 17/101/101 41/100/100 40/102/102
f 17/101/101 40/102/102 18/103/103
f 18/103/103 40/102/102 39/104/104
f 18/103/103 39/104/104 19/105/105
f 19/105/105 39/104/104 38/106/106
f 19/105/105 38/106/106 20/107/107
f 20/107/107 38/106/106 21/108/108
f 21/108/108 38/106/106 22/109/109
f 22/109/109 38/106/106 23/110/110
f 23/110/110 38/106/106 37/111/111
f 23/110/110 37/111/111 24/112/112
f 24/112/112 37/111/111 36/113/113
f 24/112/112 36/113/113 13/114/114
f 13/114/114 36/113/113 35/115/115
f 13/114/114 35/115/115 14/116/116
g Body19

v -1.233333 1.000000 0.000000
v -1.100000 0.800000 0.000000
v -1.100000 0.800000 0.050000
v -1.233333 1.000000 0.050000
v 1.233333 1.000000 0.000000
v 1.079167 1.044813 0.000000
v 0.925000 1.084395 0.000000
v 0.770833 1.118604 0.000000
v 0.616667 1.147219 0.000000
v 0.462500 1.169960 0.000000
v 0.308333 1.186520 0.000000
v 0.154167 1.196608 0.000000
v 0.000000 1.200000 0.000000
v -0.154167 1.196608 0.000000
v -0.308333 1.186520 0.000000
v -0.462500 1.169960 0.000000
v -0.616667 1.147219 0.000000
v -0.770833 1.118604 0.000000
v -0.925000 1.084395 0.000000
v -1.079167 1.044813 0.000000
v -1.079167 1.044813 0.050000
v -0.925000 1.084395 0.050000
v -0.770833 1.118604 0.050000
v -0.616667 1.147219 0.050000
v -0.462500 1.169960 0.050000
v -0.308333 1.186520 0.050000
v -0.154167 1.196608 0.050000
v 0.000000 1.200000 0.050000
v 0.154167 1.196608 0.050000
v 0.308333 1.186520 0.050000
v 0.462500 1.169960 0.050000
v 0.616667 1.147219 0.050000
v 0.770833 1.118604 0.050000
v 0.925000 1.084395 0.050000
v 1.079167 1.044813 0.050000
v 1.233333 1.000000 0.050000
v 1.100000 0.800000 0.000000
v 1.100000 0.800000 0.050000
v -0.962500 0.844813 0.000000
v -0.825000 0.884395 0.000000
v -0.687500 0.918604 0.000000
v -0.550000 0.947219 0.000000
v -0.412500 0.969960 0.000000
v -0.275000 0.986520 0.000000
v -0.137500 0.996608 0.000000
v 0.000000 1.000000 0.000000
v 0.137500 0.996608 0.000000
v 0.275000 0.986520 0.000000
v 0.412500 0.969960 0.000000
v 0.550000 0.947219 0.000000
v 0.687500 0.918604 0.000000
v 0.825000 0.884395 0.000000
v 0.962500 0.844813 0.000000
v 0.962500 0.844813 0.050000
v 0.825000 0.884395 0.050000
v 0.687500 0.918604 0.050000
v 0.550000 0.947219 0.050000
v 0.412500 0.969960 0.050000
v 0.275000 0.986520 0.050000
v 0.137500 0.996608 0.050000
v 0.000000 1.000000 0.050000
v -0.137500 0.996608 0.050000
v -0.275000 0.986520 0.050000
v -0.412500 0.969960 0.050000
v -0.550000 0.947219 0.050000
v -0.687500 0.918604 0.050000
v -0.825000 0.884395 0.050000
v -0.962500 0.844813 0.050000
vt 0.000000 0.000000 0.000000
vt 0.240370 0.000000 0.000000
vt 0.000000 0.050000 0.000000
vt 0.240370 0.050000 0.000000
vt -2.466667 0.000000 0.000000
vt -2.312500 0.000000 0.000000
vt -2.466667 0.050000 0.000000
vt -2.312500 0.050000 0.000000
vt -2.158333 0.000000 0.000000
vt -2.158333 0.050000 0.000000
vt -2.004167 0.000000 0.000000
vt -2.004167 0.050000 0.000000
vt -1.850000 0.000000 0.000000
vt -1.850000 0.050000 0.000000
vt -1.695833 0.000000 0.000000
vt -1.695833 0.050000 0.000000
vt -1.541667 0.000000 0.000000
vt -1.541667 0.050000 0.000000
vt -1.387500 0.000000 0.000000
vt -1.387500 0.050000 0.000000
vt -1.233333 0.000000 0.000000
vt -1.233333 0.050000 0.000000
vt -1.079167 0.000000 0.000000
vt -1.079167 0.050000 0.000000
vt -0.925000 0.000000 0.000000
vt -0.925000 0.050000 0.000000
vt -0.770833 0.000000 0.000000
vt -0.770833 0.050000 0.000000
vt -0.616667 0.000000 0.000000
vt -0.616667 0.050000 0.000000
vt -0.462500 0.000000 0.000000
vt -0.462500 0.050000 0.000000
vt -0.308333 0.000000 0.000000
vt -0.308333 0.050000 0.000000
vt -0.154167 0.000000 0.000000
vt -0.154167 0.050000 0.000000
vt 0.000000 0.000000 0.000000
vt 0.000000 0.050000 0.000000
vt 0.000000 0.000000 0.000000
vt 0.240370 0.000000 0.000000
vt 0.000000 0.050000 0.000000
vt 0.240370 0.050000 0.000000
vt 0.000000 0.000000 0.000000
vt 0.137500 0.000000 0.000000
vt 0.000000 0.050000 0.000000
vt 0.137500 0.050000 0.000000
vt 0.275000 0.000000 0.000000
vt 0.275000 0.050000 0.000000
vt 0.412500 0.000000 0.000000
vt 0.412500 0.050000 0.000000
vt 0.550000 0.000000 0.000000
vt 0.550000 0.050000 0.000000
vt 0.687500 0.000000 0.000000
vt 0.687500 0.050000 0.000000
vt 0.825000 0.000000 0.000000
vt 0.825000 0.050000 0.000000
vt 0.962500 0.000000 0.000000
vt 0.962500 0.050000 0.000000
vt 1.100000 0.000000 0.000000
vt 1.100000 0.050000 0.000000
vt 1.237500 0.000000 0.000000
vt 1.237500 0.050000 0.000000
vt 1.375000 0.000000 0.000000
vt 1.375000 0.050000 0.000000
vt 1.512500 0.000000 0.000000
vt 1.512500 0.050000 0.000000
vt 1.650000 0.000000 0.000000
vt 1.650000 0.050000 0.000000
vt 1.787500 0.000000 0.000000
vt 1.787500 0.050000 0.000000
vt 1.925000 0.000000 0.000000
vt 1.925000 0.050000 0.000000
vt 2.062500 0.000000 0.000000
vt 2.062500 0.050000 0.000000
vt 2.200000 0.000000 0.000000
vt 2.200000 0.050000 0.000000
vt -1.100000 -0.202199 0.000000
vt -0.962500 -0.157386 0.000000
vt -1.233333 -0.002199 0.000000
vt -0.825000 -0.117804 0.000000
vt -0.687500 -0.083596 0.000000
vt -0.550000 -0.054981 0.000000
vt -1.079167 0.042614 0.000000
vt -0.412500 -0.032240 0.000000
vt -0.925000 0.082196 0.000000
vt -0.275000 -0.015680 0.000000
vt -0.770833 0.116404 0.000000
vt -0.137500 -0.005592 0.000000
vt -0.616667 0.145019 0.000000
vt -0.462500 0.167760 0.000000
vt 0.000000 -0.002199 0.000000
vt -0.308333 0.184321 0.000000
vt -0.154167 0.194408 0.000000
vt 0.000000 0.197801 0.000000
vt 0.154167 0.194408 0.000000
vt 0.308333 0.184321 0.000000
vt 0.462500 0.167760 0.000000
vt 0.137500 -0.005592 0.000000
vt 0.616667 0.145019 0.000000
vt 0.770833 0.116404 0.000000
vt 0.275000 -0.015680 0.000000
vt 0.925000 0.082196 0.000000
vt 0.412500 -0.032240 0.000000
vt 1.079167 0.042614 0.000000
vt 0.550000 -0.054981 0.000000
vt 1.233333 -0.002199 0.000000
vt 0.687500 -0.083596 0.000000
vt 0.825000 -0.117804 0.000000
vt 0.962500 -0.157386 0.000000
vt 1.100000 -0.202199 0.000000
vt -1.100000 -0.202199 0.000000
vt -0.962500 -0.157386 0.000000
vt -1.233333 -0.002199 0.000000
vt -0.825000 -0.117804 0.000000
vt -0.687500 -0.083596 0.000000
vt -0.550000 -0.054981 0.000000
vt -1.079167 0.042614 0.000000
vt -0.412500 -0.032240 0.000000
vt -0.925000 0.082196 0.000000
vt -0.275000 -0.015680 0.000000
vt -0.770833 0.116404 0.000000
vt -0.137500 -0.005592 0.000000
vt -0.616667 0.145019 0.000000
vt -0.462500 0.167760 0.000000
vt -0.000000 -0.002199 0.000000
vt -0.308333 0.184321 0.000000
vt -0.154167 0.194408 0.000000
vt -0.000000 0.197801 0.000000
vt 0.154167 0.194408 0.000000
vt 0.308333 0.184321 0.000000
vt 0.462500 0.167760 0.000000
vt 0.137500 -0.005592 0.000000
vt 0.616667 0.145019 0.000000
vt 0.770833 0.116404 0.000000
vt 0.275000 -0.015680 0.000000
vt 0.925000 0.082196 0.000000
vt 0.412500 -0.032240 0.000000
vt 1.079167 0.042614 0.000000
vt 0.550000 -0.054981 0.000000
vt 1.233333 -0.002199 0.000000
vt 0.687500 -0.083596 0.000000
vt 0.825000 -0.117804 0.000000
vt 0.962500 -0.157386 0.000000
vt 1.100000 -0.202199 0.000000
vn -0.832050 -0.554700 0.000000
vn -0.832050 -0.554700 0.000000
vn -0.832050 -0.554700 0.000000
vn -0.832050 -0.554700 0.000000
vn 0.293909 0.955833 -0.000000
vn 0.264096 0.964496 -0.000000
vn 0.293909 0.955833 -0.000000
vn 0.264096 0.964496 -0.000000
vn 0.232932 0.972493 -0.000000
vn 0.232932 0.972493 -0.000000
vn 0.199910 0.979814 -0.000000
vn 0.199910 0.979814 -0.000000
vn 0.164607 0.986359 -0.000000
vn 0.164607 0.986359 -0.000000
vn 0.126767 0.991933 -0.000000
vn 0.126767 0.991933 -0.000000
vn 0.086394 0.996261 -0.000000
vn 0.086394 0.996261 -0.000000
vn 0.043861 0.999038 -0.000000
vn 0.043861 0.999038 -0.000000
vn -0.000000 1.000000 0.000000
vn -0.000000 1.000000 0.000000
vn -0.043861 0.999038 0.000000
vn -0.043861 0.999038 0.000000
vn -0.086394 0.996261 0.000000
vn -0.086394 0.996261 0.000000
vn -0.126767 0.991933 0.000000
vn -0.126767 0.991933 0.000000
vn -0.164607 0.986359 0.000000
vn -0.164607 0.986359 0.000000
vn -0.199910 0.979814 0.000000
vn -0.199910 0.979814 0.000000
vn -0.232932 0.972493 0.000000
vn -0.232932 0.972493 0.000000
vn -0.264096 0.964496 0.000000
vn -0.264096 0.964496 0.000000
vn -0.293909 0.955833 0.000000
vn -0.293909 0.955833 0.000000
vn 0.832050 -0.554700 0.000000
vn 0.832050 -0.554700 0.000000
vn 0.832050 -0.554700 0.000000
vn 0.832050 -0.554700 0.000000
vn 0.325935 -0.945392 0.000000
vn 0.293488 -0.955963 0.000000
vn 0.325935 -0.945392 0.000000
vn 0.293488 -0.955963 0.000000
vn 0.259363 -0.965780 0.000000
vn 0.259363 -0.965780 0.000000
vn 0.222999 -0.974819 0.000000
vn 0.222999 -0.974819 0.000000
vn 0.183920 -0.982941 0.000000
vn 0.183920 -0.982941 0.000000
vn 0.141840 -0.989890 0.000000
vn 0.141840 -0.989890 0.000000
vn 0.096774 -0.995306 0.000000
vn 0.096774 -0.995306 0.000000
vn 0.049165 -0.998791 0.000000
vn 0.049165 -0.998791 0.000000
vn 0.000000 -1.000000 0.000000
vn 0.000000 -1.000000 0.000000
vn -0.049165 -0.998791 0.000000
vn -0.049165 -0.998791 0.000000
vn -0.096774 -0.995306 0.000000
vn -0.096774 -0.995306 0.000000
vn -0.141840 -0.989890 0.000000
vn -0.141840 -0.989890 0.000000
vn -0.183920 -0.982941 0.000000
vn -0.183920 -0.982941 0.000000
vn -0.222999 -0.974819 0.000000
vn -0.222999 -0.974819 0.000000
vn -0.259363 -0.965780 0.000000
vn -0.259363 -0.965780 0.000000
vn -0.293488 -0.955963 0.000000
vn -0.293488 -0.955963 0.000000
vn -0.325935 -0.945392 0.000000
vn -0.325935 -0.945392 0.000000
vn 0.000000 0.000000 1.000000
vn 0.000000 0.000000 1.000000
vn 0.000000 0.000000 1.000000
vn 0.000000 0.000000 1.000000
vn 0.000000 0.000000 1.000000
vn 0.000000 0.000000 1.000000
vn 0.000000 0.000000 1.000000
vn 0.000000 0.000000 1.000000
vn 0.000000 0.000000 1.000000
vn 0.000000 0.000000 1.000000
vn 0.000000 0.000000 1.000000
vn 0.000000 0.000000 1.000000
vn 0.000000 0.000000 1.000000
vn 0.000000 0.000000 1.000000
vn 0.000000 0.000000 1.000000
vn 0.000000 0.000000 1.000000
vn 0.000000 0.000000 1.000000
vn 0.000000 0.000000 1.000000
vn 0.000000 0.000000 1.000000
vn 0.000000 0.000000 1.000000
vn 0.000000 0.000000 1.000000
vn 0.000000 0.000000 1.000000
vn 0.000000 0.000000 1.000000
vn 0.000000 0.000000 1.000000
vn 0.000000 0.000000 1.000000
vn 0.000000 0.000000 1.000000
vn 0.000000 0.000000 1.000000
vn 0.000000 0.000000 1.000000
vn 0.000000 0.000000 1.000000
vn 0.000000 0.000000 1.000000
vn 0.000000 0.000000 1.000000
vn 0.000000 0.000000 1.000000
vn 0.000000 0.000000 1.000000
vn 0.000000 0.000000 1.000000
vn -0.000000 -0.000000 -1.000000
vn -0.000000 -0.000000 -1.000000
vn -0.000000 -0.000000 -1.000000
vn -0.000000 -0.000000 -1.000000
vn -0.000000 -0.000000 -1.000000
vn -0.000000 -0.000000 -1.000000
vn -0.000000 -0.000000 -1.000000
vn -0.000000 -0.000000 -1.000000
vn -0.000000 -0.000000 -1.000000
vn -0.000000 -0.000000 -1.000000
vn -0.000000 -0.000000 -1.000000
vn -0.000000 -0.000000 -1.000000
vn -0.000000 -0.000000 -1.000000
vn -0.000000 -0.000000 -1.000000
vn -0.000000 -0.000000 -1.000000
vn -0.000000 -0.000000 -1.000000
vn -0.000000 -0.000000 -1.000000
vn -0.000000 -0.000000 -1.000000
vn -0.000000 -0.000000 -1.000000
vn -0.000000 -0.000000 -1.000000
vn -0.000000 -0.000000 -1.000000
vn -0.000000 -0.000000 -1.000000
vn -0.000000 -0.000000 -1.000000
vn -0.000000 -0.000000 -1.000000
vn -0.000000 -0.000000 -1.000000
vn -0.000000 -0.000000 -1.000000
vn -0.000000 -0.000000 -1.000000
vn -0.000000 -0.000000 -1.000000
vn -0.000000 -0.000000 -1.000000
vn -0.000000 -0.000000 -1.000000
vn -0.000000 -0.000000 -1.000000
vn -0.000000 -0.000000 -1.000000
vn -0.000000 -0.000000 -1.000000
vn -0.000000 -0.000000 -1.000000
f 49/117/117 50/118/118 52/119/119
f 52/119/119 50/118/118 51/120/120
f 53/121/121 54/122/122 84/123/123
f 84/123/123 54/122/122 83/124/124
f 83/124/124 54/122/122 55/125/125
f 83/124/124 55/125/125 82/126/126
f 82/126/126 55/125/125 56/127/127
f 82/126/126 56/127/127 81/128/128
f 81/128/128 56/127/127 57/129/129
f 81/128/128 57/129/129 80/130/130
f 80/130/130 57/129/129 58/131/131
f 80/130/130 58/131/131 79/132/132
f 79/132/132 58/131/131 59/133/133
f 79/132/132 59/133/133 78/134/134
f 78/134/134 59/133/133 60/135/135
f 78/134/134 60/135/135 77/136/136
f 77/136/136 60/135/135 61/137/137
f 77/136/136 61/137/137 76/138/138
f 76/138/138 61/137/137 62/139/139
f 76/138/138 62/139/139 75/140/140
f 75/140/140 62/139/139 63/141/141
f 75/140/140 63/141/141 74/142/142
f 74/142/142 63/141/141 64/143/143
f 74/142/142 64/143/143 73/144/144
f 73/144/144 64/143/143 65/145/145
f 73/144/144 65/145/145 72/146/146
f 72/146/146 65/145/145 66/147/147
f 72/146/146 66/147/147 71/148/148
f 71/148/148 66/147/147 67/149/149
f 71/148/148 67/149/149 70/150/150
f 70/150/150 67/149/149 68/151/151
f 70/150/150 68/151/151 69/152/152
f 69/152/152 68/151/151 49/153/153
f 69/152/152 49/153/153 52/154/154
f 85/155/155 53/156/156 86/157/157
f 86/157/157 53/156/156 84/158/158
f 50/159/159 87/160/160 51/161/161
f 51/161/161 87/160/160 116/162/162
f 116/162/162 87/160/160 88/163/163
f 116/162/162 88/163/163 115/164/164
f 115/164/164 88/163/163 89/165/165
f 115/164/164 89/165/165 114/166/166
f 114/166/166 89/165/165 90/167/167
f 114/166/166 90/167/167 113/168/168
f 113/168/168 90/167/167 91/169/169
f 113/168/168 91/169/169 112/170/170
f 112/170/170 91/169/169 92/171/171
f 112/170/170 92/171/171 111/172/172
f 111/172/172 92/171/171 93/173/173
f 111/172/172 93/173/173 110/174/174
f 110/174/174 93/173/173 94/175/175
f 110/174/174 94/175/175 109/176/176
f 109/176/176 94/175/175 95/177/177
f 109/176/176 95/177/177 108/178/178
f 108/178/178 95/177/177 96/179/179
f 108/178/178 96/179/179 107/180/180
f 107/180/180 96/179/179 97/181/181
f 107/180/180 97/181/181 106/182/182
f 106/182/182 97/181/181 98/183/183
f 106/182/182 98/183/183 105/184/184
f 105/184/184 98/183/183 99/185/185
f 105/184/184 99/185/185 104/186/186
f 104/186/186 99/185/185 100/187/187
f 104/186/186 100/187/187 103/188/188
f 103/188/188 100/187/187 101/189/189
f 103/188/188 101/189/189 102/190/190
f 102/190/190 101/189/189 85/191/191
f 102/190/190 85/191/191 86/192/192
f 51/193/193 116/194/194 52/195/195
f 52/195/195 116/194/194 115/196/196
f 52/195/195 115/196/196 114/197/197
f 114/197/197 113/198/198 52/195/195
f 52/195/195 113/198/198 69/199/199
f 69/199/199 113/198/198 112/200/200
f 69/199/199 112/200/200 70/201/201
f 70/201/201 112/200/200 111/202/202
f 70/201/201 111/202/202 71/203/203
f 71/203/203 111/202/202 110/204/204
f 71/203/203 110/204/204 72/205/205
f 72/205/205 110/204/204 73/206/206
f 73/206/206 110/204/204 109/207/207
f 73/206/206 109/207/207 74/208/208
f 74/208/208 109/207/207 75/209/209
f 75/209/209 109/207/207 76/210/210
f 76/210/210 109/207/207 77/211/211
f 77/211/211 109/207/207 78/212/212
f 78/212/212 109/207/207 79/213/213
f 79/213/213 109/207/207 108/214/214
f 79/213/213 108/214/214 80/215/215
f 80/215/215 108/214/214 81/216/216
f 81/216/216 108/214/214 107/217/217
f 81/216/216 107/217/217 82/218/218
f 82/218/218 107/217/217 106/219/219
f 82/218/218 106/219/219 83/220/220
f 83/220/220 106/219/219 105/221/221
f 83/220/220 105/221/221 84/222/222
f 84/222/222 105/221/221 104/223/223
f 84/222/222 104/223/223 103/224/224
f 103/224/224 102/225/225 84/222/222
f 84/222/222 102/225/225 86/226/226
f 85/227/227 101/228/228 53/229/229
f 53/229/229 101/228/228 100/230/230
f 53/229/229 100/230/230 99/231/231
f 99/231/231 98/232/232 53/229/229
f 53/229/229 98/232/232 54/233/233
f 54/233/233 98/232/232 97/234/234
f 54/233/233 97/234/234 55/235/235
f 55/235/235 97/234/234 96/236/236
f 55/235/235 96/236/236 56/237/237
f 56/237/237 96/236/236 95/238/238
f 56/237/237 95/238/238 57/239/239
f 57/239/239 95/238/238 58/240/240
f 58/240/240 95/238/238 94/241/241
f 58/240/240 94/241/241 59/242/242
f 59/242/242 94/241/241 60/243/243
f 60/243/243 94/241/241 61/244/244
f 61/244/244 94/241/241 62/245/245
f 62/245/245 94/241/241 63/246/246
f 63/246/246 94/241/241 64/247/247
f 64/247/247 94/241/241 93/248/248
f 64/247/247 93/248/248 65/249/249
f 65/249/249 93/248/248 66/250/250
f 66/250/250 93/248/248 92/251/251
f 66/250/250 92/251/251 67/252/252
f 67/252/252 92/251/251 91/253/253
f 67/252/252 91/253/253 68/254/254
f 68/254/254 91/253/253 90/255/255
f 68/254/254 90/255/255 49/256/256
f 49/256/256 90/255/255 89/257/257
f 49/256/256 89/257/257 88/258/258
f 88/258/258 87/259/259 49/256/256
f 49/256/256 87/259/259 50/260/260
g Body20

v -2.300000 2.600000 0.000000
v -2.166667 2.400000 0.000000
v -2.166667 2.400000 0.050000
v -2.300000 2.600000 0.050000
v 2.300000 2.600000 0.000000
v 1.725000 2.684395 0.000000
v 1.150000 2.747219 0.000000
v 0.575000 2.786520 0.000000
v 0.000000 2.800000 0.000000
v -0.575000 2.786520 0.000000
v -1.150000 2.747219 0.000000
v -1.725000 2.684395 0.000000
v -1.725000 2.684395 0.050000
v -1.150000 2.747219 0.050000
v -0.575000 2.786520 0.050000
v 0.000000 2.800000 0.050000
v 0.575000 2.786520 0.050000
v 1.150000 2.747219 0.050000
v 1.725000 2.684395 0.050000
v 2.300000 2.600000 0.050000
v 2.166667 2.400000 0.000000
v 2.166667 2.400000 0.050000
v -1.625000 2.484395 0.000000
v -1.083333 2.547219 0.000000
v -0.541667 2.586520 0.000000
v 0.000000 2.600000 0.000000
v 0.541667 2.586520 0.000000
v 1.083333 2.547219 0.000000
v 1.625000 2.484395 0.000000
v 1.625000 2.484395 0.050000
v 1.083333 2.547219 0.050000
v 0.541667 2.586520 0.050000
v 0.000000 2.600000 0.050000
v -0.541667 2.586520 0.050000
v -1.083333 2.547219 0.050000
v -1.625000 2.484395 0.050000
vt 0.000000 0.000000 0.000000
vt 0.240370 0.000000 0.000000
vt 0.000000 0.050000 0.000000
vt 0.240370 0.050000 0.000000
vt -4.600000 0.000000 0.000000
vt -4.025000 0.000000 0.000000
vt -4.600000 0.050000 0.000000
vt -4.025000 0.050000 0.000000
vt -3.450000 0.000000 0.000000
vt -3.450000 0.050000 0.000000
vt -2.875000 0.000000 0.000000
vt -2.875000 0.050000 0.000000
vt -2.300000 0.000000 0.000000
vt -2.300000 0.050000 0.000000
vt -1.725000 0.000000 0.000000
vt -1.725000 0.050000 0.000000
vt -1.150000 0.000000 0.000000
vt -1.150000 0.050000 0.000000
vt -0.575000 0.000000 0.000000
vt -0.575000 0.050000 0.000000
vt 0.000000 0.000000 0.000000
vt 0.000000 0.050000 0.000000
vt 0.000000 0.000000 0.000000
vt 0.240370 0.000000 0.000000
vt 0.000000 0.050000 0.000000
vt 0.240370 0.050000 0.000000
vt 0.000000 0.000000 0.000000
vt 0.541667 0.000000 0.000000
vt 0.000000 0.050000 0.000000
vt 0.541667 0.050000 0.000000
vt 1.083333 0.000000 0.000000
vt 1.083333 0.050000 0.000000
vt 1.625000 0.000000 0.000000
vt 1.625000 0.050000 0.000000
vt 2.166667 0.000000 0.000000
vt 2.166667 0.050000 0.000000
vt 2.708333 0.000000 0.000000
vt 2.708333 0.050000 0.000000
vt 3.250000 0.000000 0.000000
vt 3.250000 0.050000 0.000000
vt 3.791667 0.000000 0.000000
vt 3.791667 0.050000 0.000000
vt 4.333333 0.000000 0.000000
vt 4.333333 0.050000 0.000000
vt -2.166667 -0.202199 0.000000
vt -1.625000 -0.117804 0.000000
vt -2.300000 -0.002199 0.000000
vt -1.083333 -0.054981 0.000000
vt -1.725000 0.082196 0.000000
vt -0.541667 -0.015680 0.000000
vt -1.150000 0.145019 0.000000
vt 0.000000 -0.002199 0.000000
vt -0.575000 0.184321 0.000000
vt 0.000000 0.197801 0.000000
vt 0.575000 0.184321 0.000000
vt 1.150000 0.145019 0.000000
vt 0.541667 -0.015680 0.000000
vt 1.725000 0.082196 0.000000
vt 1.083333 -0.054981 0.000000
vt 2.300000 -0.002199 0.000000
vt 1.625000 -0.117804 0.000000
vt 2.166667 -0.202199 0.000000
vt -2.166667 -0.202199 0.000000
vt -1.625000 -0.117804 0.000000
vt -2.300000 -0.002199 0.000000
vt -1.083333 -0.054981 0.000000
vt -1.725000 0.082196 0.000000
vt -0.541667 -0.015680 0.000000
vt -1.150000 0.145019 0.000000
vt -0.000000 -0.002199 0.000000
vt -0.575000 0.184321 0.000000
vt -0.000000 0.197801 0.000000
vt 0.575000 0.184321 0.000000
vt 1.150000 0.145019 0.000000
vt 0.541667 -0.015680 0.000000
vt 1.725000 0.082196 0.000000
vt 1.083333 -0.054981 0.000000
vt 2.300000 -0.002199 0.000000
vt 1.625000 -0.117804 0.000000
vt 2.166667 -0.202199 0.000000
vn -0.832050 -0.554700 0.000000
vn -0.832050 -0.554700 0.000000
vn -0.832050 -0.554700 0.000000
vn -0.832050 -0.554700 0.000000
vn 0.162689 0.986677 -0.000000
vn 0.127392 0.991852 -0.000000
vn 0.162689 0.986677 -0.000000
vn 0.127392 0.991852 -0.000000
vn 0.089132 0.996020 -0.000000
vn 0.089132 0.996020 -0.000000
vn 0.046451 0.998921 -0.000000
vn 0.046451 0.998921 -0.000000
vn -0.000000 1.000000 0.000000
vn -0.000000 1.000000 0.000000
vn -0.046451 0.998921 0.000000
vn -0.046451 0.998921 0.000000
vn -0.089132 0.996020 0.000000
vn -0.089132 0.996020 0.000000
vn -0.127392 0.991852 0.000000
vn -0.127392 0.991852 0.000000
vn -0.162689 0.986677 0.000000
vn -0.162689 0.986677 0.000000
vn 0.832050 -0.554700 0.000000
vn 0.832050 -0.554700 0.000000
vn 0.832050 -0.554700 0.000000
vn 0.832050 -0.554700 0.000000
vn 0.172412 -0.985025 0.000000
vn 0.135093 -0.990833 0.000000
vn 0.172412 -0.985025 0.000000
vn 0.135093 -0.990833 0.000000
vn 0.094570 -0.995518 0.000000
vn 0.094570 -0.995518 0.000000
vn 0.049303 -0.998784 0.000000
vn 0.049303 -0.998784 0.000000
vn 0.000000 -1.000000 0.000000
vn 0.000000 -1.000000 0.000000
vn -0.049303 -0.998784 0.000000
vn -0.049303 -0.998784 0.000000
vn -0.094570 -0.995518 0.000000
vn -0.094570 -0.995518 0.000000
vn -0.135093 -0.990833 0.000000
vn -0.135093 -0.990833 0.000000
vn -0.172412 -0.985025 0.000000
vn -0.172412 -0.985025 0.000000
vn 0.000000 0.000000 1.000000
vn 0.000000 0.000000 1.000000
vn 0.000000 0.000000 1.000000
vn 0.000000 0.000000 1.000000
vn 0.000000 0.000000 1.000000
vn 0.000000 0.000000 1.000000
vn 0.000000 0.000000 1.000000
vn 0.000000 0.000000 1.000000
vn 0.000000 0.000000 1.000000
vn 0.000000 0.000000 1.000000
vn 0.000000 0.000000 1.000000
vn 0.000000 0.000000 1.000000
vn 0.000000 0.000000 1.000000
vn 0.000000 0.000000 1.000000
vn 0.000000 0.000000 1.000000
vn 0.000000 0.000000 1.000000
vn 0.000000 0.000000 1.000000
vn 0.000000 0.000000 1.000000
vn -0.000000 -0.000000 -1.000000
vn -0.000000 -0.000000 -1.000000
vn -0.000000 -0.000000 -1.000000
vn -0.000000 -0.000000 -1.000000
vn -0.000000 -0.000000 -1.000000
vn -0.000000 -0.000000 -1.000000
vn -0.000000 -0.000000 -1.000000
vn -0.000000 -0.000000 -1.000000
vn -0.000000 -0.000000 -1.000000
vn -0.000000 -0.000000 -1.000000
vn -0.000000 -0.000000 -1.000000
vn -0.000000 -0.000000 -1.000000
vn -0.000000 -0.000000 -1.000000
vn -0.000000 -0.000000 -1.000000
vn -0.000000 -0.000000 -1.000000
vn -0.000000 -0.000000 -1.000000
vn -0.000000 -0.000000 -1.000000
vn -0.000000 -0.000000 -1.000000
f 117/261/261 118/262/262 120/263/263
f 120/263/263 118/262/262 119/264/264
f 121/265/265 122/266/266 136/267/267
f 136/267/267 122/266/266 135/268/268
f 135/268/268 122/266/266 123/269/269
f 135/268/268 123/269/269 134/270/270
f 134/270/270 123/269/269 124/271/271
f 134/270/270 124/271/271 133/272/272
f 133/272/272 124/271/271 125/273/273
f 133/272/272 125/273/273 132/274/274
f 132/274/274 125/273/273 126/275/275
f 132/274/274 126/275/275 131/276/276
f 131/276/276 126/275/275 127/277/277
f 131/276/276 127/277/277 130/278/278
f 130/278/278 127/277/277 128/279/279
f 130/278/278 128/279/279 129/280/280
f 129/280/280 128/279/279 117/281/281
f 129/280/280 117/281/281 120/282/282
f 137/283/283 121/284/284 138/285/285
f 138/285/285 121/284/284 136/286/286
f 118/287/287 139/288/288 119/289/289
f 119/289/289 139/288/288 152/290/290
f 152/290/290 139/288/288 140/291/291
f 152/290/290 140/291/291 151/292/292
f 151/292/292 140/291/291 141/293/293
f 151/292/292 141/293/293 150/294/294
f 150/294/294 141/293/293 142/295/295
f 150/294/294 142/295/295 149/296/296
f 149/296/296 142/295/295 143/297/297
f 149/296/296 143/297/297 148/298/298
f 148/298/298 143/297/297 144/299/299
f 148/298/298 144/299/299 147/300/300
f 147/300/300 144/299/299 145/301/301
f 147/300/300 145/301/301 146/302/302
f 146/302/302 145/301/301 137/303/303
f 146/302/302 137/303/303 138/304/304
f 119/305/305 152/306/306 120/307/307
f 120/307/307 152/306/306 151/308/308
f 120/307/307 151/308/308 129/309/309
f 129/309/309 151/308/308 150/310/310
f 129/309/309 150/310/310 130/311/311
f 130/311/311 150/310/310 149/312/312
f 130/311/311 149/312/312 131/313/313
f 131/313/313 149/312/312 132/314/314
f 132/314/314 149/312/312 133/315/315
f 133/315/315 149/312/312 134/316/316
f 134/316/316 149/312/312 148/317/317
f 134/316/316 148/317/317 135/318/318
f 135/318/318 148/317/317 147/319/319
f 135/318/318 147/319/319 136/320/320
f 136/320/320 147/319/319 146/321/321
f 136/320/320 146/321/321 138/322/322
f 137/323/323 145/324/324 121/325/325
f 121/325/325 145/324/324 144/326/326
f 121/325/325 144/326/326 122/327/327
f 122/327/327 144/326/326 143/328/328
f 122/327/327 143/328/328 123/329/329
f 123/329/329 143/328/328 142/330/330
f 123/329/329 142/330/330 124/331/331
f 124/331/331 142/330/330 125/332/332
f 125/332/332 142/330/330 126/333/333
f 126/333/333 142/330/330 127/334/334
f 127/334/334 142/330/330 141/335/335
f 127/334/334 141/335/335 128/336/336
f 128/336/336 141/335/335 140/337/337
f 128/336/336 140/337/337 117/338/338
f 117/338/338 140/337/337 139/339/339
f 117/338/338 139/339/339 118/340/340
g Body21

v -1.766667 1.800000 0.000000
v -1.630608 1.595911 0.000000
v -1.630608 1.595911 0.050000
v -1.766667 1.800000 0.050000
v 1.766667 1.800000 0.000000
v 1.325000 1.884395 0.000000
v 0.883333 1.947219 0.000000
v 0.441667 1.986520 0.000000
v 0.000000 2.000000 0.000000
v -0.441667 1.986520 0.000000
v -0.883333 1.947219 0.000000
v -1.325000 1.884395 0.000000
v -1.325000 1.884395 0.050000
v -0.883333 1.947219 0.050000
v -0.441667 1.986520 0.050000
v 0.000000 2.000000 0.050000
v 0.441667 1.986520 0.050000
v 0.883333 1.947219 0.050000
v 1.325000 1.884395 0.050000
v 1.766667 1.800000 0.050000
v 1.630608 1.595911 0.000000
v 1.630608 1.595911 0.050000
v -1.222956 1.682032 0.000000
v -0.815304 1.746140 0.000000
v -0.407652 1.786244 0.000000
v 0.000000 1.800000 0.000000
v 0.407652 1.786244 0.000000
v 0.815304 1.746140 0.000000
v 1.222956 1.682032 0.000000
v 1.222956 1.682032 0.050000
v 0.815304 1.746140 0.050000
v 0.407652 1.786244 0.050000
v 0.000000 1.800000 0.050000
v -0.407652 1.786244 0.050000
v -0.815304 1.746140 0.050000
v -1.222956 1.682032 0.050000
vt 0.000000 0.000000 0.000000
vt 0.245284 0.000000 0.000000
vt 0.000000 0.050000 0.000000
vt 0.245284 0.050000 0.000000
vt -3.533333 0.000000 0.000000
vt -3.091667 0.000000 0.000000
vt -3.533333 0.050000 0.000000
vt -3.091667 0.050000 0.000000
vt -2.650000 0.000000 0.000000
vt -2.650000 0.050000 0.000000
vt -2.208333 0.000000 0.000000
vt -2.208333 0.050000 0.000000
vt -1.766667 0.000000 0.000000
vt -1.766667 0.050000 0.000000
vt -1.325000 0.000000 0.000000
vt -1.325000 0.050000 0.000000
vt -0.883333 0.000000 0.000000
vt -0.883333 0.050000 0.000000
vt -0.441667 0.000000 0.000000
vt -0.441667 0.050000 0.000000
vt 0.000000 0.000000 0.000000
vt 0.000000 0.050000 0.000000
vt 0.000000 0.000000 0.000000
vt 0.245284 0.000000 0.000000
vt 0.000000 0.050000 0.000000
vt 0.245284 0.050000 0.000000
vt 0.000000 0.000000 0.000000
vt 0.407652 0.000000 0.000000
vt 0.000000 0.050000 0.000000
vt 0.407652 0.050000 0.000000
vt 0.815304 0.000000 0.000000
vt 0.815304 0.050000 0.000000
vt 1.222956 0.000000 0.000000
vt 1.222956 0.050000 0.000000
vt 1.630608 0.000000 0.000000
vt 1.630608 0.050000 0.000000
vt 2.038260 0.000000 0.000000
vt 2.038260 0.050000 0.000000
vt 2.445911 0.000000 0.000000
vt 2.445911 0.050000 0.000000
vt 2.853563 0.000000 0.000000
vt 2.853563 0.050000 0.000000
vt 3.261215 0.000000 0.000000
vt 3.261215 0.050000 0.000000
vt -1.630608 -0.204244 0.000000
vt -1.222956 -0.118123 0.000000
vt -1.766667 -0.000155 0.000000
vt -0.815304 -0.054016 0.000000
vt -1.325000 0.084240 0.000000
vt -0.407652 -0.013911 0.000000
vt -0.883333 0.147063 0.000000
vt -0.000000 -0.000155 0.000000
vt -0.441667 0.186365 0.000000
vt 0.000000 0.199845 0.000000
vt 0.441667 0.186365 0.000000
vt 0.883333 0.147063 0.000000
vt 0.407652 -0.013911 0.000000
vt 1.325000 0.084240 0.000000
vt 0.815304 -0.054016 0.000000
vt 1.766667 -0.000155 0.000000
vt 1.222956 -0.118123 0.000000
vt 1.630608 -0.204244 0.000000
vt -1.630608 -0.204244 0.000000
vt -1.222956 -0.118123 0.000000
vt -1.766667 -0.000155 0.000000
vt -0.815304 -0.054016 0.000000
vt -1.325000 0.084240 0.000000
vt -0.407652 -0.013911 0.000000
vt -0.883333 0.147063 0.000000
vt 0.000000 -0.000155 0.000000
vt -0.441667 0.186365 0.000000
vt -0.000000 0.199845 0.000000
vt 0.441667 0.186365 0.000000
vt 0.883333 0.147063 0.000000
vt 0.407652 -0.013911 0.000000
vt 1.325000 0.084240 0.000000
vt 0.815304 -0.054016 0.000000
vt 1.766667 -0.000155 0.000000
vt 1.222956 -0.118123 0.000000
vt 1.630608 -0.204244 0.000000
vn -0.832050 -0.554700 0.000000
vn -0.832050 -0.554700 0.000000
vn -0.832050 -0.554700 0.000000
vn -0.832050 -0.554700 0.000000
vn 0.209882 0.977727 -0.000000
vn 0.164923 0.986306 -0.000000
vn 0.209882 0.977727 -0.000000
vn 0.164923 0.986306 -0.000000
vn 0.115721 0.993282 -0.000000
vn 0.115721 0.993282 -0.000000
vn 0.060429 0.998173 -0.000000
vn 0.060429 0.998173 -0.000000
vn -0.000000 1.000000 0.000000
vn -0.000000 1.000000 0.000000
vn -0.060429 0.998173 0.000000
vn -0.060429 0.998173 0.000000
vn -0.115721 0.993282 0.000000
vn -0.115721 0.993282 0.000000
vn -0.164923 0.986306 0.000000
vn -0.164923 0.986306 0.000000
vn -0.209882 0.977727 0.000000
vn -0.209882 0.977727 0.000000
vn 0.832050 -0.554700 0.000000
vn 0.832050 -0.554700 0.000000
vn 0.832050 -0.554700 0.000000
vn 0.832050 -0.554700 0.000000
vn 0.230915 -0.972974 0.000000
vn 0.181788 -0.983338 0.000000
vn 0.230915 -0.972974 0.000000
vn 0.181788 -0.983338 0.000000
vn 0.127750 -0.991806 0.000000
vn 0.127750 -0.991806 0.000000
vn 0.066782 -0.997768 0.000000
vn 0.066782 -0.997768 0.000000
vn 0.000000 -1.000000 0.000000
vn 0.000000 -1.000000 0.000000
vn -0.066782 -0.997768 0.000000
vn -0.066782 -0.997768 0.000000
vn -0.127750 -0.991806 0.000000
vn -0.127750 -0.991806 0.000000
vn -0.181788 -0.983338 0.000000
vn -0.181788 -0.983338 0.000000
vn -0.230915 -0.972974 0.000000
vn -0.230915 -0.972974 0.000000
vn 0.000000 0.000000 1.000000
vn 0.000000 0.000000 1.000000
vn 0.000000 0.000000 1.000000
vn 0.000000 0.000000 1.000000
vn 0.000000 0.000000 1.000000
vn 0.000000 0.000000 1.000000
vn 0.000000 0.000000 1.000000
vn 0.000000 0.000000 1.000000
vn 0.000000 0.000000 1.000000
vn 0.000000 0.000000 1.000000
vn 0.000000 0.000000 1.000000
vn 0.000000 0.000000 1.000000
vn 0.000000 0.000000 1.000000
vn 0.000000 0.000000 1.000000
vn 0.000000 0.000000 1.000000
vn 0.000000 0.000000 1.000000
vn 0.000000 0.000000 1.000000
vn 0.000000 0.000000 1.000000
vn -0.000000 -0.000000 -1.000000
vn -0.000000 -0.000000 -1.000000
vn -0.000000 -0.000000 -1.000000
vn -0.000000 -0.000000 -1.000000
vn -0.000000 -0.000000 -1.000000
vn -0.000000 -0.000000 -1.000000
vn -0.000000 -0.000000 -1.000000
vn -0.000000 -0.000000 -1.000000
vn -0.000000 -0.000000 -1.000000
vn -0.000000 -0.000000 -1.000000
vn -0.000000 -0.000000 -1.000000
vn -0.000000 -0.000000 -1.000000
vn -0.000000 -0.000000 -1.000000
vn -0.000000 -0.000000 -1.000000
vn -0.000000 -0.000000 -1.000000
vn -0.000000 -0.000000 -1.000000
vn -0.000000 -0.000000 -1.000000
vn -0.000000 -0.000000 -1.000000
f 153/341/341 154/342/342 156/343/343
f 156/343/343 154/342/342 155/344/344
f 157/345/345 158/346/346 172/347/347
f 172/347/347 158/346/346 171/348/348
f 171/348/348 158/346/346 159/349/349
f 171/348/348 159/349/349 170/350/350
f 170/350/350 159/349/349 160/351/351
f 170/350/350 160/351/351 169/352/352
f 169/352/352 160/351/351 161/353/353
f 169/352/352 161/353/353 168/354/354
f 168/354/354 161/353/353 162/355/355
f 168/354/354 162/355/355 167/356/356
f 167/356/356 162/355/355 163/357/357
f 167/356/356 163/357/357 166/358/358
f 166/358/358 163/357/357 164/359/359
f 166/358/358 164/359/359 165/360/360
f 165/360/360 164/359/359 153/361/361
f 165/360/360 153/361/361 156/362/362
f 173/363/363 157/364/364 174/365/365
f 174/365/365 157/364/364 172/366/366
f 154/367/367 175/368/368 155/369/369
f 155/369/369 175/368/368 188/370/370
f 188/370/370 175/368/368 176/371/371
f 188/370/370 176/371/371 187/372/372
f 187/372/372 176/371/371 177/373/373
f 187/372/372 177/373/373 186/374/374
f 186/374/374 177/373/373 178/375/375
f 186/374/374 178/375/375 185/376/376
f 185/376/376 178/375/375 179/377/377
f 185/376/376 179/377/377 184/378/378
f 184/378/378 179/377/377 180/379/379
f 184/378/378 180/379/379 183/380/380
f 183/380/380 180/379/379 181/381/381
f 183/380/380 181/381/381 182/382/382
f 182/382/382 181/381/381 173/383/383
f 182/382/382 173/383/383 174/384/384
f 155/385/385 188/386/386 156/387/387
f 156/387/387 188/386/386 187/388/388
f 156/387/387 187/388/388 165/389/389
f 165/389/389 187/388/388 186/390/390
f 165/389/389 186/390/390 166/391/391
f 166/391/391 186/390/390 185/392/392
f 166/391/391 185/392/392 167/393/393
f 167/393/393 185/392/392 168/394/394
f 168/394/394 185/392/392 169/395/395
f 169/395/395 185/392/392 170/396/396
f 170/396/396 185/392/392 184/397/397
f 170/396/396 184/397/397 171/398/398
f 171/398/398 184/397/397 183/399/399
f 171/398/398 183/399/399 172/400/400
f 172/400/400 183/399/399 182/401/401
f 172/400/400 182/401/401 174/402/402
f 173/403/403 181/404/404 157/405/405
f 157/405/405 181/404/404 180/406/406
f 157/405/405 180/406/406 158/407/407
f 158/407/407 180/406/406 179/408/408
f 158/407/407 179/408/408 159/409/409
f 159/409/409 179/408/408 178/410/410
f 159/409/409 178/410/410 160/411/411
f 160/411/411 178/410/410 161/412/412
f 161/412/412 178/410/410 162/413/413
f 162/413/413 178/410/410 163/414/414
f 163/414/414 178/410/410 177/415/415
f 163/414/414 177/415/415 164/416/416
f 164/416/416 177/415/415 176/417/417
f 164/416/416 176/417/417 153/418/418
f 153/418/418 176/417/417 175/419/419
f 153/418/418 175/419/419 154/420/420
g Body22

v -1.500000 1.400000 0.000000
v -1.366667 1.200000 0.000000
v -1.366667 1.200000 0.050000
v -1.500000 1.400000 0.050000
v 1.500000 1.400000 0.000000
v 1.125000 1.484395 0.000000
v 0.750000 1.547219 0.000000
v 0.562500 1.569960 0.000000
v 0.375000 1.586520 0.000000
v 0.187500 1.596608 0.000000
v 0.000000 1.600000 0.000000
v -0.187500 1.596608 0.000000
v -0.375000 1.586520 0.000000
v -0.562500 1.569960 0.000000
v -0.750000 1.547219 0.000000
v -1.125000 1.484395 0.000000
v -1.125000 1.484395 0.050000
v -0.750000 1.547219 0.050000
v -0.562500 1.569960 0.050000
v -0.375000 1.586520 0.050000
v -0.187500 1.596608 0.050000
v 0.000000 1.600000 0.050000
v 0.187500 1.596608 0.050000
v 0.375000 1.586520 0.050000
v 0.562500 1.569960 0.050000
v 0.750000 1.547219 0.050000
v 1.125000 1.484395 0.050000
v 1.500000 1.400000 0.050000
v 1.366667 1.200000 0.000000
v 1.366667 1.200000 0.050000
v -1.025000 1.284395 0.000000
v -0.683333 1.347219 0.000000
v -0.512500 1.369960 0.000000
v -0.341667 1.386520 0.000000
v -0.170833 1.396608 0.000000
v 0.000000 1.400000 0.000000
v 0.170833 1.396608 0.000000
v 0.341667 1.386520 0.000000
v 0.512500 1.369960 0.000000
v 0.683333 1.347219 0.000000
v 1.025000 1.284395 0.000000
v 1.025000 1.284395 0.050000
v 0.683333 1.347219 0.050000
v 0.512500 1.369960 0.050000
v 0.341667 1.386520 0.050000
v 0.170833 1.396608 0.050000
v 0.000000 1.400000 0.050000
v -0.170833 1.396608 0.050000
v -0.341667 1.386520 0.050000
v -0.512500 1.369960 0.050000
v -0.683333 1.347219 0.050000
v -1.025000 1.284395 0.050000
vt 0.000000 0.000000 0.000000
vt 0.240370 0.000000 0.000000
vt 0.000000 0.050000 0.000000
vt 0.240370 0.050000 0.000000
vt -3.000000 0.000000 0.000000
vt -2.625000 0.000000 0.000000
vt -3.000000 0.050000 0.000000
vt -2.625000 0.050000 0.000000
vt -2.250000 0.000000 0.000000
vt -2.250000 0.050000 0.000000
vt -2.062500 0.000000 0.000000
vt -2.062500 0.050000 0.000000
vt -1.875000 0.000000 0.000000
vt -1.875000 0.050000 0.000000
vt -1.687500 0.000000 0.000000
vt -1.687500 0.050000 0.000000
vt -1.500000 0.000000 0.000000
vt -1.500000 0.050000 0.000000
vt -1.312500 0.000000 0.000000
vt -1.312500 0.050000 0.000000
vt -1.125000 0.000000 0.000000
vt -1.125000 0.050000 0.000000
vt -0.937500 0.000000 0.000000
vt -0.937500 0.050000 0.000000
vt -0.750000 0.000000 0.000000
vt -0.750000 0.050000 0.000000
vt -0.375000 0.000000 0.000000
vt -0.375000 0.050000 0.000000
vt 0.000000 0.000000 0.000000
vt 0.000000 0.050000 0.000000
vt 0.000000 0.000000 0.000000
vt 0.240370 0.000000 0.000000
vt 0.000000 0.050000 0.000000
vt 0.240370 0.050000 0.000000
vt 0.000000 0.000000 0.000000
vt 0.341667 0.000000 0.000000
vt 0.000000 0.050000 0.000000
vt 0.341667 0.050000 0.000000
vt 0.683333 0.000000 0.000000
vt 0.683333 0.050000 0.000000
vt 0.854167 0.000000 0.000000
vt 0.854167 0.050000 0.000000
vt 1.025000 0.000000 0.000000
vt 1.025000 0.050000 0.000000
vt 1.195833 0.000000 0.000000
vt 1.195833 0.050000 0.000000
vt 1.366667 0.000000 0.000000
vt 1.366667 0.050000 0.000000
vt 1.537500 0.000000 0.000000
vt 1.537500 0.050000 0.000000
vt 1.708333 0.000000 0.000000
vt 1.708333 0.050000 0.000000
vt 1.879167 0.000000 0.000000
vt 1.879167 0.050000 0.000000
vt 2.050000 0.000000 0.000000
vt 2.050000 0.050000 0.000000
vt 2.391667 0.000000 0.000000
vt 2.391667 0.050000 0.000000
vt 2.733333 0.000000 0.000000
vt 2.733333 0.050000 0.000000
vt -1.366667 -0.202199 0.000000
vt -1.025000 -0.117804 0.000000
vt -1.500000 -0.002199 0.000000
vt -0.683333 -0.054981 0.000000
vt -0.512500 -0.032240 0.000000
vt -1.125000 0.082196 0.000000
vt -0.341667 -0.015680 0.000000
vt -0.170833 -0.005592 0.000000
vt 0.000000 -0.002199 0.000000
vt -0.562500 0.167760 0.000000
vt -0.750000 0.145019 0.000000
vt 0.170833 -0.005592 0.000000
vt 0.562500 0.167760 0.000000
vt 0.375000 0.184321 0.000000
vt 0.187500 0.194408 0.000000
vt 0.341667 -0.015680 0.000000
vt 1.125000 0.082196 0.000000
vt 0.750000 0.145019 0.000000
vt 0.512500 -0.032240 0.000000
vt 1.500000 -0.002199 0.000000
vt 0.683333 -0.054981 0.000000
vt 1.025000 -0.117804 0.000000
vt 1.366667 -0.202199 0.000000
vt 0.000000 0.197801 0.000000
vt -0.187500 0.194408 0.000000
vt -0.375000 0.184321 0.000000
vt -1.366667 -0.202199 0.000000
vt -1.025000 -0.117804 0.000000
vt -1.500000 -0.002199 0.000000
vt -0.683333 -0.054981 0.000000
vt -0.512500 -0.032240 0.000000
vt -1.125000 0.082196 0.000000
vt -0.341667 -0.015680 0.000000
vt -0.170833 -0.005592 0.000000
vt -0.000000 -0.002199 0.000000
vt -0.562500 0.167760 0.000000
vt -0.750000 0.145019 0.000000
vt 0.170833 -0.005592 0.000000
vt 0.562500 0.167760 0.000000
vt 0.375000 0.184321 0.000000
vt 0.187500 0.194408 0.000000
vt 0.341667 -0.015680 0.000000
vt 1.125000 0.082196 0.000000
vt 0.750000 0.145019 0.000000
vt 0.512500 -0.032240 0.000000
vt 1.500000 -0.002199 0.000000
vt 0.683333 -0.054981 0.000000
vt 1.025000 -0.117804 0.000000
vt 1.366667 -0.202199 0.000000
vt -0.000000 0.197801 0.000000
vt -0.187500 0.194408 0.000000
vt -0.375000 0.184321 0.000000
vn -0.832050 -0.554700 0.000000
vn -0.832050 -0.554700 0.000000
vn -0.832050 -0.554700 0.000000
vn -0.832050 -0.554700 0.000000
vn 0.245113 0.969495 -0.000000
vn 0.193228 0.981154 -0.000000
vn 0.245113 0.969495 -0.000000
vn 0.193228 0.981154 -0.000000
vn 0.135942 0.990717 -0.000000
vn 0.135942 0.990717 -0.000000
vn 0.104503 0.994525 -0.000000
vn 0.104503 0.994525 -0.000000
vn 0.071121 0.997468 -0.000000
vn 0.071121 0.997468 -0.000000
vn 0.036075 0.999349 -0.000000
vn 0.036075 0.999349 -0.000000
vn -0.000000 1.000000 0.000000
vn -0.000000 1.000000 0.000000
vn -0.036075 0.999349 0.000000
vn -0.036075 0.999349 0.000000
vn -0.071121 0.997468 0.000000
vn -0.071121 0.997468 0.000000
vn -0.104503 0.994525 0.000000
vn -0.104503 0.994525 0.000000
vn -0.135942 0.990717 0.000000
vn -0.135942 0.990717 0.000000
vn -0.193228 0.981154 0.000000
vn -0.193228 0.981154 0.000000
vn -0.245113 0.969495 0.000000
vn -0.245113 0.969495 0.000000
vn 0.832050 -0.554700 0.000000
vn 0.832050 -0.554700 0.000000
vn 0.832050 -0.554700 0.000000
vn 0.832050 -0.554700 0.000000
vn 0.267388 -0.963589 0.000000
vn 0.211274 -0.977427 0.000000
vn 0.267388 -0.963589 0.000000
vn 0.211274 -0.977427 0.000000
vn 0.148923 -0.988849 0.000000
vn 0.148923 -0.988849 0.000000
vn 0.114571 -0.993415 0.000000
vn 0.114571 -0.993415 0.000000
vn 0.078020 -0.996952 0.000000
vn 0.078020 -0.996952 0.000000
vn 0.039589 -0.999216 0.000000
vn 0.039589 -0.999216 0.000000
vn 0.000000 -1.000000 0.000000
vn 0.000000 -1.000000 0.000000
vn -0.039589 -0.999216 0.000000
vn -0.039589 -0.999216 0.000000
vn -0.078020 -0.996952 0.000000
vn -0.078020 -0.996952 0.000000
vn -0.114571 -0.993415 0.000000
vn -0.114571 -0.993415 0.000000
vn -0.148923 -0.988849 0.000000
vn -0.148923 -0.988849 0.000000
vn -0.211274 -0.977427 0.000000
vn -0.211274 -0.977427 0.000000
vn -0.267388 -0.963589 0.000000
vn -0.267388 -0.963589 0.000000
vn 0.000000 0.000000 1.000000
vn 0.000000 0.000000 1.000000
vn 0.000000 0.000000 1.000000
vn 0.000000 0.000000 1.000000
vn 0.000000 0.000000 1.000000
vn 0.000000 0.000000 1.000000
vn 0.000000 0.000000 1.000000
vn 0.000000 0.000000 1.000000
vn 0.000000 0.000000 1.000000
vn 0.000000 0.000000 1.000000
vn 0.000000 0.000000 1.000000
vn 0.000000 0.000000 1.000000
vn 0.000000 0.000000 1.000000
vn 0.000000 0.000000 1.000000
vn 0.000000 0.000000 1.000000
vn 0.000000 0.000000 1.000000
vn 0.000000 0.000000 1.000000
vn 0.000000 0.000000 1.000000
vn 0.000000 0.000000 1.000000
vn 0.000000 0.000000 1.000000
vn 0.000000 0.000000 1.000000
vn 0.000000 0.000000 1.000000
vn 0.000000 0.000000 1.000000
vn 0.000000 0.000000 1.000000
vn 0.000000 0.000000 1.000000
vn 0.000000 0.000000 1.000000
vn -0.000000 -0.000000 -1.000000
vn -0.000000 -0.000000 -1.000000
vn -0.000000 -0.000000 -1.000000
vn -0.000000 -0.000000 -1.000000
vn -0.000000 -0.000000 -1.000000
vn -0.000000 -0.000000 -1.000000
vn -0.000000 -0.000000 -1.000000
vn -0.000000 -0.000000 -1.000000
vn -0.000000 -0.000000 -1.000000
vn -0.000000 -0.000000 -1.000000
vn -0.000000 -0.000000 -1.000000
vn -0.000000 -0.000000 -1.000000
vn -0.000000 -0.000000 -1.000000
vn -0.000000 -0.000000 -1.000000
vn -0.000000 -0.000000 -1.000000
vn -0.000000 -0.000000 -1.000000
vn -0.000000 -0.000000 -1.000000
vn -0.000000 -0.000000 -1.000000
vn -0.000000 -0.000000 -1.000000
vn -0.000000 -0.000000 -1.000000
vn -0.000000 -0.000000 -1.000000
vn -0.000000 -0.000000 -1.000000
vn -0.000000 -0.000000 -1.000000
vn -0.000000 -0.000000 -1.000000
vn -0.000000 -0.000000 -1.000000
vn -0.000000 -0.000000 -1.000000
f 189/421/421 190/422/422 192/423/423
f 192/423/423 190/422/422 191/424/424
f 193/425/425 194/426/426 216/427/427
f 216/427/427 194/426/426 215/428/428
f 215/428/428 194/426/426 195/429/429
f 215/428/428 195/429/429 214/430/430
f 214/430/430 195/429/429 196/431/431
f 214/430/430 196/431/431 213/432/432
f 213/432/432 196/431/431 197/433/433
f 213/432/432 197/433/433 212/434/434
f 212/434/434 197/433/433 198/435/435
f 212/434/434 198/435/435 211/436/436
f 211/436/436 198/435/435 199/437/437
f 211/436/436 199/437/437 210/438/438
f 210/438/438 199/437/437 200/439/439
f 210/438/438 200/439/439 209/440/440
f 209/440/440 200/439/439 201/441/441
f 209/440/440 201/441/441 208/442/442
f 208/442/442 201/441/441 202/443/443
f 208/442/442 202/443/443 207/444/444
f 207/444/444 202/443/443 203/445/445
f 207/444/444 203/445/445 206/446/446
f 206/446/446 203/445/445 204/447/447
f 206/446/446 204/447/447 205/448/448
f 205/448/448 204/447/447 189/449/449
f 205/448/448 189/449/449 192/450/450
f 217/451/451 193/452/452 218/453/453
f 218/453/453 193/452/452 216/454/454
f 190/455/455 219/456/456 191/457/457
f 191/457/457 219/456/456 240/458/458
f 240/458/458 219/456/456 220/459/459
f 240/458/458 220/459/459 239/460/460
f 239/460/460 220/459/459 221/461/461
f 239/460/460 221/461/461 238/462/462
f 238/462/462 221/461/461 222/463/463
f 238/462/462 222/463/463 237/464/464
f 237/464/464 222/463/463 223/465/465
f 237/464/464 223/465/465 236/466/466
f 236/466/466 223/465/465 224/467/467
f 236/466/466 224/467/467 235/468/468
f 235/468/468 224/467/467 225/469/469
f 235/468/468 225/469/469 234/470/470
f 234/470/470 225/469/469 226/471/471
f 234/470/470 226/471/471 233/472/472
f 233/472/472 226/471/471 227/473/473
f 233/472/472 227/473/473 232/474/474
f 232/474/474 227/473/473 228/475/475
f 232/474/474 228/475/475 231/476/476
f 231/476/476 228/475/475 229/477/477
f 231/476/476 229/477/477 230/478/478
f 230/478/478 229/477/477 217/479/479
f 230/478/478 217/479/479 218/480/480
f 191/481/481 240/482/482 192/483/483
f 192/483/483 240/482/482 239/484/484
f 192/483/483 239/484/484 238/485/485
f 192/483/483 238/485/485 205/486/486
f 205/486/486 238/485/485 237/487/487
f 205/486/486 237/487/487 236/488/488
f 235/489/489 207/490/490 236/488/488
f 236/488/488 207/490/490 206/491/491
f 236/488/488 206/491/491 205/486/486
f 234/492/492 213/493/493 235/489/489
f 235/489/489 213/493/493 212/494/494
f 235/489/489 212/494/494 211/495/495
f 233/496/496 215/497/497 234/492/492
f 234/492/492 215/497/497 214/498/498
f 234/492/492 214/498/498 213/493/493
f 233/496/496 232/499/499 215/497/497
f 215/497/497 232/499/499 216/500/500
f 216/500/500 232/499/499 231/501/501
f 216/500/500 231/501/501 230/502/502
f 230/502/502 218/503/503 216/500/500
f 211/495/495 210/504/504 235/489/489
f 235/489/489 210/504/504 209/505/505
f 235/489/489 209/505/505 208/506/506
f 208/506/506 207/490/490 235/489/489
f 217/507/507 229/508/508 193/509/509
f 193/509/509 229/508/508 228/510/510
f 193/509/509 228/510/510 227/511/511
f 193/509/509 227/511/511 194/512/512
f 194/512/512 227/511/511 226/513/513
f 194/512/512 226/513/513 225/514/514
f 224/515/515 196/516/516 225/514/514
f 225/514/514 196/516/516 195/517/517
f 225/514/514 195/517/517 194/512/512
f 223/518/518 202/519/519 224/515/515
f 224/515/515 202/519/519 201/520/520
f 224/515/515 201/520/520 200/521/521
f 222/522/522 204/523/523 223/518/518
f 223/518/518 204/523/523 203/524/524
f 223/518/518 203/524/524 202/519/519
f 222/522/522 221/525/525 204/523/523
f 204/523/523 221/525/525 189/526/526
f 189/526/526 221/525/525 220/527/527
f 189/526/526 220/527/527 219/528/528
f 219/528/528 190/529/529 189/526/526
f 200/521/521 199/530/530 224/515/515
f 224/515/515 199/530/530 198/531/531
f 224/515/515 198/531/531 197/532/532
f 197/532/532 196/516/516 224/515/515
g Body23

v -2.500000 2.900000 0.000000
v -2.374007 2.711011 0.000000
v -2.374007 2.711011 0.050000
v -2.500000 2.900000 0.050000
v 2.500000 2.900000 0.000000
v 1.875000 2.984395 0.000000
v 1.250000 3.047219 0.000000
v 0.625000 3.086520 0.000000
v 0.000000 3.100000 0.000000
v -0.625000 3.086520 0.000000
v -1.250000 3.047219 0.000000
v -1.875000 2.984395 0.000000
v -1.875000 2.984395 0.050000
v -1.250000 3.047219 0.050000
v -0.625000 3.086520 0.050000
v 0.000000 3.100000 0.050000
v 0.625000 3.086520 0.050000
v 1.250000 3.047219 0.050000
v 1.875000 2.984395 0.050000
v 2.500000 2.900000 0.050000
v 2.374007 2.711011 0.000000
v 2.374007 2.711011 0.050000
v -1.780505 2.811155 0.000000
v -1.187004 2.885702 0.000000
v -0.593502 2.932338 0.000000
v -0.000000 2.948334 0.000000
v 0.593502 2.932338 0.000000
v 1.187004 2.885702 0.000000
v 1.780505 2.811155 0.000000
v 1.780505 2.811155 0.050000
v 1.187004 2.885702 0.050000
v 0.593502 2.932338 0.050000
v -0.000000 2.948334 0.050000
v -0.593502 2.932338 0.050000
v -1.187004 2.885702 0.050000
v -1.780505 2.811155 0.050000
vt 0.000000 0.000000 0.000000
vt 0.227137 0.000000 0.000000
vt 0.000000 0.050000 0.000000
vt 0.227137 0.050000 0.000000
vt -5.000000 0.000000 0.000000
vt -4.375000 0.000000 0.000000
vt -5.000000 0.050000 0.000000
vt -4.375000 0.050000 0.000000
vt -3.750000 0.000000 0.000000
vt -3.750000 0.050000 0.000000
vt -3.125000 0.000000 0.000000
vt -3.125000 0.050000 0.000000
vt -2.500000 0.000000 0.000000
vt -2.500000 0.050000 0.000000
vt -1.875000 0.000000 0.000000
vt -1.875000 0.050000 0.000000
vt -1.250000 0.000000 0.000000
vt -1.250000 0.050000 0.000000
vt -0.625000 0.000000 0.000000
vt -0.625000 0.050000 0.000000
vt 0.000000 0.000000 0.000000
vt 0.000000 0.050000 0.000000
vt 0.000000 0.000000 0.000000
vt 0.227137 0.000000 0.000000
vt 0.000000 0.050000 0.000000
vt 0.227137 0.050000 0.000000
vt 0.000000 0.000000 0.000000
vt 0.593502 0.000000 0.000000
vt 0.000000 0.050000 0.000000
vt 0.593502 0.050000 0.000000
vt 1.187004 0.000000 0.000000
vt 1.187004 0.050000 0.000000
vt 1.780505 0.000000 0.000000
vt 1.780505 0.050000 0.000000
vt 2.374007 0.000000 0.000000
vt 2.374007 0.050000 0.000000
vt 2.967509 0.000000 0.000000
vt 2.967509 0.050000 0.000000
vt 3.561011 0.000000 0.000000
vt 3.561011 0.050000 0.000000
vt 4.154513 0.000000 0.000000
vt 4.154513 0.050000 0.000000
vt 4.748015 0.000000 0.000000
vt 4.748015 0.050000 0.000000
vt -2.374007 -0.196694 0.000000
vt -1.780505 -0.096550 0.000000
vt -2.500000 -0.007705 0.000000
vt -1.187004 -0.022003 0.000000
vt -1.875000 0.076690 0.000000
vt -0.593502 0.024633 0.000000
vt -1.250000 0.139514 0.000000
vt -0.000000 0.040629 0.000000
vt -0.625000 0.178815 0.000000
vt 0.000000 0.192295 0.000000
vt 0.625000 0.178815 0.000000
vt 1.250000 0.139514 0.000000
vt 0.593502 0.024633 0.000000
vt 1.875000 0.076690 0.000000
vt 1.187004 -0.022003 0.000000
vt 2.500000 -0.007705 0.000000
vt 1.780505 -0.096550 0.000000
vt 2.374007 -0.196694 0.000000
vt -2.374007 -0.196694 0.000000
vt -1.780505 -0.096550 0.000000
vt -2.500000 -0.007705 0.000000
vt -1.187004 -0.022003 0.000000
vt -1.875000 0.076690 0.000000
vt -0.593502 0.024633 0.000000
vt -1.250000 0.139514 0.000000
vt 0.000000 0.040629 0.000000
vt -0.625000 0.178815 0.000000
vt -0.000000 0.192295 0.000000
vt 0.625000 0.178815 0.000000
vt 1.250000 0.139514 0.000000
vt 0.593502 0.024633 0.000000
vt 1.875000 0.076690 0.000000
vt 1.187004 -0.022003 0.000000
vt 2.500000 -0.007705 0.000000
vt 1.780505 -0.096550 0.000000
vt 2.374007 -0.196694 0.000000
vn -0.832050 -0.554700 0.000000
vn -0.832050 -0.554700 0.000000
vn -0.832050 -0.554700 0.000000
vn -0.832050 -0.554700 0.000000
vn 0.149979 0.988689 -0.000000
vn 0.117347 0.993091 -0.000000
vn 0.149979 0.988689 -0.000000
vn 0.117347 0.993091 -0.000000
vn 0.082052 0.996628 -0.000000
vn 0.082052 0.996628 -0.000000
vn 0.042742 0.999086 -0.000000
vn 0.042742 0.999086 -0.000000
vn -0.000000 1.000000 0.000000
vn -0.000000 1.000000 0.000000
vn -0.042742 0.999086 0.000000
vn -0.042742 0.999086 0.000000
vn -0.082052 0.996628 0.000000
vn -0.082052 0.996628 0.000000
vn -0.117347 0.993091 0.000000
vn -0.117347 0.993091 0.000000
vn -0.149979 0.988689 0.000000
vn -0.149979 0.988689 0.000000
vn 0.832050 -0.554700 0.000000
vn 0.832050 -0.554700 0.000000
vn 0.832050 -0.554700 0.000000
vn 0.832050 -0.554700 0.000000
vn 0.186240 -0.982504 0.000000
vn 0.146072 -0.989274 0.000000
vn 0.186240 -0.982504 0.000000
vn 0.146072 -0.989274 0.000000
vn 0.102338 -0.994750 0.000000
vn 0.102338 -0.994750 0.000000
vn 0.053383 -0.998574 0.000000
vn 0.053383 -0.998574 0.000000
vn 0.000000 -1.000000 0.000000
vn 0.000000 -1.000000 0.000000
vn -0.053383 -0.998574 0.000000
vn -0.053383 -0.998574 0.000000
vn -0.102338 -0.994750 0.000000
vn -0.102338 -0.994750 0.000000
vn -0.146072 -0.989274 0.000000
vn -0.146072 -0.989274 0.000000
vn -0.186240 -0.982504 0.000000
vn -0.186240 -0.982504 0.000000
vn 0.000000 0.000000 1.000000
vn 0.000000 0.000000 1.000000
vn 0.000000 0.000000 1.000000
vn 0.000000 0.000000 1.000000
vn 0.000000 0.000000 1.000000
vn 0.000000 0.000000 1.000000
vn 0.000000 0.000000 1.000000
vn 0.000000 0.000000 1.000000
vn 0.000000 0.000000 1.000000
vn 0.000000 0.000000 1.000000
vn 0.000000 0.000000 1.000000
vn 0.000000 0.000000 1.000000
vn 0.000000 0.000000 1.000000
vn 0.000000 0.000000 1.000000
vn 0.000000 0.000000 1.000000
vn 0.000000 0.000000 1.000000
vn 0.000000 0.000000 1.000000
vn 0.000000 0.000000 1.000000
vn -0.000000 -0.000000 -1.000000
vn -0.000000 -0.000000 -1.000000
vn -0.000000 -0.000000 -1.000000
vn -0.000000 -0.000000 -1.000000
vn -0.000000 -0.000000 -1.000000
vn -0.000000 -0.000000 -1.000000
vn -0.000000 -0.000000 -1.000000
vn -0.000000 -0.000000 -1.000000
vn -0.000000 -0.000000 -1.000000
vn -0.000000 -0.000000 -1.000000
vn -0.000000 -0.000000 -1.000000
vn -0.000000 -0.000000 -1.000000
vn -0.000000 -0.000000 -1.000000
vn -0.000000 -0.000000 -1.000000
vn -0.000000 -0.000000 -1.000000
vn -0.000000 -0.000000 -1.000000
vn -0.000000 -0.000000 -1.000000
vn -0.000000 -0.000000 -1.000000
f 241/533/533 242/534/534 244/535/535
f 244/535/535 242/534/534 243/536/536
f 245/537/537 246/538/538 260/539/539
f 260/539/539 246/538/538 259/540/540
f 259/540/540 246/538/538 247/541/541
f 259/540/540 247/541/541 258/542/542
f 258/542/542 247/541/541 248/543/543
f 258/542/542 248/543/543 257/544/544
f 257/544/544 248/543/543 249/545/545
f 257/544/544 249/545/545 256/546/546
f 256/546/546 249/545/545 250/547/547
f 256/546/546 250/547/547 255/548/548
f 255/548/548 250/547/547 251/549/549
f 255/548/548 251/549/549 254/550/550
f 254/550/550 251/549/549 252/551/551
f 254/550/550 252/551/551 253/552/552
f 253/552/552 252/551/551 241/553/553
f 253/552/552 241/553/553 244/554/554
f 261/555/555 245/556/556 262/557/557
f 262/557/557 245/556/556 260/558/558
f 242/559/559 263/560/560 243/561/561
f 243/561/561 263/560/560 276/562/562
f 276/562/562 263/560/560 264/563/563
f 276/562/562 264/563/563 275/564/564
f 275/564/564 264/563/563 265/565/565
f 275/564/564 265/565/565 274/566/566
f 274/566/566 265/565/565 266/567/567
f 274/566/566 266/567/567 273/568/568
f 273/568/568 266/567/567 267/569/569
f 273/568/568 267/569/569 272/570/570
f 272/570/570 267/569/569 268/571/571
f 272/570/570 268/571/571 271/572/572
f 271/572/572 268/571/571 269/573/573
f 271/572/572 269/573/573 270/574/574
f 270/574/574 269/573/573 261/575/575
f 270/574/574 261/575/575 262/576/576
f 243/577/577 276/578/578 244/579/579
f 244/579/579 276/578/578 275/580/580
f 244/579/579 275/580/580 253/581/581
f 253/581/581 275/580/580 274/582/582
f 253/581/581 274/582/582 254/583/583
f 254/583/583 274/582/582 273/584/584
f 254/583/583 273/584/584 255/585/585
f 255/585/585 273/584/584 256/586/586
f 256/586/586 273/584/584 257/587/587
f 257/587/587 273/584/584 258/588/588
f 258/588/588 273/584/584 272/589/589
f 258/588/588 272/589/589 259/590/590
f 259/590/590 272/589/589 271/591/591
f 259/590/590 271/591/591 260/592/592
f 260/592/592 271/591/591 270/593/593
f 260/592/592 270/593/593 262/594/594
f 261/595/595 269/596/596 245/597/597
f 245/597/597 269/596/596 268/598/598
f 245/597/597 268/598/598 246/599/599
f 246/599/599 268/598/598 267/600/600
f 246/599/599 267/600/600 247/601/601
f 247/601/601 267/600/600 266/602/602
f 247/601/601 266/602/602 248/603/603
f 248/603/603 266/602/602 249/604/604
f 249/604/604 266/602/602 250/605/605
f 250/605/605 266/602/602 251/606/606
f 251/606/606 266/602/602 265/607/607
f 251/606/606 265/607/607 252/608/608
f 252/608/608 265/607/607 264/609/609
f 252/608/608 264/609/609 241/610/610
f 241/610/610 264/609/609 263/611/611
f 241/610/610 263/611/611 242/612/612
# 276 vertices
# 612 texture params
# 612 normals
# 524 facets

# 7 groups
