# WaveFront *.obj file (generated by Autodesk ATF)

mtllib MZI.mtl

g Body7

v 0.320000 0.100000 0.000000
v 0.240000 0.020000 0.000000
v 0.240000 0.020000 0.025000
v 0.320000 0.100000 0.025000
v 0.492500 0.100000 0.000000
v 0.492500 0.100000 0.025000
v 0.567183 0.025317 0.000000
v 0.567183 0.025317 0.025000
v 0.573788 0.020000 0.000000
v 0.573788 0.020000 0.025000
v 0.555000 0.020000 0.000000
v 0.555000 0.020000 0.025000
v 0.500000 0.075000 0.000000
v 0.500000 0.075000 0.025000
v 0.485000 0.090000 0.000000
v 0.485000 0.090000 0.025000
v 0.329000 0.090000 0.000000
v 0.329000 0.090000 0.025000
v 0.320000 0.080000 0.000000
v 0.320000 0.080000 0.025000
v 0.260000 0.020000 0.000000
v 0.260000 0.020000 0.025000
vt -0.000000 0.000000 0.000000
vt 0.113137 0.000000 0.000000
vt -0.000000 0.025000 0.000000
vt 0.113137 0.025000 0.000000
vt -0.000000 0.000000 0.000000
vt 0.172500 0.000000 0.000000
vt -0.000000 0.025000 0.000000
vt 0.172500 0.025000 0.000000
vt 0.000000 0.000000 0.000000
vt 0.105617 0.000000 0.000000
vt 0.000000 0.025000 0.000000
vt 0.105617 0.025000 0.000000
vt 0.000000 0.000000 0.000000
vt 0.008480 0.000000 0.000000
vt 0.000000 0.025000 0.000000
vt 0.008480 0.025000 0.000000
vt 0.000000 0.000000 0.000000
vt 0.018788 0.000000 0.000000
vt 0.000000 0.025000 0.000000
vt 0.018788 0.025000 0.000000
vt 0.000000 0.000000 0.000000
vt 0.077782 0.000000 0.000000
vt 0.000000 0.025000 0.000000
vt 0.077782 0.025000 0.000000
vt 0.000000 0.000000 0.000000
vt 0.021213 0.000000 0.000000
vt 0.000000 0.025000 0.000000
vt 0.021213 0.025000 0.000000
vt 0.000000 0.000000 0.000000
vt 0.156000 0.000000 0.000000
vt 0.000000 0.025000 0.000000
vt 0.156000 0.025000 0.000000
vt 0.000000 0.000000 0.000000
vt 0.013454 0.000000 0.000000
vt 0.000000 0.025000 0.000000
vt 0.013454 0.025000 0.000000
vt 0.000000 0.000000 0.000000
vt 0.084853 0.000000 0.000000
vt 0.000000 0.025000 0.000000
vt 0.084853 0.025000 0.000000
vt 0.000000 0.000000 0.000000
vt 0.020000 0.000000 0.000000
vt 0.000000 0.025000 0.000000
vt 0.020000 0.025000 0.000000
vt -0.146894 -0.040000 0.000000
vt -0.086894 0.020000 0.000000
vt -0.166894 -0.040000 0.000000
vt -0.086894 0.040000 0.000000
vt -0.077894 0.030000 0.000000
vt 0.085606 0.040000 0.000000
vt 0.078106 0.030000 0.000000
vt 0.093106 0.015000 0.000000
vt 0.160289 -0.034683 0.000000
vt 0.148106 -0.040000 0.000000
vt 0.166894 -0.040000 0.000000
vt 0.146894 -0.040000 0.000000
vt 0.166894 -0.040000 0.000000
vt 0.086894 0.020000 0.000000
vt 0.086894 0.040000 0.000000
vt 0.077894 0.030000 0.000000
vt -0.085606 0.040000 0.000000
vt -0.078106 0.030000 0.000000
vt -0.093106 0.015000 0.000000
vt -0.160289 -0.034683 0.000000
vt -0.148106 -0.040000 0.000000
vt -0.166894 -0.040000 0.000000
vn -0.707107 0.707107 0.000000
vn -0.707107 0.707107 0.000000
vn -0.707107 0.707107 0.000000
vn -0.707107 0.707107 0.000000
vn 0.000000 1.000000 0.000000
vn 0.000000 1.000000 0.000000
vn 0.000000 1.000000 0.000000
vn 0.000000 1.000000 0.000000
vn 0.707107 0.707107 -0.000000
vn 0.707107 0.707107 -0.000000
vn 0.707107 0.707107 -0.000000
vn 0.707107 0.707107 -0.000000
vn 0.627043 0.778985 -0.000000
vn 0.627043 0.778985 -0.000000
vn 0.627043 0.778985 -0.000000
vn 0.627043 0.778985 -0.000000
vn 0.000000 -1.000000 0.000000
vn 0.000000 -1.000000 0.000000
vn 0.000000 -1.000000 0.000000
vn 0.000000 -1.000000 0.000000
vn -0.707107 -0.707107 0.000000
vn -0.707107 -0.707107 0.000000
vn -0.707107 -0.707107 0.000000
vn -0.707107 -0.707107 0.000000
vn -0.707107 -0.707107 0.000000
vn -0.707107 -0.707107 0.000000
vn -0.707107 -0.707107 0.000000
vn -0.707107 -0.707107 0.000000
vn 0.000000 -1.000000 0.000000
vn 0.000000 -1.000000 0.000000
vn 0.000000 -1.000000 0.000000
vn 0.000000 -1.000000 0.000000
vn 0.743294 -0.668965 0.000000
vn 0.743294 -0.668965 0.000000
vn 0.743294 -0.668965 0.000000
vn 0.743294 -0.668965 0.000000
vn 0.707107 -0.707107 0.000000
vn 0.707107 -0.707107 0.000000
vn 0.707107 -0.707107 0.000000
vn 0.707107 -0.707107 0.000000
vn 0.000000 -1.000000 0.000000
vn 0.000000 -1.000000 0.000000
vn 0.000000 -1.000000 0.000000
vn 0.000000 -1.000000 0.000000
vn 0.000000 0.000000 1.000000
vn 0.000000 0.000000 1.000000
vn 0.000000 0.000000 1.000000
vn 0.000000 0.000000 1.000000
vn 0.000000 0.000000 1.000000
vn 0.000000 0.000000 1.000000
vn 0.000000 0.000000 1.000000
vn 0.000000 0.000000 1.000000
vn 0.000000 0.000000 1.000000
vn 0.000000 0.000000 1.000000
vn 0.000000 0.000000 1.000000
vn -0.000000 -0.000000 -1.000000
vn -0.000000 -0.000000 -1.000000
vn -0.000000 -0.000000 -1.000000
vn -0.000000 -0.000000 -1.000000
vn -0.000000 -0.000000 -1.000000
vn -0.000000 -0.000000 -1.000000
vn -0.000000 -0.000000 -1.000000
vn -0.000000 -0.000000 -1.000000
vn -0.000000 -0.000000 -1.000000
vn -0.000000 -0.000000 -1.000000
vn -0.000000 -0.000000 -1.000000
usemtl Steel_-_Satin
f 1/1/1 2/2/2 4/3/3
f 4/3/3 2/2/2 3/4/4
f 5/5/5 1/6/6 6/7/7
f 6/7/7 1/6/6 4/8/8
f 7/9/9 5/10/10 8/11/11
f 8/11/11 5/10/10 6/12/12
f 9/13/13 7/14/14 10/15/15
f 10/15/15 7/14/14 8/16/16
f 11/17/17 9/18/18 12/19/19
f 12/19/19 9/18/18 10/20/20
f 13/21/21 11/22/22 14/23/23
f 14/23/23 11/22/22 12/24/24
f 15/25/25 13/26/26 16/27/27
f 16/27/27 13/26/26 14/28/28
f 17/29/29 15/30/30 18/31/31
f 18/31/31 15/30/30 16/32/32
f 19/33/33 17/34/34 20/35/35
f 20/35/35 17/34/34 18/36/36
f 21/37/37 19/38/38 22/39/39
f 22/39/39 19/38/38 20/40/40
f 2/41/41 21/42/42 3/43/43
f 3/43/43 21/42/42 22/44/44
f 22/45/45 20/46/46 3/47/47
f 3/47/47 20/46/46 4/48/48
f 4/48/48 20/46/46 18/49/49
f 4/48/48 18/49/49 6/50/50
f 6/50/50 18/49/49 16/51/51
f 6/50/50 16/51/51 14/52/52
f 6/50/50 14/52/52 8/53/53
f 8/53/53 14/52/52 12/54/54
f 8/53/53 12/54/54 10/55/55
f 21/56/56 2/57/57 19/58/58
f 19/58/58 2/57/57 1/59/59
f 19/58/58 1/59/59 17/60/60
f 17/60/60 1/59/59 5/61/61
f 17/60/60 5/61/61 15/62/62
f 15/62/62 5/61/61 13/63/63
f 13/63/63 5/61/61 7/64/64
f 13/63/63 7/64/64 11/65/65
f 11/65/65 7/64/64 9/66/66
g Body8

v 0.260000 0.000000 0.000000
v 0.240000 0.000000 0.000000
v 0.240000 0.000000 0.025000
v 0.260000 0.000000 0.025000
v 0.320000 -0.060000 0.000000
v 0.320000 -0.060000 0.025000
v 0.329000 -0.070000 0.000000
v 0.329000 -0.070000 0.025000
v 0.485000 -0.070000 0.000000
v 0.485000 -0.070000 0.025000
v 0.500000 -0.055000 0.000000
v 0.500000 -0.055000 0.025000
v 0.555000 0.000000 0.000000
v 0.555000 0.000000 0.025000
v 0.573788 0.000000 0.000000
v 0.573788 0.000000 0.025000
v 0.567183 -0.005317 0.000000
v 0.567183 -0.005317 0.025000
v 0.492500 -0.080000 0.000000
v 0.492500 -0.080000 0.025000
v 0.320000 -0.080000 0.000000
v 0.320000 -0.080000 0.025000
vt -0.000000 0.000000 0.000000
vt 0.020000 0.000000 0.000000
vt -0.000000 0.025000 0.000000
vt 0.020000 0.025000 0.000000
vt 0.000000 0.000000 0.000000
vt 0.084853 0.000000 0.000000
vt 0.000000 0.025000 0.000000
vt 0.084853 0.025000 0.000000
vt 0.000000 0.000000 0.000000
vt 0.013454 0.000000 0.000000
vt 0.000000 0.025000 0.000000
vt 0.013454 0.025000 0.000000
vt 0.000000 0.000000 0.000000
vt 0.156000 0.000000 0.000000
vt 0.000000 0.025000 0.000000
vt 0.156000 0.025000 0.000000
vt -0.000000 0.000000 0.000000
vt 0.021213 0.000000 0.000000
vt -0.000000 0.025000 0.000000
vt 0.021213 0.025000 0.000000
vt -0.000000 0.000000 0.000000
vt 0.077782 0.000000 0.000000
vt -0.000000 0.025000 0.000000
vt 0.077782 0.025000 0.000000
vt -0.000000 0.000000 0.000000
vt 0.018788 0.000000 0.000000
vt -0.000000 0.025000 0.000000
vt 0.018788 0.025000 0.000000
vt 0.000000 0.000000 0.000000
vt 0.008480 0.000000 0.000000
vt 0.000000 0.025000 0.000000
vt 0.008480 0.025000 0.000000
vt 0.000000 0.000000 0.000000
vt 0.105617 0.000000 0.000000
vt 0.000000 0.025000 0.000000
vt 0.105617 0.025000 0.000000
vt 0.000000 0.000000 0.000000
vt 0.172500 0.000000 0.000000
vt 0.000000 0.025000 0.000000
vt 0.172500 0.025000 0.000000
vt 0.000000 0.000000 0.000000
vt 0.113137 0.000000 0.000000
vt 0.000000 0.025000 0.000000
vt 0.113137 0.025000 0.000000
vt -0.146894 0.040000 0.000000
vt -0.166894 0.040000 0.000000
vt -0.086894 -0.020000 0.000000
vt -0.086894 -0.040000 0.000000
vt -0.077894 -0.030000 0.000000
vt 0.085606 -0.040000 0.000000
vt 0.078106 -0.030000 0.000000
vt 0.093106 -0.015000 0.000000
vt 0.160289 0.034683 0.000000
vt 0.148106 0.040000 0.000000
vt 0.166894 0.040000 0.000000
vt 0.166894 0.040000 0.000000
vt 0.086894 -0.020000 0.000000
vt 0.086894 -0.040000 0.000000
vt 0.077894 -0.030000 0.000000
vt -0.085606 -0.040000 0.000000
vt -0.078106 -0.030000 0.000000
vt -0.093106 -0.015000 0.000000
vt 0.146894 0.040000 0.000000
vt -0.160289 0.034683 0.000000
vt -0.148106 0.040000 0.000000
vt -0.166894 0.040000 0.000000
vn 0.000000 1.000000 0.000000
vn 0.000000 1.000000 0.000000
vn 0.000000 1.000000 0.000000
vn 0.000000 1.000000 0.000000
vn 0.707107 0.707107 -0.000000
vn 0.707107 0.707107 -0.000000
vn 0.707107 0.707107 -0.000000
vn 0.707107 0.707107 -0.000000
vn 0.743294 0.668965 -0.000000
vn 0.743294 0.668965 -0.000000
vn 0.743294 0.668965 -0.000000
vn 0.743294 0.668965 -0.000000
vn 0.000000 1.000000 -0.000000
vn 0.000000 1.000000 -0.000000
vn 0.000000 1.000000 -0.000000
vn 0.000000 1.000000 -0.000000
vn -0.707107 0.707107 0.000000
vn -0.707107 0.707107 0.000000
vn -0.707107 0.707107 0.000000
vn -0.707107 0.707107 0.000000
vn -0.707107 0.707107 0.000000
vn -0.707107 0.707107 0.000000
vn -0.707107 0.707107 0.000000
vn -0.707107 0.707107 0.000000
vn 0.000000 1.000000 0.000000
vn 0.000000 1.000000 0.000000
vn 0.000000 1.000000 0.000000
vn 0.000000 1.000000 0.000000
vn 0.627043 -0.778985 0.000000
vn 0.627043 -0.778985 0.000000
vn 0.627043 -0.778985 0.000000
vn 0.627043 -0.778985 0.000000
vn 0.707107 -0.707107 0.000000
vn 0.707107 -0.707107 0.000000
vn 0.707107 -0.707107 0.000000
vn 0.707107 -0.707107 0.000000
vn 0.000000 -1.000000 0.000000
vn 0.000000 -1.000000 0.000000
vn 0.000000 -1.000000 0.000000
vn 0.000000 -1.000000 0.000000
vn -0.707107 -0.707107 0.000000
vn -0.707107 -0.707107 0.000000
vn -0.707107 -0.707107 0.000000
vn -0.707107 -0.707107 0.000000
vn 0.000000 0.000000 1.000000
vn 0.000000 0.000000 1.000000
vn 0.000000 0.000000 1.000000
vn 0.000000 0.000000 1.000000
vn 0.000000 0.000000 1.000000
vn 0.000000 0.000000 1.000000
vn 0.000000 0.000000 1.000000
vn 0.000000 0.000000 1.000000
vn 0.000000 0.000000 1.000000
vn 0.000000 0.000000 1.000000
vn 0.000000 0.000000 1.000000
vn -0.000000 0.000000 -1.000000
vn -0.000000 0.000000 -1.000000
vn -0.000000 0.000000 -1.000000
vn -0.000000 0.000000 -1.000000
vn -0.000000 0.000000 -1.000000
vn -0.000000 0.000000 -1.000000
vn -0.000000 0.000000 -1.000000
vn -0.000000 0.000000 -1.000000
vn -0.000000 0.000000 -1.000000
vn -0.000000 0.000000 -1.000000
vn -0.000000 0.000000 -1.000000
f 23/67/67 24/68/68 26/69/69
f 26/69/69 24/68/68 25/70/70
f 27/71/71 23/72/72 28/73/73
f 28/73/73 23/72/72 26/74/74
f 29/75/75 27/76/76 30/77/77
f 30/77/77 27/76/76 28/78/78
f 31/79/79 29/80/80 32/81/81
f 32/81/81 29/80/80 30/82/82
f 33/83/83 31/84/84 34/85/85
f 34/85/85 31/84/84 32/86/86
f 35/87/87 33/88/88 36/89/89
f 36/89/89 33/88/88 34/90/90
f 37/91/91 35/92/92 38/93/93
f 38/93/93 35/92/92 36/94/94
f 39/95/95 37/96/96 40/97/97
f 40/97/97 37/96/96 38/98/98
f 41/99/99 39/100/100 42/101/101
f 42/101/101 39/100/100 40/102/102
f 43/103/103 41/104/104 44/105/105
f 44/105/105 41/104/104 42/106/106
f 24/107/107 43/108/108 25/109/109
f 25/109/109 43/108/108 44/110/110
f 26/111/111 25/112/112 28/113/113
f 28/113/113 25/112/112 44/114/114
f 28/113/113 44/114/114 30/115/115
f 30/115/115 44/114/114 42/116/116
f 30/115/115 42/116/116 32/117/117
f 32/117/117 42/116/116 34/118/118
f 34/118/118 42/116/116 40/119/119
f 34/118/118 40/119/119 36/120/120
f 36/120/120 40/119/119 38/121/121
f 24/122/122 27/123/123 43/124/124
f 43/124/124 27/123/123 29/125/125
f 43/124/124 29/125/125 41/126/126
f 41/126/126 29/125/125 31/127/127
f 41/126/126 31/127/127 33/128/128
f 24/122/122 23/129/129 27/123/123
f 41/126/126 33/128/128 39/130/130
f 39/130/130 33/128/128 35/131/131
f 39/130/130 35/131/131 37/132/132
# 44 vertices
# 132 texture params
# 132 normals
# 80 facets

# 2 groups
